<?xml version="1.0" standalone="no"?>
<!DOCTYPE svg PUBLIC "-//W3C//DTD SVG 20010904//EN"
 "http://www.w3.org/TR/2001/REC-SVG-20010904/DTD/svg10.dtd">
<svg version="1.0" xmlns="http://www.w3.org/2000/svg"
 width="4608.000000pt" height="3072.000000pt" viewBox="0 0 4608.000000 3072.000000"
 preserveAspectRatio="xMidYMid meet">
<metadata>
Created by potrace 1.10, written by Peter Selinger 2001-2011
</metadata>
<g transform="translate(0.000000,3072.000000) scale(0.100000,-0.100000)"
fill="#021d65" stroke="none">
<path d="M3125 28281 c-245 -23 -525 -115 -770 -254 -260 -148 -561 -441 -711
-692 -16 -27 -35 -59 -41 -70 -7 -11 -29 -54 -49 -95 -20 -41 -40 -83 -45 -92
-19 -37 -69 -187 -92 -273 -40 -154 -67 -359 -67 -515 0 -191 38 -438 92 -595
5 -16 14 -43 18 -60 22 -76 118 -288 173 -380 60 -99 166 -243 233 -315 23
-25 52 -57 65 -71 28 -32 132 -125 174 -156 162 -122 225 -161 370 -231 77
-37 122 -56 203 -86 89 -32 109 -38 150 -47 23 -5 51 -13 61 -19 11 -5 31 -10
45 -10 13 0 51 -6 83 -14 32 -8 129 -20 215 -27 362 -29 726 42 1059 206 30
14 68 35 84 45 17 11 39 24 50 30 38 20 61 35 124 80 230 165 442 389 578 615
30 50 143 284 143 297 0 8 4 18 9 24 8 8 37 97 66 204 37 134 65 349 65 505 0
194 -38 443 -92 600 -5 17 -13 44 -18 60 -13 50 -108 262 -143 320 -7 11 -24
39 -39 63 -16 24 -28 45 -28 47 0 5 -98 142 -115 161 -165 188 -282 299 -379
363 -23 14 -43 28 -46 31 -9 9 -65 46 -80 53 -8 4 -28 16 -45 27 -38 24 -217
112 -270 132 -124 48 -185 69 -225 78 -19 4 -55 12 -80 18 -164 40 -201 44
-420 47 -124 2 -261 0 -305 -4z m470 -46 c261 -33 459 -90 660 -188 211 -102
369 -214 532 -376 87 -86 254 -292 276 -341 4 -8 16 -28 26 -45 26 -40 114
-219 136 -275 58 -150 94 -285 119 -450 18 -120 22 -438 5 -510 -5 -24 -14
-74 -19 -110 -17 -117 -60 -271 -107 -380 -8 -19 -21 -50 -29 -67 -52 -120
-143 -277 -228 -388 -75 -100 -230 -261 -316 -328 -36 -29 -76 -62 -90 -74
-14 -13 -29 -23 -33 -23 -5 0 -26 -13 -46 -28 -20 -16 -43 -32 -51 -35 -8 -4
-28 -15 -45 -25 -128 -78 -304 -155 -445 -195 -356 -102 -757 -103 -1105 -1
-87 25 -169 52 -210 69 -69 29 -149 66 -165 76 -8 5 -25 13 -37 19 -40 17
-156 93 -251 163 -248 184 -482 482 -608 775 -9 20 -23 50 -30 65 -8 16 -14
35 -14 42 0 8 -6 29 -14 47 -30 70 -66 219 -91 377 -41 261 2 687 91 899 8 18
14 39 14 47 0 7 6 26 14 42 8 15 22 46 32 68 154 355 449 684 799 891 97 57
147 83 210 109 17 7 46 19 65 28 72 31 206 71 305 91 235 47 448 57 650 31z"/>
<path d="M3115 28084 c-27 -7 -60 -14 -73 -14 -17 0 -22 -5 -20 -17 3 -15 12
-17 50 -15 26 2 52 1 57 -2 5 -4 -9 -34 -32 -69 -65 -96 -74 -116 -57 -127 20
-13 30 -12 111 6 49 11 69 20 69 31 0 13 -10 15 -51 11 -57 -6 -74 9 -45 41 9
10 16 21 16 24 0 4 14 26 30 49 33 45 37 91 10 95 -8 1 -37 -5 -65 -13z"/>
<path d="M3268 28093 c-2 -4 -2 -56 0 -115 3 -86 6 -107 19 -112 29 -11 34 9
31 120 -3 103 -4 109 -25 112 -11 2 -23 0 -25 -5z"/>
<path d="M3385 28089 c-11 -17 15 -29 63 -29 23 0 42 -4 42 -9 0 -5 -27 -42
-60 -82 -34 -39 -60 -79 -58 -88 3 -13 21 -17 87 -21 45 -3 88 -2 93 1 22 14
-5 29 -52 29 -27 0 -52 5 -55 10 -5 8 82 122 108 141 5 4 7 17 5 30 -3 23 -7
24 -85 27 -53 2 -84 -1 -88 -9z"/>
<path d="M3771 28006 c-29 -30 -33 -40 -34 -95 -2 -53 2 -64 25 -87 21 -21 36
-26 76 -27 54 -1 82 14 82 44 0 23 -18 24 -44 4 -61 -46 -123 35 -84 108 28
54 71 60 113 17 31 -32 45 -31 45 5 0 31 -55 65 -107 65 -31 0 -46 -7 -72 -34z"/>
<path d="M2828 28013 c-18 -5 -19 -14 -22 -205 -1 -24 4 -34 17 -36 12 -3 17
3 17 22 0 20 9 30 39 46 l40 20 31 -27 c25 -21 34 -23 40 -13 11 17 -8 52 -54
105 -20 22 -36 43 -36 47 0 9 -42 48 -49 47 -3 -1 -14 -3 -23 -6z m72 -109 c0
-15 -35 -28 -50 -19 -11 7 -14 58 -3 68 8 9 53 -32 53 -49z"/>
<path d="M4015 27893 c-20 -43 -41 -88 -47 -100 -6 -11 -7 -26 -4 -32 14 -21
35 -11 53 27 22 45 42 50 82 21 l29 -22 -19 -37 c-19 -37 -17 -74 5 -67 9 3
62 94 102 175 8 15 -2 42 -15 42 -11 0 -23 -12 -44 -43 -12 -17 -15 -17 -50
-2 -39 16 -50 48 -26 72 7 7 9 19 6 27 -13 33 -36 13 -72 -61z"/>
<path d="M2446 27851 c-8 -12 84 -192 102 -198 15 -6 115 42 133 64 19 22 -20
29 -53 10 -50 -29 -64 -23 -98 46 -18 34 -37 68 -42 75 -12 14 -34 16 -42 3z"/>
<path d="M2336 27793 c-14 -14 -4 -40 39 -104 50 -75 53 -88 27 -112 -27 -25
-56 -21 -80 11 -11 15 -35 47 -54 71 -37 50 -52 56 -56 24 -6 -40 98 -163 137
-163 54 0 101 38 108 87 4 33 -2 48 -41 108 -46 69 -67 90 -80 78z"/>
<path d="M4335 27789 c-5 -5 -40 -32 -77 -59 -76 -56 -85 -67 -69 -83 9 -9 16
-8 31 1 30 19 55 14 83 -14 20 -20 24 -30 17 -44 -7 -13 -4 -22 10 -35 25 -23
29 -19 40 41 5 27 17 77 26 111 9 34 14 69 11 77 -7 18 -56 21 -72 5z m29 -58
c9 -14 -33 -61 -49 -54 -20 7 -19 22 2 45 17 19 38 24 47 9z"/>
<path d="M3160 27715 c-225 -31 -460 -127 -645 -263 -233 -171 -407 -392 -500
-632 -54 -140 -61 -171 -87 -371 -21 -162 -21 -168 -4 -300 17 -133 32 -203
66 -309 61 -186 174 -380 300 -514 71 -76 239 -226 253 -226 4 0 23 -11 40
-24 18 -13 55 -36 82 -50 28 -15 57 -31 65 -35 14 -8 30 -15 110 -50 95 -40
255 -77 402 -92 200 -20 449 15 643 88 51 20 231 108 267 131 178 114 331 261
437 417 45 68 123 218 153 300 52 137 77 267 84 427 13 313 -43 549 -193 808
-42 72 -135 189 -219 276 -71 71 -214 189 -254 207 -8 4 -31 17 -50 28 -82 49
-232 119 -255 119 -8 0 -29 6 -47 14 -134 57 -437 81 -648 51z m476 -54 c167
-36 235 -59 369 -123 42 -21 51 -26 130 -72 243 -142 486 -448 578 -726 102
-309 100 -591 -5 -915 -18 -55 -92 -213 -121 -259 -188 -298 -457 -505 -792
-609 -159 -50 -246 -62 -435 -62 -276 1 -470 54 -720 196 -58 33 -191 139
-261 209 -73 72 -170 193 -219 274 -31 52 -100 193 -100 205 0 6 -6 25 -14 43
-17 40 -40 119 -61 210 -21 95 -21 433 1 532 31 143 96 316 157 421 194 331
561 596 922 666 28 5 66 13 85 18 19 5 116 9 216 10 143 1 200 -3 270 -18z"/>
<path d="M3215 27620 c-111 -11 -200 -33 -343 -85 -43 -15 -47 -17 -118 -54
-81 -41 -90 -46 -164 -96 -103 -68 -283 -250 -352 -355 -203 -311 -269 -658
-192 -1020 68 -319 249 -602 514 -803 46 -34 190 -121 245 -147 72 -33 181
-70 285 -96 107 -26 420 -26 535 0 103 23 217 57 230 68 5 4 15 8 22 8 7 0 43
14 80 32 175 82 314 190 464 359 79 89 111 137 168 249 99 197 141 377 141
609 0 227 -46 428 -138 602 -196 370 -518 615 -937 712 -82 19 -325 29 -440
17z m342 -50 c120 -19 179 -32 263 -60 58 -19 170 -72 215 -101 17 -10 37 -22
45 -26 71 -32 262 -209 349 -323 74 -95 104 -149 166 -285 51 -113 95 -335 95
-479 0 -116 -28 -293 -61 -391 -6 -16 -14 -44 -18 -60 -4 -17 -12 -39 -18 -50
-6 -11 -27 -54 -47 -95 -66 -135 -119 -205 -250 -334 -194 -190 -447 -321
-686 -356 -36 -5 -89 -14 -119 -20 -154 -29 -486 22 -639 99 -105 53 -140 72
-192 105 -74 47 -156 113 -215 172 -53 53 -164 192 -178 224 -4 8 -16 29 -27
45 -62 98 -129 271 -150 390 -5 28 -13 74 -19 104 -6 29 -11 104 -11 165 0
336 133 660 369 897 61 60 205 176 241 192 8 4 29 16 45 26 50 32 109 59 233
105 99 37 298 73 414 75 36 1 124 -8 195 -19z"/>
<path d="M3135 27399 c-4 -6 3 -42 15 -80 14 -41 19 -74 14 -79 -5 -5 -27 -10
-49 -12 -43 -3 -45 0 -30 54 10 39 -18 49 -45 17 -15 -18 -19 -33 -16 -59 4
-23 0 -40 -11 -52 -23 -26 -45 -22 -68 12 -24 36 -45 39 -45 6 0 -17 9 -29 28
-38 37 -18 40 -50 5 -83 -28 -26 -28 -26 -8 -41 18 -14 22 -13 43 11 12 14 22
35 22 45 0 21 64 70 92 70 9 0 27 4 40 9 13 5 35 12 51 15 23 6 27 11 27 42 0
19 -7 51 -15 71 -8 19 -15 51 -15 69 0 34 -21 47 -35 23z"/>
<path d="M3230 27376 c0 -19 5 -47 11 -63 7 -15 15 -45 18 -66 3 -21 11 -39
16 -40 17 -3 17 70 1 102 -9 16 -16 46 -16 66 0 24 -4 35 -15 35 -10 0 -15
-10 -15 -34z"/>
<path d="M2997 27373 c-10 -15 10 -35 29 -31 26 5 24 32 -3 36 -11 2 -23 -1
-26 -5z"/>
<path d="M3485 27333 c23 -56 9 -83 -42 -83 -16 0 -23 -6 -23 -19 0 -14 10
-20 38 -25 61 -10 136 -7 165 7 23 10 27 18 27 54 0 23 -5 45 -10 48 -10 6
-14 -1 -24 -47 -9 -41 -76 -50 -76 -9 0 9 -5 33 -11 54 -7 27 -15 37 -31 37
-15 0 -18 -4 -13 -17z"/>
<path d="M3740 27292 c-20 -7 -90 -83 -90 -98 0 -18 64 -44 116 -47 45 -2 61
14 23 23 -28 7 -64 54 -56 74 8 20 56 21 63 1 7 -17 30 -20 39 -4 16 26 -55
64 -95 51z"/>
<path d="M2840 27275 c0 -10 7 -15 18 -13 21 4 19 22 -2 26 -10 2 -16 -3 -16
-13z"/>
<path d="M4047 27224 c-11 -12 3 -24 29 -24 15 0 24 6 24 15 0 15 -40 21 -53
9z"/>
<path d="M2766 27151 c-20 -22 -14 -41 14 -41 31 0 31 -15 0 -38 -39 -29 -59
-28 -98 8 -39 35 -52 38 -52 11 0 -25 77 -91 106 -91 31 0 94 64 94 95 0 35
-18 75 -33 75 -8 0 -22 -9 -31 -19z"/>
<path d="M4070 27150 c-8 -14 -21 -20 -45 -20 -34 0 -48 -14 -23 -22 7 -3 8
-9 3 -18 -6 -10 -11 -10 -21 4 -8 12 -19 16 -34 11 -31 -10 -21 -38 18 -50 20
-6 35 -17 38 -31 3 -11 25 -33 50 -49 24 -15 44 -35 44 -43 0 -8 15 -32 33
-53 83 -98 117 -156 117 -201 0 -40 27 -78 56 -78 32 0 39 17 13 31 l-22 11
24 19 c26 19 27 18 -28 35 -18 5 -16 29 3 48 19 20 9 39 -17 31 -24 -8 -36 19
-19 40 10 13 8 15 -14 15 -31 0 -35 26 -8 46 16 13 16 13 0 14 -10 0 -18 -4
-18 -10 0 -19 -20 -10 -58 24 -32 31 -35 37 -25 55 11 17 8 22 -35 44 -57 30
-64 55 -28 102 26 34 34 65 16 65 -5 0 -14 -9 -20 -20z"/>
<path d="M3557 27144 c-16 -16 -6 -35 16 -32 12 2 22 10 22 18 0 16 -26 25
-38 14z"/>
<path d="M2823 27012 c-17 -15 -44 -44 -62 -64 -31 -36 -32 -37 -11 -48 17 -9
25 -6 51 19 17 17 28 35 24 40 -3 6 6 18 20 27 25 16 33 38 16 48 -4 3 -22 -7
-38 -22z"/>
<path d="M2517 27014 c-11 -11 3 -24 24 -24 12 0 19 5 17 13 -5 14 -31 21 -41
11z"/>
<path d="M2595 26980 c-11 -18 4 -44 35 -62 43 -24 47 -43 17 -85 -26 -37 -27
-53 -2 -53 17 0 65 56 65 76 0 14 -28 64 -41 74 -4 3 -9 16 -10 30 -3 18 -11
26 -31 28 -14 2 -29 -2 -33 -8z"/>
<path d="M3252 26966 c-35 -8 -76 -19 -90 -26 -79 -36 -100 -47 -131 -67 -85
-57 -190 -174 -217 -243 -3 -8 -12 -28 -19 -45 -46 -106 -61 -303 -30 -390 8
-22 15 -46 15 -53 0 -31 77 -166 123 -217 58 -64 154 -139 207 -160 8 -4 23
-11 34 -16 10 -6 50 -19 90 -30 147 -39 329 -18 446 52 8 5 24 13 35 18 52 23
219 211 202 228 -4 3 -32 -18 -63 -46 -93 -85 -189 -120 -329 -120 -175 0
-302 64 -404 204 -118 163 -133 359 -41 545 25 49 129 163 169 185 70 37 113
53 191 69 82 17 88 17 181 -2 52 -11 105 -25 117 -31 54 -27 62 -31 74 -31 38
0 -130 117 -212 148 -92 36 -250 48 -348 28z"/>
<path d="M2367 26823 c-21 -21 -3 -39 56 -56 71 -21 87 -32 87 -58 0 -20 -24
-26 -35 -9 -3 6 -22 10 -42 10 -19 0 -50 7 -69 16 -38 18 -49 15 -40 -13 4
-13 28 -24 78 -38 66 -18 73 -23 73 -45 0 -22 -5 -25 -45 -28 -24 -2 -51 -8
-58 -14 -22 -19 -10 -61 21 -76 20 -10 27 -20 25 -35 -2 -18 -11 -23 -48 -27
-25 -3 -44 -9 -43 -15 4 -14 73 -19 86 -6 16 16 34 13 41 -6 4 -10 15 -34 25
-52 17 -32 19 -33 25 -14 8 24 -5 62 -36 104 -22 29 -22 31 -5 43 9 7 17 24
17 37 0 13 7 33 15 43 8 11 15 30 15 42 0 12 7 27 15 34 18 15 20 91 3 108 -7
7 -29 12 -51 12 -25 0 -49 8 -71 25 -18 14 -36 22 -39 18z m73 -268 c0 -15
-43 -12 -48 3 -3 10 4 13 22 10 15 -2 26 -7 26 -13z"/>
<path d="M3802 26564 c-70 -75 -76 -76 -177 -24 -70 36 -78 24 -35 -51 52 -88
51 -105 -14 -169 -31 -30 -56 -60 -56 -67 0 -17 51 -16 120 2 54 14 55 14 72
-8 9 -12 30 -48 45 -79 41 -85 60 -79 69 22 8 93 21 109 89 111 75 1 144 40
98 55 -10 4 -49 21 -86 38 l-68 31 5 75 c3 41 9 87 12 103 4 15 2 27 -3 27 -5
0 -37 -30 -71 -66z"/>
<path d="M4328 26553 c-8 -10 -18 -26 -21 -35 -9 -25 -43 -22 -62 5 -12 17
-17 19 -24 9 -10 -17 -3 -58 13 -70 6 -5 37 -12 68 -16 55 -6 58 -5 95 30 l38
36 -35 29 c-41 33 -52 35 -72 12z m47 -22 c7 -12 -12 -24 -25 -16 -11 7 -4 25
10 25 5 0 11 -4 15 -9z"/>
<path d="M4325 26398 c-3 -13 -6 -39 -8 -58 -2 -32 1 -35 27 -38 43 -5 74 6
81 29 8 24 -10 49 -35 49 -10 0 -20 9 -23 20 -7 27 -35 25 -42 -2z m43 -42 c3
-12 -1 -17 -10 -14 -7 3 -15 13 -16 22 -3 12 1 17 10 14 7 -3 15 -13 16 -22z"/>
<path d="M2341 26321 c-21 -13 -5 -41 22 -41 33 0 48 -21 55 -75 5 -50 -15
-85 -49 -85 -19 0 -49 -25 -49 -41 0 -12 47 -12 55 1 10 16 45 12 45 -5 0 -8
-7 -15 -15 -15 -8 0 -15 -7 -15 -15 0 -10 10 -15 29 -15 44 0 58 43 43 132 -7
37 -12 84 -12 103 0 52 -64 84 -109 56z"/>
<path d="M2505 26240 c-8 -14 3 -30 21 -30 8 0 14 9 14 20 0 21 -24 28 -35 10z"/>
<path d="M4315 26180 c-4 -6 -4 -23 0 -39 3 -16 2 -32 -4 -35 -19 -12 1 -36
29 -36 38 0 43 11 28 62 -15 53 -38 73 -53 48z"/>
<path d="M4395 26100 c-3 -5 3 -10 13 -10 12 0 22 -9 25 -22 4 -12 9 -19 13
-15 10 10 -17 57 -32 57 -7 0 -16 -4 -19 -10z"/>
<path d="M2245 26080 c-7 -12 2 -30 16 -30 12 0 12 27 0 35 -5 3 -12 1 -16 -5z"/>
<path d="M2514 25956 c-7 -19 2 -46 15 -46 15 0 42 31 38 44 -6 18 -46 19 -53
2z"/>
<path d="M4190 25884 c-44 -38 -90 -108 -90 -139 0 -42 37 -75 86 -75 25 0 47
-6 54 -15 14 -17 46 -20 55 -6 9 15 -48 50 -93 57 -58 9 -69 25 -48 69 9 19
25 40 35 47 10 7 23 23 30 36 11 21 61 32 61 13 0 -13 25 -20 39 -11 8 5 -1
14 -29 29 -52 27 -62 27 -100 -5z"/>
<path d="M2545 25871 c-3 -6 4 -15 17 -22 l22 -12 -29 -23 c-27 -21 -29 -22
-51 -6 -13 9 -24 25 -24 35 0 9 -3 17 -7 17 -15 -1 -52 -35 -53 -50 -4 -31 1
-40 32 -56 24 -13 36 -14 50 -5 10 6 24 11 32 11 7 0 19 7 26 15 16 20 40 19
40 -1 0 -9 9 -28 21 -42 15 -20 19 -35 14 -59 -7 -37 8 -45 25 -13 10 19 12
19 43 4 37 -19 66 -52 67 -76 0 -9 -14 -30 -31 -47 -18 -19 -29 -38 -25 -46 8
-21 21 -19 39 8 8 12 31 40 51 62 20 22 36 48 36 57 0 23 19 33 26 14 3 -8 16
-22 29 -30 21 -14 24 -13 40 4 17 19 17 20 -9 29 -16 7 -26 18 -26 31 0 25 -9
25 -49 3 -30 -17 -32 -17 -71 5 -21 12 -46 22 -55 22 -13 0 -15 6 -10 29 6 27
4 30 -22 33 -22 2 -33 13 -50 47 -13 25 -26 48 -30 52 -14 12 -62 19 -68 10z"/>
<path d="M2486 25701 c-10 -16 2 -48 21 -55 28 -11 32 8 9 38 -15 18 -26 24
-30 17z"/>
<path d="M4005 25676 c-13 -19 -14 -29 -5 -45 12 -24 21 -26 38 -9 18 18 75
-15 108 -63 27 -40 38 -46 48 -30 16 25 -47 110 -81 111 -6 0 -20 14 -30 30
-22 37 -56 40 -78 6z"/>
<path d="M3915 25633 c-9 -9 -21 -26 -25 -39 -7 -16 -15 -21 -29 -17 -15 4
-28 -4 -47 -26 -24 -29 -28 -31 -44 -16 -15 14 -18 13 -34 -4 -10 -11 -20 -38
-23 -60 -3 -23 -8 -41 -10 -41 -3 0 -22 14 -43 30 -43 34 -81 38 -135 15 -46
-19 -59 -51 -40 -107 29 -90 38 -127 32 -142 -7 -17 17 -41 33 -31 14 9 12 61
-4 93 -8 15 -17 48 -21 73 -9 63 10 83 77 77 26 -3 56 -12 66 -22 10 -9 23
-16 28 -16 9 0 26 27 40 63 7 19 25 22 40 7 17 -17 39 -2 57 35 17 36 35 43
54 24 17 -17 33 -1 33 33 0 28 2 30 28 23 34 -8 92 -63 92 -86 0 -10 10 -25
23 -34 20 -14 22 -14 25 1 2 9 -1 21 -7 27 -6 6 -11 18 -11 26 0 15 -55 70
-108 108 -29 21 -32 22 -47 6z"/>
<path d="M2909 25555 c-26 -14 -48 -42 -81 -102 -24 -43 -23 -55 4 -51 17 2
24 12 30 41 8 40 41 76 68 76 24 0 60 -35 60 -59 0 -12 -16 -46 -36 -76 -26
-39 -34 -58 -26 -66 13 -13 32 -2 32 18 0 8 16 36 35 61 59 78 58 107 -5 151
-38 26 -46 26 -81 7z"/>
<path d="M3175 25501 c-3 -12 -11 -21 -16 -21 -5 0 -12 -8 -16 -17 -3 -10 -13
-26 -20 -35 -13 -15 -11 -18 17 -33 32 -17 32 -18 26 -70 -7 -61 8 -115 26
-97 8 8 8 15 0 25 -12 14 -6 42 24 111 15 36 9 55 -22 67 -27 10 -32 44 -8 53
9 3 29 6 46 6 43 0 30 24 -14 28 -29 3 -38 -1 -43 -17z"/>
<path d="M3380 25438 c0 -29 0 -69 0 -88 0 -51 31 -160 45 -160 23 0 25 43 5
88 -23 52 -26 129 -5 156 18 24 3 56 -26 56 -17 0 -19 -7 -19 -52z"/>
<path d="M3570 25386 c0 -18 30 -30 43 -17 5 5 6 14 3 20 -10 16 -46 13 -46
-3z"/>
<path d="M4500 27628 c-19 -23 -50 -58 -68 -78 -32 -35 -38 -60 -15 -67 7 -3
23 7 36 21 14 14 34 26 47 26 20 0 22 -3 16 -42 -13 -88 -12 -93 9 -93 15 0
21 8 25 34 5 34 11 39 62 59 15 6 34 23 44 37 15 23 15 27 -1 53 -24 38 -86
92 -105 92 -8 0 -31 -19 -50 -42z m87 -30 c31 -29 31 -68 1 -68 -23 1 -68 31
-68 46 0 9 31 44 38 44 3 0 16 -10 29 -22z"/>
<path d="M2050 27542 c-27 -26 -50 -56 -50 -65 0 -17 132 -149 154 -155 17 -4
94 81 102 112 10 42 -5 78 -48 118 -59 54 -93 52 -158 -10z m129 -28 c23 -19
31 -34 31 -57 -1 -31 -29 -77 -47 -77 -5 0 -33 24 -62 54 l-54 54 26 26 c33
33 67 33 106 0z"/>
<path d="M4655 27419 c-71 -68 -87 -97 -57 -107 17 -5 163 138 160 157 -6 31
-29 20 -103 -50z"/>
<path d="M4790 27401 c0 -11 5 -23 10 -26 21 -13 9 -50 -23 -73 -67 -47 -106
-88 -97 -101 13 -22 51 -6 103 44 50 46 83 57 93 30 8 -20 34 -19 34 0 0 21
-92 144 -107 145 -7 0 -13 -9 -13 -19z"/>
<path d="M1878 27330 c-21 -27 -38 -56 -38 -64 0 -17 104 -107 149 -130 27
-15 28 -14 65 35 28 38 37 60 38 90 0 49 -9 60 -54 64 -18 2 -36 3 -40 4 -4 1
-8 11 -10 24 -2 17 -10 22 -38 24 -31 2 -39 -3 -72 -47z m90 -20 c1 -8 -9 -28
-22 -45 -24 -29 -24 -30 -45 -11 l-20 18 22 30 c23 31 60 35 65 8z m76 -36
c20 -20 20 -18 -6 -59 -25 -38 -39 -43 -62 -20 -16 16 -13 32 14 73 17 26 33
28 54 6z"/>
<path d="M4905 27158 c-22 -5 -69 -12 -105 -16 -48 -5 -65 -11 -65 -22 0 -10
13 -17 38 -20 29 -4 42 -12 57 -38 24 -39 25 -55 5 -72 -19 -16 -20 -50 -1
-50 7 0 48 34 90 75 60 60 76 81 76 105 0 19 -7 33 -19 40 -22 11 -22 11 -76
-2z m31 -52 c6 -14 -28 -56 -45 -56 -5 0 -16 11 -25 25 -18 27 -16 28 29 38
34 8 35 7 41 -7z"/>
<path d="M1730 27090 c-6 -11 -9 -29 -5 -39 6 -21 148 -161 163 -161 20 0 24
21 8 39 -35 39 -4 118 48 123 35 3 48 33 19 41 -10 3 -64 8 -120 12 -96 6
-102 5 -113 -15z m128 -43 c8 -9 6 -19 -6 -35 l-17 -22 -28 25 c-15 14 -27 30
-27 35 0 15 66 12 78 -3z"/>
<path d="M5015 26946 c-42 -19 -95 -37 -130 -45 -35 -8 -35 -8 -11 -83 17 -56
52 -98 82 -98 7 0 27 14 44 30 20 20 41 30 60 30 20 0 35 8 45 24 15 23 15 29
-1 78 -9 29 -19 59 -20 66 -4 15 -30 15 -69 -2z m50 -77 c5 -23 3 -36 -9 -48
-16 -15 -18 -14 -36 9 -32 41 -25 70 16 70 17 0 24 -8 29 -31z m-94 -26 c14
-39 8 -58 -21 -58 -27 0 -48 39 -37 69 10 26 46 19 58 -11z"/>
<path d="M1616 26798 c-2 -7 -11 -37 -19 -67 -19 -64 -14 -74 46 -89 157 -40
177 -40 177 1 0 14 7 44 15 68 10 28 12 46 6 52 -16 16 -39 -11 -48 -56 -7
-36 -12 -42 -37 -45 l-28 -4 4 59 c2 46 0 58 -12 58 -8 0 -16 -9 -18 -20 -9
-58 -13 -65 -38 -65 -25 0 -26 2 -22 57 2 39 -1 57 -9 60 -7 3 -15 -1 -17 -9z"/>
<path d="M5065 26679 c-16 -6 -50 -13 -75 -17 -44 -7 -45 -8 -48 -47 -5 -63 6
-105 28 -105 27 0 31 12 18 48 -17 44 2 61 79 72 70 9 103 24 103 45 0 17 -57
19 -105 4z"/>
<path d="M1578 26559 c-26 -14 -11 -38 29 -45 41 -8 47 -20 35 -65 -8 -31 -12
-34 -48 -34 -29 0 -39 -4 -42 -17 -5 -27 37 -38 139 -38 69 0 89 3 89 14 0 16
-21 26 -55 26 -36 0 -49 32 -30 76 12 30 18 34 37 28 40 -12 53 -10 56 11 3
19 -6 22 -82 33 -47 7 -91 15 -98 17 -7 2 -21 0 -30 -6z"/>
<path d="M5140 26464 c-8 -3 -51 -8 -95 -12 -67 -6 -80 -10 -79 -24 0 -10 1
-47 2 -83 2 -49 6 -67 18 -72 25 -9 34 9 24 52 -11 47 -6 71 17 79 23 9 36 -7
42 -56 5 -34 10 -43 26 -43 18 0 20 6 17 52 -3 42 0 54 13 59 24 10 35 -7 43
-62 5 -37 12 -50 26 -52 18 -4 19 1 12 69 -4 52 -11 78 -23 87 -9 6 -19 11
-22 11 -3 -1 -13 -3 -21 -5z"/>
<path d="M1557 26304 c-4 -4 -7 -47 -7 -96 0 -80 2 -89 18 -86 11 2 17 13 17
28 0 28 25 37 115 39 62 1 86 12 77 35 -5 12 -26 16 -99 18 -91 3 -93 4 -96
28 -4 29 -15 43 -25 34z"/>
<path d="M4994 26120 c-25 -10 -36 -46 -28 -88 4 -21 2 -31 -10 -35 -9 -4 -16
-16 -16 -27 0 -19 4 -21 29 -15 21 4 30 2 35 -10 9 -24 29 -6 23 21 -7 39 16
48 51 19 16 -14 39 -25 51 -25 29 0 61 35 61 66 0 44 -17 64 -56 64 -21 0 -47
9 -61 20 -28 21 -46 24 -79 10z m62 -45 c2 -5 -8 -18 -21 -28 -22 -16 -26 -16
-31 -3 -10 26 4 48 28 44 12 -2 23 -7 24 -13z m94 -45 c0 -20 -5 -30 -15 -30
-18 0 -30 24 -21 45 10 28 36 17 36 -15z"/>
<path d="M1696 25923 c-83 -56 -86 -59 -84 -93 l3 -35 109 -12 c69 -8 113 -10
119 -4 16 16 -1 41 -26 41 -17 0 -26 9 -35 33 -17 46 -16 53 14 81 26 24 26
46 -1 46 -7 0 -52 -26 -99 -57z m44 -63 c14 -27 5 -40 -28 -40 -45 0 -55 13
-32 38 26 27 46 28 60 2z"/>
<path d="M4890 25765 c-14 -17 -5 -35 19 -35 9 0 27 -9 39 -21 22 -19 22 -21
6 -48 -21 -35 -12 -70 12 -50 8 7 22 25 30 41 16 31 23 34 47 16 16 -12 16
-16 -4 -56 -21 -41 -20 -77 2 -70 10 3 69 130 69 146 0 6 -24 18 -105 53 -71
31 -104 38 -115 24z"/>
<path d="M1815 25710 c-11 -4 -48 -16 -83 -26 -52 -16 -62 -22 -60 -39 2 -12
9 -18 18 -16 8 2 29 7 45 11 17 4 40 10 53 14 22 7 22 6 10 -15 -7 -12 -28
-38 -45 -58 -35 -39 -42 -71 -19 -90 11 -10 25 -8 63 7 26 11 69 28 95 39 45
17 59 35 39 48 -5 3 -29 -2 -53 -11 -72 -26 -88 -28 -88 -10 0 9 4 16 8 16 14
0 82 99 82 120 0 22 -27 26 -65 10z"/>
<path d="M4802 25558 c-63 -45 -68 -146 -9 -191 63 -48 151 -40 186 17 43 68
18 132 -67 175 -52 27 -70 26 -110 -1z m114 -56 c51 -43 47 -97 -8 -116 -45
-16 -117 32 -118 78 0 51 81 75 126 38z"/>
<path d="M1920 25474 c-19 -25 -50 -63 -67 -84 -36 -41 -42 -80 -17 -101 13
-10 24 -10 62 0 26 8 69 18 97 23 61 12 85 24 85 43 0 11 -12 15 -40 15 -27 0
-40 4 -40 14 0 7 -7 19 -15 26 -11 9 -15 27 -13 58 2 25 -2 47 -7 48 -6 2 -26
-17 -45 -42z m36 -89 c20 -31 13 -42 -32 -47 -45 -5 -53 10 -22 45 29 33 34
33 54 2z"/>
<path d="M4628 25315 c-35 -32 -43 -60 -28 -96 16 -37 133 -131 155 -123 29
11 15 33 -50 81 -51 38 -64 54 -65 75 0 17 7 31 20 38 24 13 41 5 119 -54 51
-38 54 -39 67 -21 16 22 19 18 -65 79 -74 54 -112 59 -153 21z"/>
<path d="M2090 25303 c0 -5 -34 -37 -75 -72 -41 -36 -75 -70 -75 -77 0 -23 22
-26 48 -7 47 34 50 34 76 6 14 -15 26 -31 26 -36 0 -4 -14 -21 -31 -37 -31
-28 -32 -50 -2 -50 8 0 51 32 94 71 63 57 77 74 68 85 -16 19 -23 18 -57 -11
l-30 -25 -26 21 c-31 25 -34 64 -6 79 24 13 28 60 5 60 -8 0 -15 -3 -15 -7z"/>
<path d="M4504 25165 c-4 -8 9 -32 30 -57 42 -48 45 -62 14 -52 -22 7 -66 19
-113 30 -13 3 -27 -2 -37 -13 -17 -18 -14 -23 62 -102 54 -57 84 -82 94 -78
25 10 19 22 -34 78 -28 29 -48 54 -45 57 6 6 80 -15 121 -35 37 -17 68 -14 72
7 1 8 -14 33 -34 55 -20 22 -50 59 -67 83 -31 43 -53 53 -63 27z"/>
<path d="M2255 25101 c-11 -5 -28 -18 -38 -29 -18 -20 -18 -21 16 -58 24 -27
39 -35 52 -30 17 6 17 7 0 25 -21 24 -16 55 9 59 18 4 66 -40 66 -60 0 -4 -10
-24 -22 -43 -41 -62 -117 -66 -129 -7 -8 40 -14 46 -34 39 -40 -16 4 -102 66
-127 28 -12 36 -11 73 9 58 32 77 62 78 122 0 39 -5 55 -24 74 -26 26 -82 39
-113 26z"/>
<path d="M4290 24995 c-7 -8 -17 -15 -22 -15 -20 0 -47 -46 -47 -80 0 -46 38
-110 78 -134 31 -18 35 -18 64 -2 100 52 115 72 73 99 -13 9 -35 38 -47 64
-40 82 -70 103 -99 68z m65 -99 c33 -65 30 -90 -8 -94 -32 -4 -48 11 -73 68
-19 44 -6 80 30 80 19 0 29 -11 51 -54z"/>
<path d="M2546 24811 c-5 -33 -2 -44 17 -65 l24 -26 11 25 c6 14 18 25 27 25
17 0 19 9 6 44 -8 18 -15 23 -31 19 -11 -3 -26 0 -34 6 -11 9 -15 4 -20 -28z"/>
<path d="M2818 24760 c-49 -38 -60 -148 -20 -183 48 -41 134 -45 152 -7 4 8
12 26 19 39 14 25 10 31 -32 49 -23 10 -29 9 -34 -4 -3 -8 -1 -20 6 -27 17
-17 13 -34 -9 -40 -32 -8 -60 4 -75 33 -13 25 -12 32 8 71 19 37 27 44 56 47
28 3 38 -2 58 -27 25 -32 43 -33 43 -2 0 57 -120 93 -172 51z"/>
<path d="M3844 24772 c-7 -4 -13 -51 -15 -122 -3 -96 -2 -115 11 -115 8 0 17
10 20 23 6 26 65 66 83 56 7 -4 22 -16 34 -27 21 -19 23 -19 29 -2 8 20 -11
56 -73 138 -42 54 -63 66 -89 49z m76 -108 c0 -13 -39 -26 -52 -18 -10 6 -11
68 -1 78 8 7 52 -43 53 -60z"/>
<path d="M3680 24675 c0 -36 -4 -65 -8 -65 -4 0 -25 23 -45 50 -39 52 -81 67
-94 34 -10 -26 28 -214 44 -214 10 0 13 18 13 70 0 56 3 70 15 70 8 0 15 -5
15 -10 0 -6 17 -33 37 -61 67 -89 101 -45 73 96 -18 89 -20 95 -36 95 -11 0
-14 -15 -14 -65z"/>
<path d="M3050 24693 c0 -21 -7 -63 -15 -93 -19 -71 -19 -89 1 -97 22 -8 44
22 44 59 0 27 2 28 45 28 l45 0 0 -49 c0 -49 13 -72 31 -54 11 11 26 91 31
163 3 49 1 55 -17 55 -14 0 -21 -8 -25 -29 -7 -40 -30 -53 -69 -36 -28 11 -31
17 -29 49 3 31 0 36 -19 39 -20 3 -23 -1 -23 -35z"/>
<path d="M3371 24701 c-14 -9 -38 -63 -48 -111 -3 -14 -12 -34 -19 -45 -18
-25 -18 -75 -1 -75 7 0 23 14 36 31 19 25 28 30 59 27 29 -2 37 -8 42 -28 6
-27 35 -39 53 -21 7 7 6 15 -2 25 -7 9 -17 30 -21 48 -14 58 -49 141 -62 150
-16 10 -20 10 -37 -1z m37 -104 c3 -37 -8 -46 -35 -29 -10 6 -10 15 -1 40 16
41 32 36 36 -11z"/>
<path d="M8170 27741 c-30 -4 -64 -12 -75 -18 -11 -6 -38 -19 -60 -29 -70 -33
-185 -156 -185 -198 0 -6 -5 -17 -10 -22 -6 -6 -17 -37 -26 -70 -69 -255 -70
-772 -1 -974 63 -185 172 -281 366 -321 96 -20 123 -20 246 6 168 35 289 163
326 345 17 83 21 127 13 133 -5 3 -70 7 -144 8 l-135 3 -19 -59 c-48 -155 -83
-190 -184 -190 -85 0 -120 24 -160 109 -46 95 -62 217 -62 467 1 411 64 569
225 569 100 0 153 -60 174 -195 7 -44 18 -86 24 -93 12 -15 61 -11 200 12 l72
13 -3 89 c-5 138 -39 226 -119 302 -46 45 -70 59 -155 95 -43 19 -228 29 -308
18z"/>
<path d="M5637 27713 c-4 -3 -7 -60 -7 -125 l0 -118 149 0 c87 0 152 -4 156
-10 3 -5 6 -297 7 -647 0 -351 4 -648 9 -661 9 -22 11 -23 146 -20 l138 3 3
659 c2 513 5 662 15 668 6 4 76 8 155 8 l142 0 0 119 c0 99 -3 120 -16 125
-21 8 -889 8 -897 -1z"/>
<path d="M6933 27713 c-7 -2 -13 -15 -13 -28 0 -13 -5 -36 -11 -52 -6 -15 -15
-50 -19 -78 -5 -27 -13 -70 -19 -95 -11 -44 -23 -99 -56 -255 -17 -79 -31
-142 -55 -240 -7 -27 -16 -70 -20 -95 -4 -25 -12 -63 -18 -85 -6 -22 -18 -76
-27 -120 -9 -44 -22 -98 -28 -120 -5 -22 -14 -60 -18 -85 -8 -50 -23 -116 -45
-201 -8 -30 -14 -72 -14 -92 l0 -38 132 3 133 3 6 35 c21 111 32 163 48 230
l17 75 178 3 177 2 14 -34 c8 -20 15 -51 15 -70 0 -19 5 -47 11 -63 6 -15 15
-57 20 -92 5 -36 14 -70 20 -78 9 -10 46 -13 145 -13 l134 0 0 42 c0 23 -6 64
-14 92 -8 28 -20 74 -26 101 -7 28 -19 77 -26 110 -8 33 -19 83 -23 111 -5 28
-14 61 -20 72 -6 11 -11 32 -11 45 0 14 -6 47 -14 73 -8 27 -22 85 -31 129 -9
44 -23 105 -30 135 -22 89 -36 152 -44 200 -5 25 -14 68 -21 95 -39 158 -58
241 -70 310 -5 27 -17 56 -27 62 -12 9 -63 13 -177 12 -89 0 -167 -3 -173 -6z
m197 -397 c0 -24 7 -65 15 -92 8 -27 15 -62 15 -78 0 -16 6 -55 14 -85 17 -70
35 -158 48 -236 17 -111 30 -100 -116 -103 l-128 -3 5 28 c12 69 29 152 39
197 6 26 14 74 18 105 13 93 47 261 61 299 13 35 29 17 29 -32z"/>
<path d="M9257 27703 c-8 -10 -18 -36 -22 -58 -9 -57 -35 -172 -51 -231 -8
-28 -14 -62 -14 -76 0 -14 -7 -45 -15 -68 -8 -23 -15 -54 -15 -68 0 -14 -6
-48 -14 -76 -23 -84 -38 -148 -46 -196 -4 -25 -12 -63 -18 -85 -6 -22 -18 -76
-27 -120 -9 -44 -23 -105 -30 -135 -14 -58 -32 -141 -60 -275 -9 -44 -21 -94
-26 -111 -5 -17 -9 -40 -9 -52 0 -21 3 -22 129 -22 96 0 131 3 140 14 6 7 15
45 20 84 5 39 12 75 15 80 3 5 10 40 15 77 5 36 15 73 22 81 10 12 44 14 188
12 l175 -3 14 -60 c7 -33 15 -73 18 -90 5 -28 32 -154 40 -182 2 -10 40 -13
145 -13 l142 0 -7 38 c-15 92 -33 171 -61 277 -15 54 -32 127 -44 190 -11 52
-30 128 -47 187 -8 26 -14 58 -14 73 0 14 -7 42 -15 62 -8 19 -15 47 -15 61 0
14 -6 48 -14 76 -23 84 -38 148 -46 196 -4 25 -12 63 -17 85 -6 22 -19 76 -28
120 -14 67 -37 163 -51 213 -2 9 -46 12 -172 12 -148 0 -171 -2 -185 -17z
m197 -397 c9 -27 16 -64 16 -81 0 -18 7 -54 15 -81 8 -27 15 -62 15 -77 0 -16
6 -56 14 -90 38 -163 46 -204 46 -229 l0 -28 -123 0 c-68 0 -126 2 -129 5 -3
3 -2 24 3 48 4 23 15 80 24 127 9 47 22 117 30 155 32 165 37 193 42 240 9 93
19 96 47 11z"/>
<path d="M10165 27708 c-3 -7 -4 -364 -3 -793 l3 -780 145 0 145 0 5 345 5
345 181 3 c143 2 184 0 192 -11 8 -9 13 -118 14 -348 l3 -334 140 0 140 0 3
787 2 788 -22 5 c-13 3 -77 4 -143 3 l-120 -3 -5 -315 -5 -315 -192 -3 -193
-2 -2 317 -3 318 -143 3 c-108 2 -144 0 -147 -10z"/>
<path d="M11395 27708 c-3 -7 -4 -364 -3 -793 l3 -780 141 -3 142 -3 6 26 c4
14 6 155 6 313 0 158 0 297 0 310 l0 22 205 0 c240 0 218 -15 213 145 l-3 100
-207 3 c-115 1 -208 6 -208 10 -1 17 -1 388 -1 400 1 9 56 12 241 12 l241 0
-3 123 -3 122 -383 3 c-301 2 -384 0 -387 -10z"/>
<path d="M5987 25759 c-15 -9 -17 -30 -17 -188 0 -144 3 -181 15 -191 27 -22
35 0 35 93 1 75 4 96 19 115 21 25 84 31 98 10 4 -7 10 -58 13 -113 5 -94 6
-100 28 -103 22 -3 22 -2 22 103 0 104 -1 107 -29 136 -33 33 -82 39 -117 14
-12 -8 -24 -11 -28 -8 -3 3 -6 35 -6 69 0 67 -6 78 -33 63z"/>
<path d="M7042 25758 c-8 -8 -12 -69 -12 -194 0 -151 3 -183 15 -188 8 -3 19
2 24 12 9 16 11 16 39 0 40 -24 81 -22 113 5 63 52 76 137 33 200 -37 56 -91
71 -146 43 -15 -8 -29 -12 -32 -8 -3 3 -6 34 -6 68 0 64 -8 82 -28 62z m160
-165 c35 -40 29 -140 -9 -169 -48 -36 -123 15 -123 85 0 34 20 76 44 93 20 14
73 8 88 -9z"/>
<path d="M9682 25758 c-18 -18 -17 -361 1 -377 22 -18 27 -3 27 78 0 101 21
145 73 149 51 4 67 -30 67 -141 0 -64 4 -86 14 -90 8 -3 17 -3 20 0 3 4 6 55
6 114 l0 107 -31 26 c-33 28 -62 32 -105 16 -36 -14 -46 1 -41 57 5 49 -11 81
-31 61z"/>
<path d="M11043 25763 c-17 -6 -19 -378 -3 -388 6 -4 22 1 36 10 23 15 27 15
43 1 30 -27 77 -20 119 18 37 34 37 35 37 110 -1 65 -4 79 -24 100 -26 28 -85
41 -121 28 -41 -15 -50 -5 -50 58 0 57 -9 73 -37 63z m174 -192 c28 -42 29
-76 3 -118 -34 -56 -109 -52 -132 7 -14 35 -4 107 18 131 29 32 83 22 111 -20z"/>
<path d="M11363 25763 c-20 -7 -18 -379 1 -386 8 -3 17 -3 20 0 9 9 7 381 -1
386 -5 2 -14 2 -20 0z"/>
<path d="M7527 25753 c-4 -3 -7 -32 -7 -63 0 -31 -3 -59 -6 -63 -4 -3 -17 1
-30 10 -31 20 -89 12 -119 -17 -56 -52 -51 -169 8 -222 35 -31 87 -37 107 -13
16 19 27 19 46 0 8 -8 21 -12 29 -9 11 5 15 41 17 185 2 99 2 184 0 189 -4 11
-35 13 -45 3z m-29 -162 c32 -27 32 -124 0 -158 -31 -33 -70 -30 -102 8 -32
38 -34 89 -5 135 16 27 27 34 52 34 18 -1 42 -9 55 -19z"/>
<path d="M7947 25753 c-4 -3 -7 -86 -7 -183 0 -179 6 -211 37 -192 10 6 18
234 13 370 0 13 -32 17 -43 5z"/>
<path d="M8805 25740 c-8 -26 7 -45 30 -36 21 8 16 50 -7 54 -10 2 -19 -5 -23
-18z"/>
<path d="M9391 25740 c-112 -63 -125 -258 -21 -337 57 -45 119 -46 178 -3 23
17 42 34 42 39 0 5 3 16 6 25 10 25 -32 20 -53 -7 -71 -90 -193 -25 -193 102
0 64 30 128 68 142 45 18 101 5 131 -30 18 -22 30 -28 40 -22 21 14 4 49 -41
82 -49 35 -105 38 -157 9z"/>
<path d="M10434 25745 c-9 -23 3 -45 26 -45 25 0 37 25 20 45 -16 19 -39 19
-46 0z"/>
<path d="M5639 25740 c-5 -33 -2 -35 56 -40 l60 -5 3 -157 c2 -131 5 -157 18
-162 9 -3 20 -4 25 0 5 3 9 77 9 165 l0 159 54 0 c57 0 70 7 60 34 -5 14 -27
16 -145 16 -85 0 -140 -4 -140 -10z"/>
<path d="M6763 25703 c-23 -55 -41 -104 -53 -148 -11 -39 -29 -92 -47 -134 -9
-22 -11 -37 -4 -44 13 -13 40 -2 47 20 3 10 13 35 21 56 l16 37 69 0 c57 0 70
-3 74 -17 15 -51 46 -103 59 -103 20 0 31 28 16 43 -6 6 -11 18 -11 27 0 8 -7
28 -15 44 -8 15 -15 36 -15 45 0 9 -6 25 -14 36 -7 11 -16 31 -19 45 -31 139
-86 180 -124 93z m77 -83 c7 -19 13 -46 14 -60 1 -23 -2 -25 -44 -25 l-45 0 3
39 c2 22 13 58 24 80 18 36 22 38 28 21 4 -11 13 -36 20 -55z"/>
<path d="M8291 25708 c-21 -48 -38 -98 -51 -143 -5 -16 -21 -63 -36 -103 -17
-47 -23 -77 -17 -83 16 -16 43 1 49 30 13 63 28 76 94 79 68 3 85 -5 93 -46 8
-38 43 -80 56 -67 12 12 3 55 -29 135 -12 30 -26 69 -30 85 -44 155 -92 197
-129 113z m65 -55 c3 -16 12 -44 21 -65 8 -20 12 -41 9 -47 -4 -6 -27 -11 -52
-11 -50 0 -54 10 -33 85 19 68 44 85 55 38z"/>
<path d="M11935 25725 c-28 -27 -31 -52 -13 -101 11 -30 9 -35 -20 -69 -26
-28 -32 -45 -32 -80 0 -38 5 -47 37 -74 47 -39 89 -40 148 -5 42 24 44 25 54
6 13 -25 41 -36 55 -22 7 7 1 23 -20 52 -29 43 -29 43 -12 78 10 19 18 41 18
48 0 22 -30 13 -40 -13 -13 -33 -33 -31 -65 6 l-26 32 30 31 c40 41 42 86 5
115 -37 29 -89 27 -119 -4z m83 -27 c16 -16 15 -40 -1 -62 -11 -15 -17 -17
-35 -7 -27 14 -29 56 -4 70 22 13 26 13 40 -1z m0 -184 c36 -41 41 -69 13 -84
-71 -38 -141 33 -95 98 22 31 46 27 82 -14z"/>
<path d="M10586 25704 c-3 -9 -6 -24 -6 -34 0 -11 -10 -25 -22 -31 l-22 -12
22 -15 c20 -13 22 -23 22 -106 0 -85 2 -94 24 -115 28 -27 79 -26 84 2 2 11
-3 17 -16 17 -37 0 -52 31 -52 109 l0 72 35 15 c19 8 35 17 35 20 0 3 -13 10
-29 15 -21 7 -33 21 -41 45 -12 37 -24 43 -34 18z"/>
<path d="M6343 25643 c-13 -2 -36 -21 -53 -41 -53 -65 -38 -175 30 -216 44
-25 93 -21 129 13 17 16 31 34 31 40 0 17 -33 12 -60 -9 -48 -37 -101 -16
-103 42 l-2 33 90 5 90 5 3 32 c6 64 -74 114 -155 96z m88 -54 c30 -30 10 -49
-53 -49 -56 0 -72 18 -43 50 23 26 70 25 96 -1z"/>
<path d="M10021 25642 c-13 -4 -30 -17 -38 -28 -11 -18 -11 -23 0 -33 11 -9
20 -7 40 9 32 25 69 26 92 0 27 -30 13 -45 -59 -59 -103 -20 -134 -74 -77
-132 33 -33 89 -40 115 -14 17 17 36 20 36 5 0 -5 8 -10 19 -10 16 0 19 10 23
70 6 80 -6 158 -26 178 -16 16 -90 24 -125 14z m107 -161 c4 -28 -33 -71 -63
-71 -33 0 -57 23 -53 50 2 17 13 26 43 36 54 16 69 13 73 -15z"/>
<path d="M10340 25640 c-8 -6 -32 -8 -52 -4 l-38 6 0 -131 c0 -131 6 -155 35
-131 11 9 15 34 15 84 0 96 5 110 51 135 42 24 48 35 23 45 -19 7 -16 8 -34
-4z"/>
<path d="M10805 25643 c-26 -6 -55 -32 -55 -49 0 -24 22 -26 51 -5 35 26 71
27 92 3 24 -27 21 -41 -10 -48 -86 -19 -110 -28 -130 -47 -31 -28 -29 -63 6
-98 33 -33 90 -40 111 -14 16 19 30 19 45 -1 10 -15 13 -15 29 1 14 15 16 31
12 105 -3 48 -11 99 -17 113 -17 38 -74 54 -134 40z m103 -164 c6 -52 -77 -90
-110 -51 -23 26 -7 54 38 68 54 17 68 13 72 -17z"/>
<path d="M11540 25642 c-34 -16 -58 -38 -74 -69 -59 -115 58 -249 163 -187 32
19 54 51 46 64 -9 15 -19 12 -51 -15 -16 -14 -38 -25 -49 -25 -25 0 -63 30
-65 50 -7 48 -4 49 88 52 l87 3 3 40 c2 32 -2 45 -21 63 -24 23 -100 37 -127
24z m94 -57 c15 -23 15 -25 -3 -35 -31 -16 -111 -13 -117 5 -9 22 35 54 72 55
23 0 36 -7 48 -25z"/>
<path d="M7647 25634 c-4 -4 -7 -45 -7 -91 0 -90 13 -130 52 -157 29 -20 84
-21 92 -1 7 19 26 19 40 -1 7 -9 18 -12 29 -8 15 5 17 22 17 135 l0 129 -25 0
c-25 0 -25 -1 -25 -89 0 -74 -3 -92 -21 -115 -23 -29 -54 -33 -83 -11 -16 12
-21 32 -25 112 -5 77 -9 98 -21 101 -9 1 -19 0 -23 -4z"/>
<path d="M8540 25625 c0 -11 13 -15 54 -15 30 0 58 -5 61 -11 7 -10 -18 -50
-81 -128 -24 -30 -34 -52 -32 -70 3 -25 5 -26 81 -29 51 -2 84 1 93 9 24 20 0
33 -55 30 -70 -3 -70 14 -1 101 40 49 60 82 60 101 l0 27 -90 0 c-73 0 -90 -3
-90 -15z"/>
<path d="M8810 25511 c0 -71 4 -132 9 -135 23 -15 32 26 29 140 -3 104 -5 119
-20 122 -16 3 -18 -8 -18 -127z"/>
<path d="M8927 25634 c-15 -15 7 -24 57 -24 29 0 55 -3 59 -6 7 -7 -62 -112
-88 -134 -9 -7 -23 -27 -32 -44 -14 -27 -14 -31 3 -43 22 -16 170 -18 180 -2
11 19 -16 34 -64 34 -37 0 -47 4 -50 18 -2 10 3 24 11 30 31 26 107 137 107
156 0 20 -6 21 -88 21 -49 0 -92 -3 -95 -6z"/>
<path d="M10435 25628 c-3 -8 -4 -66 -3 -129 3 -109 4 -114 25 -117 30 -4 35
19 31 149 -3 99 -4 104 -26 107 -12 2 -24 -3 -27 -10z"/>
<path d="M10556 25124 c-3 -9 -6 -37 -6 -63 0 -26 -3 -50 -6 -54 -3 -3 -21 1
-39 10 -39 19 -78 8 -116 -33 -20 -22 -23 -35 -23 -99 0 -80 11 -103 66 -131
35 -18 57 -18 80 3 15 13 22 14 45 4 16 -8 30 -8 36 -2 7 7 12 258 8 369 -1
18 -38 15 -45 -4z m-21 -164 c12 -13 15 -34 13 -81 -3 -59 -5 -64 -34 -81 -40
-24 -76 -10 -99 37 -19 42 -19 59 2 102 25 52 81 64 118 23z"/>
<path d="M7404 25115 c-4 -9 0 -23 9 -32 21 -21 49 -9 45 19 -4 28 -45 38 -54
13z"/>
<path d="M8247 25124 c-10 -10 -9 -42 2 -48 18 -11 42 6 39 28 -3 21 -28 33
-41 20z"/>
<path d="M11187 25117 c-8 -22 17 -51 37 -44 25 10 17 51 -10 55 -12 2 -24 -3
-27 -11z"/>
<path d="M5675 25108 c-3 -8 -4 -90 -3 -183 3 -162 4 -170 23 -170 18 0 20 8
23 83 l3 82 89 0 c65 0 90 -3 91 -12 0 -7 0 -36 -1 -65 -2 -55 12 -93 34 -93
23 0 26 24 26 185 0 84 -3 160 -6 169 -3 9 -14 16 -24 16 -21 0 -32 -37 -28
-93 1 -20 -3 -42 -8 -47 -7 -7 -44 -10 -90 -8 l-79 3 -5 70 c-4 56 -8 70 -23
73 -9 2 -19 -3 -22 -10z"/>
<path d="M9145 25107 c-3 -7 -4 -89 -3 -182 3 -162 4 -170 23 -170 18 0 21 8
25 80 l5 80 78 3 c74 3 78 4 75 25 -3 20 -9 22 -70 22 -37 0 -72 5 -78 11 -6
6 -10 29 -8 50 l3 39 90 5 c82 5 90 7 90 25 0 19 -8 20 -113 23 -86 2 -114 0
-117 -11z"/>
<path d="M7569 25061 c-6 -17 -20 -36 -30 -42 -26 -13 -24 -28 6 -39 24 -9 25
-12 25 -103 0 -106 11 -127 68 -127 44 0 46 35 2 45 l-30 7 0 88 0 89 28 3
c34 4 36 30 2 38 -18 4 -26 14 -30 35 -7 40 -28 43 -41 6z"/>
<path d="M11022 25078 c-5 -7 -13 -23 -16 -35 -4 -11 -13 -24 -21 -27 -22 -8
-18 -33 5 -39 18 -5 20 -14 20 -90 0 -71 3 -89 21 -111 16 -21 28 -26 53 -24
43 4 47 33 6 41 l-30 7 0 89 0 90 28 3 c34 4 36 30 3 38 -17 4 -27 15 -33 38
-9 34 -19 40 -36 20z"/>
<path d="M6454 25019 c-4 -7 -22 -9 -49 -5 -54 9 -55 5 -55 -129 0 -116 4
-135 30 -135 23 0 30 27 30 126 0 49 5 85 12 92 16 16 75 15 85 0 4 -7 10 -58
13 -113 4 -80 8 -100 20 -100 12 0 16 20 20 96 5 106 16 129 60 129 47 0 59
-25 62 -130 2 -77 6 -95 18 -95 12 0 16 19 18 103 3 113 -4 134 -49 157 -28
15 -34 15 -75 -1 -43 -16 -47 -16 -74 -1 -33 20 -56 22 -66 6z"/>
<path d="M6860 25017 c-29 -14 -60 -48 -53 -59 7 -13 40 -9 53 7 17 21 80 19
96 -2 20 -27 17 -43 -10 -43 -44 0 -128 -33 -143 -56 -22 -35 -9 -79 33 -105
35 -21 43 -21 102 3 28 11 34 10 41 -1 20 -32 31 3 31 100 0 112 -11 140 -62
158 -38 13 -56 13 -88 -2z m110 -152 c0 -36 -24 -65 -58 -71 -67 -13 -95 32
-40 66 39 24 98 27 98 5z"/>
<path d="M7180 25015 c-23 -9 -39 -10 -47 -3 -26 21 -33 -5 -33 -127 0 -124 7
-148 34 -125 10 7 15 41 18 105 1 52 8 98 13 103 6 5 22 12 38 16 21 5 33 1
52 -18 23 -23 25 -33 25 -115 0 -82 9 -115 28 -97 10 11 15 122 7 181 -6 49
-11 59 -38 76 -36 21 -47 22 -97 4z"/>
<path d="M7797 25016 c-30 -13 -47 -32 -47 -53 0 -18 35 -16 50 2 16 20 74 19
94 -1 24 -23 20 -44 -9 -44 -33 0 -116 -29 -137 -48 -21 -18 -23 -61 -5 -84
36 -45 93 -61 121 -33 18 18 38 19 54 3 22 -22 32 11 32 104 0 107 -10 135
-55 153 -41 18 -60 18 -98 1z m108 -161 c0 -54 -83 -89 -115 -49 -21 24 -2 51
48 67 59 20 67 17 67 -18z"/>
<path d="M8130 25010 c-22 -16 -27 -17 -41 -4 -9 8 -24 12 -33 8 -23 -9 -24
-235 0 -255 25 -20 34 5 34 97 0 71 3 83 23 101 12 12 31 23 42 25 12 2 20 11
20 22 0 27 -16 29 -45 6z"/>
<path d="M8427 25016 c-30 -13 -47 -32 -47 -53 0 -18 35 -16 50 2 15 18 81 20
98 3 21 -21 14 -48 -13 -48 -34 0 -105 -29 -132 -53 -33 -29 -29 -60 12 -96
39 -34 75 -40 99 -16 17 18 38 19 53 4 24 -24 33 3 33 102 0 111 -7 132 -50
154 -34 18 -64 18 -103 1z m109 -141 c20 -50 -43 -105 -93 -82 -18 8 -23 17
-21 36 2 20 13 29 48 43 56 21 59 21 66 3z"/>
<path d="M8767 25014 c-21 -11 -32 -12 -48 -3 -17 9 -23 8 -30 -2 -11 -18 -11
-230 0 -248 18 -29 31 2 31 74 0 115 34 165 100 148 24 -6 40 -72 35 -145 -3
-59 12 -97 33 -84 8 5 12 43 12 109 -1 108 -8 129 -57 156 -28 14 -42 14 -76
-5z"/>
<path d="M9515 25018 c-106 -38 -125 -182 -32 -249 64 -47 132 -33 178 37 26
40 25 117 -2 161 -30 48 -91 70 -144 51z m81 -46 c31 -21 44 -94 25 -145 -12
-32 -64 -51 -94 -36 -58 30 -75 106 -36 160 16 23 28 29 57 29 20 0 42 -4 48
-8z"/>
<path d="M10145 25015 c-21 -9 -34 -10 -43 -2 -25 20 -33 -9 -34 -125 -1 -123
6 -154 29 -123 8 12 13 46 13 91 0 40 5 84 11 98 18 38 89 43 105 8 4 -10 10
-60 13 -112 5 -75 9 -95 21 -95 12 0 16 19 18 100 3 110 -5 138 -50 161 -32
17 -43 17 -83 -1z"/>
<path d="M10740 25012 c-40 -20 -55 -62 -22 -62 11 0 25 7 32 15 19 23 87 20
100 -5 14 -25 5 -40 -23 -41 -45 -1 -119 -35 -134 -61 -14 -21 -14 -31 -4 -55
21 -51 94 -80 121 -48 15 18 51 20 68 3 22 -22 32 10 32 100 0 95 -15 134 -60
157 -37 19 -66 18 -110 -3z m113 -143 c14 -23 -9 -68 -39 -75 -38 -10 -79 7
-79 31 0 14 14 27 45 42 49 24 59 24 73 2z"/>
<path d="M11395 25016 c-40 -18 -61 -43 -76 -94 -17 -60 2 -115 55 -153 46
-34 73 -36 124 -10 102 53 96 213 -11 256 -45 18 -53 18 -92 1z m104 -62 c40
-51 23 -144 -29 -163 -83 -28 -144 83 -89 160 28 40 88 41 118 3z"/>
<path d="M11731 25013 c-19 -13 -27 -14 -43 -4 -37 23 -46 0 -47 -117 -1 -77
2 -113 12 -126 25 -35 37 -9 37 82 0 68 4 92 18 110 20 26 75 33 95 13 7 -7
13 -51 15 -111 3 -73 7 -100 18 -104 22 -8 34 27 34 104 0 86 -18 133 -59 154
-38 20 -51 20 -80 -1z"/>
<path d="M6057 25014 c-4 -4 -7 -56 -7 -115 0 -105 1 -108 27 -128 38 -30 68
-36 95 -17 27 19 55 21 60 4 2 -6 10 -8 16 -4 16 10 17 252 1 262 -19 12 -29
-19 -29 -93 0 -40 -5 -82 -10 -95 -22 -48 -86 -53 -109 -9 -6 11 -13 56 -14
101 -3 75 -14 110 -30 94z"/>
<path d="M7413 25006 c-4 -8 -6 -68 -3 -133 4 -98 8 -118 21 -121 23 -4 29 26
29 144 0 65 -4 104 -12 112 -16 16 -25 15 -35 -2z"/>
<path d="M8247 25013 c-10 -10 -8 -236 2 -252 8 -12 12 -12 25 -2 24 20 24
246 0 255 -19 7 -19 7 -27 -1z"/>
<path d="M9751 25007 c-17 -17 -14 -163 5 -202 8 -18 31 -41 50 -51 33 -18 35
-18 69 0 28 15 37 17 50 6 12 -10 18 -10 30 0 23 19 22 245 -1 254 -29 11 -34
-4 -34 -95 0 -76 -3 -92 -20 -109 -23 -23 -58 -26 -86 -6 -16 12 -20 29 -22
109 -4 96 -15 120 -41 94z"/>
<path d="M11197 25014 c-4 -4 -7 -63 -7 -131 0 -104 3 -125 16 -130 28 -10 34
18 32 142 -3 99 -6 120 -18 123 -9 1 -19 0 -23 -4z"/>
</g>
</svg>
