<?xml version="1.0" standalone="no"?>
<!DOCTYPE svg PUBLIC "-//W3C//DTD SVG 20010904//EN"
 "http://www.w3.org/TR/2001/REC-SVG-20010904/DTD/svg10.dtd">
<svg version="1.0" xmlns="http://www.w3.org/2000/svg"
 width="1536.000000pt" height="1024.000000pt" viewBox="0 0 1536.000000 1024.000000"
 preserveAspectRatio="xMidYMid meet">
<metadata>
Created by potrace 1.10, written by Peter Selinger 2001-2011
</metadata>
<g transform="translate(0.000000,1024.000000) scale(0.100000,-0.100000)"
fill="#021d65" stroke="none">
<path d="M1025 9429 c-219 -32 -407 -171 -505 -374 -51 -106 -65 -170 -64
-290 1 -314 198 -569 504 -651 87 -24 253 -24 340 -1 161 43 331 170 413 308
64 109 90 205 91 339 1 166 -38 283 -137 416 -102 135 -267 228 -451 253 -87
12 -106 12 -191 0z m276 -34 c176 -46 339 -177 416 -335 69 -141 88 -279 57
-427 -82 -396 -498 -621 -884 -476 -292 109 -467 425 -406 733 74 373 444 601
817 505z"/>
<path d="M1028 9363 c-10 -2 -18 -8 -18 -13 0 -4 9 -6 21 -3 21 6 21 5 -2 -30
l-24 -35 -24 34 c-28 40 -36 35 -44 -25 l-5 -43 20 21 c14 16 23 19 32 12 7
-6 26 -7 50 -1 45 10 58 20 27 20 -22 0 -23 1 -7 25 27 41 21 50 -26 38z m-65
-48 c4 -8 2 -17 -3 -20 -6 -4 -10 3 -10 14 0 25 6 27 13 6z"/>
<path d="M1090 9330 c0 -22 5 -40 10 -40 6 0 10 18 10 40 0 22 -4 40 -10 40
-5 0 -10 -18 -10 -40z"/>
<path d="M1147 9363 l23 -4 -25 -34 -26 -33 36 -4 c19 -2 35 0 35 4 0 4 -9 8
-21 8 l-20 0 20 26 c29 36 26 44 -11 43 -24 -1 -27 -3 -11 -6z"/>
<path d="M1251 9328 c-16 -44 21 -80 55 -52 18 15 18 15 -8 10 -30 -7 -41 9
-26 37 9 18 10 18 30 0 20 -18 20 -17 17 2 -6 31 -57 33 -68 3z"/>
<path d="M1336 9294 c-18 -40 -14 -59 8 -29 17 24 40 11 26 -16 -7 -12 -7 -19
-1 -19 12 0 41 52 41 72 -1 9 -5 8 -13 -4 -16 -20 -40 -8 -31 15 12 33 -13 16
-30 -19z"/>
<path d="M832 9253 c12 -21 22 -39 22 -40 1 -1 12 7 26 19 l25 20 -23 -5 c-18
-4 -26 0 -34 19 -6 13 -17 24 -24 24 -10 0 -7 -11 8 -37z"/>
<path d="M780 9262 c0 -4 7 -18 16 -31 12 -17 13 -26 5 -34 -9 -9 -17 -4 -35
17 -13 17 -26 25 -29 19 -3 -5 7 -23 24 -39 l29 -28 21 20 c20 20 20 21 2 52
-17 30 -33 42 -33 24z"/>
<path d="M1423 9249 c-35 -22 -36 -41 -3 -32 15 4 20 0 20 -16 0 -30 17 -26
23 7 3 15 9 35 12 45 10 23 -12 22 -52 -4z m32 -9 c-3 -5 -11 -10 -16 -10 -6
0 -7 5 -4 10 3 6 11 10 16 10 6 0 7 -4 4 -10z"/>
<path d="M1031 9239 c-128 -25 -273 -132 -333 -245 -127 -236 -31 -536 210
-657 197 -98 425 -57 578 105 175 184 172 467 -6 652 -119 124 -285 177 -449
145z m220 -25 c184 -54 313 -199 342 -383 36 -238 -129 -469 -371 -520 -249
-52 -500 112 -553 360 -7 30 -9 90 -6 137 4 70 11 96 41 156 60 123 186 225
312 255 63 15 176 12 235 -5z"/>
<path d="M988 9191 c-208 -67 -341 -277 -308 -488 23 -146 120 -277 255 -344
68 -33 73 -34 190 -34 120 0 122 0 196 37 45 22 97 59 129 90 115 113 159 289
111 447 -40 133 -152 246 -289 290 -80 27 -204 27 -284 2z m218 -2 c134 -24
265 -125 321 -246 36 -77 44 -223 18 -305 -65 -201 -279 -334 -483 -300 -188
31 -332 176 -365 366 -42 249 157 483 424 495 14 0 52 -4 85 -10z"/>
<path d="M1044 9125 c3 -8 9 -22 12 -30 4 -10 0 -15 -11 -15 -9 0 -15 6 -13
12 6 16 -20 43 -30 33 -4 -4 -2 -10 4 -12 13 -4 6 -53 -7 -53 -4 0 -13 9 -19
20 -11 21 -30 27 -30 9 0 -5 3 -8 8 -5 4 2 12 -7 19 -20 6 -14 7 -26 2 -30
-13 -7 -11 -24 2 -24 6 0 13 9 16 19 5 20 56 45 67 34 3 -4 6 2 6 13 0 31 -12
64 -22 64 -6 0 -7 -7 -4 -15z"/>
<path d="M1081 9125 c0 -11 4 -29 9 -40 9 -20 9 -20 9 0 0 11 -4 29 -9 40 -9
20 -9 20 -9 0z"/>
<path d="M1165 9111 c5 -15 2 -21 -9 -21 -9 0 -16 -5 -16 -11 0 -6 16 -9 37
-7 29 2 39 8 41 23 2 18 2 18 -8 3 -15 -24 -30 -23 -30 1 0 11 -5 23 -11 27
-8 4 -9 0 -4 -15z"/>
<path d="M1235 9090 c-21 -24 -12 -40 23 -40 23 1 25 2 10 11 -25 14 -23 32 2
24 25 -8 26 1 1 14 -14 8 -22 6 -36 -9z"/>
<path d="M1356 9082 c-3 -6 0 -13 6 -15 8 -4 4 -8 -9 -12 -13 -4 -20 -11 -17
-16 3 -5 -2 -6 -10 -3 -9 3 -16 1 -16 -5 0 -6 5 -11 11 -11 16 0 67 -60 89
-104 17 -35 17 -41 4 -50 -26 -19 -6 -48 30 -44 34 3 44 30 14 36 -12 2 -18
-3 -18 -14 0 -15 -2 -16 -12 -5 -11 10 -10 15 3 24 21 16 24 28 7 38 -11 7
-10 11 2 19 13 8 12 10 -4 10 -11 0 -16 3 -13 6 3 4 -5 15 -18 26 -14 11 -23
24 -20 29 4 5 3 9 -2 9 -4 0 -15 4 -23 10 -12 7 -12 12 4 29 13 14 15 24 8 37
-6 10 -12 13 -16 6z"/>
<path d="M920 9050 c0 -5 5 -10 12 -10 9 0 9 -3 0 -12 -10 -10 -17 -10 -32 0
-23 14 -27 0 -6 -17 11 -10 20 -10 38 0 l23 12 -23 -26 c-14 -15 -19 -27 -13
-31 16 -10 40 36 34 67 -5 25 -33 40 -33 17z"/>
<path d="M1185 9050 c-3 -5 1 -10 10 -10 9 0 13 5 10 10 -3 6 -8 10 -10 10 -2
0 -7 -4 -10 -10z"/>
<path d="M865 8988 c25 -22 28 -28 16 -42 -11 -14 -11 -16 2 -16 21 0 29 27
14 50 -6 11 -15 20 -19 20 -3 0 -15 3 -25 7 -10 4 -6 -4 12 -19z"/>
<path d="M1068 8986 c-57 -21 -85 -42 -115 -87 -34 -52 -42 -132 -19 -194 41
-106 174 -164 279 -120 34 14 122 103 112 113 -2 3 -15 -7 -27 -23 -62 -79
-203 -69 -257 18 -45 73 -39 147 15 206 54 61 130 73 209 33 28 -14 29 -14 16
2 -41 49 -150 76 -213 52z m-26 -64 c-37 -36 -55 -90 -50 -150 5 -58 9 -70 28
-95 38 -48 61 -67 80 -67 11 0 20 -4 20 -9 0 -18 -77 11 -109 41 -39 37 -71
100 -71 143 0 30 27 96 53 127 13 16 50 36 70 37 4 1 -5 -12 -21 -27z"/>
<path d="M790 8939 c0 -5 11 -11 25 -15 14 -3 25 -10 25 -14 0 -5 -15 -4 -32
1 -40 11 -38 11 -38 0 0 -5 14 -12 30 -16 34 -7 41 -25 10 -25 -11 0 -20 -7
-20 -15 0 -8 5 -15 10 -15 17 0 11 -18 -7 -23 -11 -2 -9 -3 4 -2 13 1 25 -6
31 -19 l11 -21 0 22 c1 12 -3 24 -8 28 -6 3 -4 19 5 40 20 49 18 59 -16 72
-16 6 -30 7 -30 2z"/>
<path d="M1272 8861 c-21 -29 -23 -29 -49 -16 -41 22 -47 18 -24 -14 l20 -28
-24 -23 c-34 -32 -31 -40 7 -29 17 5 33 8 34 6 1 -1 10 -18 20 -37 l19 -35 3
42 c3 41 4 42 45 45 l42 3 -38 20 c-36 18 -38 21 -32 57 4 21 5 38 3 38 -2 0
-14 -13 -26 -29z m4 -62 c10 -17 -13 -36 -27 -22 -12 12 -4 33 11 33 5 0 12
-5 16 -11z"/>
<path d="M1440 8790 c0 -13 7 -20 20 -20 24 0 27 25 4 34 -23 9 -24 8 -24 -14z"/>
<path d="M776 8771 c-3 -5 3 -11 14 -14 11 -3 20 -12 20 -21 0 -18 -38 -42
-59 -37 -13 2 -13 0 -1 -14 7 -9 16 -12 19 -7 3 5 14 11 23 15 13 4 16 2 11
-11 -5 -16 -4 -16 11 -1 23 22 12 99 -15 99 -10 0 -20 -4 -23 -9z"/>
<path d="M835 8750 c-3 -5 -1 -10 4 -10 6 0 11 5 11 10 0 6 -2 10 -4 10 -3 0
-8 -4 -11 -10z"/>
<path d="M1437 8719 c-7 -27 -9 -24 26 -33 20 -5 27 -3 27 9 0 8 -5 15 -11 15
-7 0 -17 7 -24 16 -11 15 -13 15 -18 -7z"/>
<path d="M840 8650 c0 -5 5 -10 10 -10 6 0 10 5 10 10 0 6 -4 10 -10 10 -5 0
-10 -4 -10 -10z"/>
<path d="M1384 8615 c-18 -27 -13 -55 10 -55 8 0 22 -3 32 -7 12 -4 15 -3 10
5 -4 7 -16 12 -26 12 -28 0 -32 15 -10 39 16 20 22 21 42 10 21 -11 22 -11 9
4 -20 24 -48 21 -67 -8z"/>
<path d="M811 8616 c-9 -10 -8 -16 4 -26 8 -7 15 -19 15 -26 0 -8 4 -14 9 -14
5 0 7 8 4 19 -7 26 24 36 32 11 4 -11 3 -24 0 -30 -3 -5 -2 -10 4 -10 5 0 11
6 14 13 3 9 8 9 21 -2 15 -13 15 -15 0 -32 -10 -11 -14 -22 -11 -25 7 -7 46
35 47 50 0 5 6 3 13 -3 8 -6 17 -8 20 -5 9 9 -17 32 -34 32 -33 -2 -50 3 -44
12 3 6 2 10 -4 10 -5 0 -13 9 -16 20 -7 21 -37 29 -32 9 1 -6 -6 -13 -16 -14
-15 -3 -16 -1 -6 11 7 8 7 14 1 14 -5 0 -15 -6 -21 -14z"/>
<path d="M1334 8555 c3 -8 1 -15 -4 -15 -6 0 -10 5 -10 11 0 7 -12 0 -26 -14
-15 -15 -30 -24 -35 -21 -5 3 -13 -5 -17 -17 -6 -15 -11 -18 -16 -11 -9 14
-52 16 -61 3 -8 -14 6 -91 17 -91 6 0 7 17 3 41 l-7 42 31 -6 c23 -5 33 -3 37
8 4 8 10 12 16 9 5 -3 16 2 23 12 8 11 15 15 15 9 0 -5 5 -3 10 5 9 13 14 10
35 -15 27 -32 35 -23 10 11 -20 30 -6 38 22 12 12 -12 26 -19 29 -15 9 8 -46
57 -64 57 -8 0 -12 -6 -8 -15z"/>
<path d="M960 8510 c-11 -11 -20 -27 -20 -35 0 -23 9 -18 20 10 5 14 14 25 19
25 19 0 22 -21 7 -45 -21 -31 -11 -33 15 -2 24 29 24 44 -1 57 -15 8 -24 6
-40 -10z"/>
<path d="M1050 8490 c-8 -15 -8 -20 1 -20 7 0 9 -9 5 -24 -3 -14 -1 -28 7 -34
9 -8 12 -1 14 29 0 21 -3 39 -9 39 -5 0 -6 5 -3 10 4 6 11 8 16 5 5 -4 9 -1 9
4 0 19 -29 12 -40 -9z"/>
<path d="M1128 8483 c-6 -28 13 -97 23 -82 4 7 3 21 -3 32 -5 10 -7 30 -4 43
4 13 2 24 -3 24 -5 0 -11 -8 -13 -17z"/>
<path d="M1290 8475 c-7 -9 -10 -18 -7 -21 3 -3 10 4 17 15 13 25 8 27 -10 6z"/>
<path d="M1195 8460 c3 -5 8 -10 11 -10 2 0 4 5 4 10 0 6 -5 10 -11 10 -5 0
-7 -4 -4 -10z"/>
<path d="M1491 9199 c-13 -17 -19 -34 -16 -37 4 -4 10 -1 12 6 9 23 25 12 19
-13 -4 -14 -2 -25 4 -25 5 0 10 6 10 14 0 8 9 18 20 21 25 8 26 27 2 48 -24
22 -24 22 -51 -14z m46 -15 c-9 -9 -28 6 -21 18 4 6 10 6 17 -1 6 -6 8 -13 4
-17z"/>
<path d="M686 9184 c-21 -21 -20 -26 9 -54 24 -23 25 -23 45 -5 25 22 25 37 2
58 -23 21 -36 21 -56 1z m49 -14 c4 -6 4 -18 1 -27 -6 -14 -9 -14 -26 2 -11
10 -20 22 -20 27 0 12 38 10 45 -2z"/>
<path d="M1558 9145 c-16 -13 -28 -30 -28 -37 0 -7 14 2 32 19 38 38 35 51 -4
18z"/>
<path d="M1602 9135 c2 -12 -7 -29 -22 -42 -14 -12 -22 -25 -17 -29 4 -4 18 3
31 15 14 13 29 20 35 16 17 -10 12 8 -10 35 -18 22 -20 23 -17 5z"/>
<path d="M626 9111 c-16 -18 -15 -20 15 -46 31 -25 34 -26 46 -9 18 24 16 54
-2 54 -8 0 -15 5 -15 10 0 16 -26 11 -44 -9z m28 -16 c-4 -8 -10 -12 -15 -9
-11 6 -2 24 11 24 5 0 7 -7 4 -15z m36 -2 c0 -5 -4 -15 -10 -23 -11 -18 -25
-7 -17 15 6 15 27 21 27 8z"/>
<path d="M1608 9053 c-16 -2 -28 -9 -28 -15 0 -5 6 -8 14 -5 17 7 28 -16 19
-40 -4 -12 5 -8 25 11 18 17 32 36 32 43 0 13 -10 14 -62 6z m42 -17 c0 -11
-19 -15 -25 -6 -3 5 1 10 9 10 9 0 16 -2 16 -4z"/>
<path d="M576 9032 c-3 -5 11 -24 31 -43 23 -22 34 -28 30 -16 -4 10 -7 23 -7
28 0 6 -4 8 -9 5 -5 -3 -14 1 -21 9 -11 14 -10 14 11 7 27 -10 59 -5 59 9 0
11 -87 12 -94 1z"/>
<path d="M1647 8978 c-22 -8 -26 -14 -21 -31 10 -35 20 -40 53 -26 31 14 36
24 25 53 -7 18 -17 19 -57 4z m43 -24 c0 -8 -4 -12 -10 -9 -5 3 -10 10 -10 16
0 5 5 9 10 9 6 0 10 -7 10 -16z m-26 -9 c3 -9 0 -15 -9 -15 -8 0 -15 7 -15 15
0 8 4 15 9 15 5 0 11 -7 15 -15z"/>
<path d="M536 8923 c-4 -14 -3 -29 1 -33 12 -12 73 -23 73 -13 0 4 3 18 6 31
4 13 2 22 -5 22 -6 0 -11 -9 -11 -20 0 -11 -5 -20 -11 -20 -6 0 -9 9 -6 20 3
11 1 20 -4 20 -5 0 -9 -7 -9 -15 0 -8 -5 -15 -11 -15 -6 0 -9 9 -6 20 3 11 2
22 -3 25 -4 3 -11 -7 -14 -22z"/>
<path d="M1664 8893 c-16 -3 -20 -10 -16 -29 2 -13 9 -27 15 -31 6 -4 8 2 5
15 -6 22 8 32 43 32 10 0 19 5 19 10 0 10 -25 11 -66 3z"/>
<path d="M520 8851 c0 -6 7 -11 15 -11 8 0 15 -7 15 -15 0 -8 -7 -15 -15 -15
-33 0 -12 -18 25 -22 22 -2 40 0 40 4 0 5 -7 8 -15 8 -9 0 -15 9 -15 21 0 14
5 19 15 16 8 -4 17 -2 20 3 4 6 0 10 -8 10 -8 0 -29 3 -46 6 -20 4 -31 3 -31
-5z"/>
<path d="M1679 8823 c-22 -3 -25 -8 -21 -33 2 -17 9 -30 14 -30 5 0 7 9 3 19
-3 11 -1 22 5 26 5 3 10 -3 10 -14 0 -11 5 -23 11 -27 8 -5 10 1 7 20 -7 34 8
34 20 -1 10 -28 10 -27 11 10 1 39 1 39 -60 30z"/>
<path d="M521 8748 c0 -21 4 -38 10 -38 5 0 7 5 4 10 -4 6 8 10 29 10 20 0 36
5 36 10 0 6 -15 10 -34 10 -24 0 -36 5 -39 18 -3 9 -5 0 -6 -20z"/>
<path d="M1660 8705 c-7 -9 -10 -18 -7 -22 4 -3 1 -13 -6 -21 -10 -13 -9 -15
6 -9 9 3 17 2 17 -3 0 -6 4 -10 10 -10 5 0 7 6 5 13 -3 6 4 18 15 25 11 7 20
8 20 3 0 -5 -6 -11 -12 -14 -7 -2 -10 -8 -6 -12 8 -8 38 12 38 25 0 7 -55 40
-65 40 -2 0 -8 -7 -15 -15z m30 -9 c0 -3 -4 -8 -10 -11 -5 -3 -10 -1 -10 4 0
6 5 11 10 11 6 0 10 -2 10 -4z"/>
<path d="M566 8644 c-42 -29 -39 -38 17 -48 40 -7 45 -3 22 21 -12 12 -13 18
-4 29 21 25 4 24 -35 -2z m19 -24 c3 -5 -3 -10 -15 -10 -12 0 -18 5 -15 10 3
6 10 10 15 10 5 0 12 -4 15 -10z"/>
<path d="M1630 8591 c0 -5 6 -11 14 -14 9 -4 13 -14 9 -29 -4 -21 -3 -22 10
-5 19 23 30 22 17 -2 -6 -12 -6 -22 -1 -25 5 -3 14 8 20 24 10 29 8 31 -26 45
-42 18 -43 18 -43 6z"/>
<path d="M582 8566 c-18 -6 -30 -14 -27 -18 4 -4 19 -2 33 3 l27 10 -25 -25
c-14 -16 -20 -30 -14 -35 11 -10 74 15 74 29 0 7 -7 7 -21 0 -26 -14 -35 -7
-14 10 15 13 21 41 8 39 -5 0 -23 -6 -41 -13z"/>
<path d="M1590 8510 c-17 -33 4 -62 43 -58 25 2 33 8 35 27 7 45 -57 70 -78
31z m59 -14 c8 -10 8 -16 -2 -25 -17 -13 -54 10 -43 27 10 16 31 15 45 -2z"/>
<path d="M631 8481 c-31 -44 -28 -54 16 -46 51 9 61 17 34 27 -17 6 -21 13
-16 28 9 30 -11 24 -34 -9z m29 -21 c0 -5 -7 -10 -16 -10 -8 0 -12 5 -9 10 3
6 10 10 16 10 5 0 9 -4 9 -10z"/>
<path d="M1540 8435 c-11 -13 -8 -21 15 -45 15 -16 32 -27 38 -23 5 3 -3 15
-19 28 -37 30 -24 53 15 25 16 -10 31 -17 35 -13 7 7 -43 43 -60 43 -6 0 -17
-7 -24 -15z"/>
<path d="M675 8415 c-16 -13 -26 -27 -22 -31 3 -4 13 -2 21 5 17 15 30 -11 13
-28 -24 -24 4 -21 32 5 29 26 34 58 6 34 -20 -16 -40 -3 -24 16 20 24 6 23
-26 -1z"/>
<path d="M1500 8393 c0 -3 8 -15 17 -25 16 -18 16 -19 -11 -8 -42 16 -51 2
-20 -31 35 -36 56 -39 23 -2 -21 23 -22 25 -4 18 62 -23 69 -17 30 28 -24 27
-35 33 -35 20z"/>
<path d="M747 8368 c-14 -8 -16 -13 -6 -24 15 -19 30 -18 23 1 -7 17 11 21 21
5 8 -13 -13 -40 -31 -40 -8 0 -14 7 -14 15 0 8 -5 15 -11 15 -16 0 -6 -31 14
-44 23 -15 51 3 55 37 4 31 -24 51 -51 35z"/>
<path d="M1422 8328 c-18 -18 -15 -42 7 -62 18 -16 21 -16 44 -1 25 16 25 17
6 36 -10 10 -19 24 -19 29 0 14 -23 13 -38 -2z m33 -29 c4 -11 4 -24 0 -27 -9
-9 -36 28 -29 39 9 15 22 10 29 -12z"/>
<path d="M845 8271 c-3 -8 0 -18 7 -22 7 -5 15 -4 16 1 2 6 8 8 12 5 5 -3 8 3
7 14 -1 23 -34 24 -42 2z"/>
<path d="M935 8246 c-18 -28 -11 -53 18 -62 25 -8 56 25 35 37 -17 11 -33 -2
-17 -13 11 -7 9 -8 -5 -6 -23 4 -29 18 -16 38 8 12 13 13 30 2 22 -13 27 -3 8
16 -18 18 -36 14 -53 -12z"/>
<path d="M1286 8259 c-7 -21 -13 -79 -9 -79 3 0 11 7 20 15 11 12 19 13 28 5
26 -22 22 6 -6 39 -20 24 -30 30 -33 20z m18 -24 c3 -8 1 -15 -4 -15 -6 0 -10
7 -10 15 0 8 2 15 4 15 2 0 6 -7 10 -15z"/>
<path d="M1016 8219 c-8 -42 -8 -49 4 -49 6 0 10 7 10 15 0 8 7 15 15 15 8 0
15 -9 15 -20 0 -37 18 -20 22 20 2 28 0 40 -9 40 -7 0 -12 -4 -10 -9 1 -5 -1
-9 -5 -10 -22 -3 -27 0 -22 14 4 8 2 15 -4 15 -5 0 -12 -14 -16 -31z"/>
<path d="M1185 8240 c-9 -14 3 -80 14 -80 5 0 6 12 4 28 l-4 27 17 -22 c24
-33 34 -28 34 17 0 23 -5 40 -11 40 -7 0 -9 -11 -6 -27 l5 -28 -23 29 c-15 19
-25 24 -30 16z"/>
<path d="M1107 8200 c-13 -34 -13 -40 -1 -40 8 0 14 5 14 10 0 14 28 12 33 -2
11 -31 15 2 5 35 -15 48 -31 47 -51 -3z m33 5 c0 -8 -4 -15 -10 -15 -5 0 -7 7
-4 15 4 8 8 15 10 15 2 0 4 -7 4 -15z"/>
<path d="M2723 9250 c-90 -21 -123 -82 -131 -239 -6 -144 9 -214 57 -262 28
-28 48 -39 83 -44 103 -16 171 30 192 131 l7 32 -51 3 -51 4 -9 -36 c-11 -38
-25 -49 -66 -49 -44 0 -59 48 -59 192 0 113 2 130 21 155 40 54 101 34 106
-35 2 -34 7 -36 69 -26 l36 6 -7 43 c-12 76 -52 116 -130 128 -19 3 -50 1 -67
-3z m102 -33 c11 -3 23 -6 26 -6 9 -2 49 -78 49 -96 0 -28 -43 -14 -59 20 -19
40 -39 54 -77 55 -71 0 -94 -54 -94 -219 0 -90 4 -124 18 -151 35 -72 110 -74
151 -4 30 51 68 46 49 -7 -17 -49 -62 -79 -119 -79 -117 0 -153 60 -153 250 1
97 4 123 23 167 33 75 88 96 186 70z"/>
<path d="M1880 9203 l0 -43 53 0 52 0 -3 -225 -3 -225 56 0 56 0 -3 225 -3
225 53 0 52 0 0 43 0 42 -155 0 -155 0 0 -42z m280 3 c0 -16 -21 -26 -55 -26
-12 0 -27 -6 -33 -13 -7 -8 -12 -90 -13 -220 -1 -192 -3 -207 -20 -207 -10 0
-20 8 -22 18 -3 9 -5 102 -6 207 -1 138 -4 192 -13 202 -7 6 -32 13 -54 14
-39 3 -44 7 -35 37 1 1 57 2 126 2 100 0 125 -3 125 -14z"/>
<path d="M2253 8978 l-60 -268 48 0 c45 0 48 2 53 30 20 102 11 91 79 88 l62
-3 9 -57 9 -58 52 0 51 0 -60 266 -61 266 -62 2 -61 1 -59 -267z m156 228 c10
-12 111 -422 111 -450 0 -6 -11 -12 -25 -12 -14 -1 -23 1 -20 5 4 8 -15 67
-28 89 -11 16 -139 16 -155 0 -7 -7 -12 -26 -12 -43 0 -32 -15 -55 -36 -55
-13 0 -12 19 0 80 53 250 78 359 88 378 13 25 59 30 77 8z"/>
<path d="M2358 9133 c-8 -10 -23 -62 -33 -116 -20 -115 -15 -127 50 -127 64 0
68 10 44 131 -22 115 -36 141 -61 112z m18 -221 c-21 -2 -40 -2 -42 0 -2 2 6
55 18 118 l22 115 20 -115 21 -115 -39 -3z"/>
<path d="M3085 9235 c-2 -5 -27 -116 -55 -245 -28 -129 -53 -245 -57 -257 -5
-22 -2 -23 45 -23 l50 0 7 60 7 60 63 0 62 0 12 -60 12 -60 50 0 c27 0 49 2
49 4 0 2 -20 89 -44 192 -24 104 -52 223 -61 264 l-16 75 -61 0 c-33 0 -62 -4
-63 -10z m106 -32 c1 -10 1 -22 0 -27 -1 -4 2 -13 7 -20 6 -6 13 -27 16 -46 4
-19 16 -73 27 -120 12 -47 29 -122 39 -167 18 -82 18 -83 -1 -83 -11 0 -23 10
-28 23 -5 12 -15 37 -21 55 -12 32 -13 32 -80 32 -77 0 -89 -8 -97 -70 -4 -31
-10 -40 -25 -40 -18 0 -19 5 -14 48 3 26 17 92 30 147 13 55 27 119 31 143 4
23 10 42 13 42 4 0 8 19 9 41 1 47 14 59 61 59 23 0 32 -5 33 -17z"/>
<path d="M3133 9142 c-6 -4 -20 -56 -32 -116 -24 -126 -21 -136 44 -136 72 0
76 17 39 182 -15 64 -29 84 -51 70z m37 -117 c11 -60 20 -110 20 -112 0 -2
-20 -3 -44 -3 l-43 0 18 88 c10 48 18 100 19 116 0 50 9 23 30 -89z"/>
<path d="M3390 8978 l0 -268 50 0 50 0 0 119 0 119 65 1 65 1 0 -120 0 -120
50 0 50 0 0 268 0 267 -50 0 -50 0 0 -107 0 -108 -65 0 -65 0 0 108 0 107 -50
0 -50 0 0 -267z m77 195 c3 -168 -1 -151 43 -164 27 -8 53 -9 82 -3 l43 9 3
96 c2 87 5 97 22 102 11 3 22 2 24 -2 3 -4 5 -112 5 -239 l1 -232 -25 0 -25 0
0 104 c0 76 -4 107 -14 115 -20 17 -125 16 -142 0 -9 -10 -14 -44 -15 -104 -2
-108 -4 -115 -35 -115 l-24 0 0 240 0 240 28 0 c26 0 28 -2 29 -47z"/>
<path d="M3800 8978 l0 -268 50 0 50 0 0 116 0 116 70 -4 70 -3 0 43 0 42 -70
0 -70 0 0 70 0 70 80 0 80 0 0 43 0 42 -130 0 -130 0 0 -267z m233 228 c8 -19
-14 -26 -83 -26 -72 0 -82 -11 -79 -87 3 -84 9 -91 77 -95 43 -2 57 -7 57 -18
0 -11 -14 -16 -52 -18 -29 -2 -56 -9 -63 -17 -8 -9 -12 -47 -12 -93 0 -102
-21 -142 -49 -91 -9 17 -8 23 2 30 11 7 11 9 1 9 -10 0 -13 41 -11 195 1 107
5 198 10 201 5 3 7 10 4 15 -4 5 34 9 93 9 77 0 101 -3 105 -14z"/>
<path d="M1998 8594 c-11 -11 -10 -134 1 -134 6 0 11 17 13 37 2 27 8 39 21
41 14 3 17 -4 17 -37 0 -23 5 -41 10 -41 6 0 10 17 10 39 0 45 -22 70 -44 52
-12 -10 -15 -7 -18 19 -2 18 -6 28 -10 24z"/>
<path d="M2348 8595 c-4 -6 -6 -38 -6 -72 l1 -61 35 2 c41 1 58 22 49 58 -8
30 -34 43 -53 28 -10 -9 -13 -4 -16 22 -2 18 -6 28 -10 23z m60 -84 c4 -28
-17 -45 -35 -29 -14 11 -17 40 -6 52 14 14 38 0 41 -23z"/>
<path d="M2510 8569 c0 -27 -2 -30 -15 -19 -29 24 -66 -31 -45 -69 7 -15 20
-20 45 -19 l35 1 0 69 c0 39 -4 68 -10 68 -5 0 -10 -14 -10 -31z m-2 -60 c2
-16 -3 -29 -12 -32 -20 -8 -39 18 -31 43 9 29 39 21 43 -11z"/>
<path d="M2650 8530 c0 -40 4 -70 10 -70 6 0 10 30 10 70 0 40 -4 70 -10 70
-6 0 -10 -30 -10 -70z"/>
<path d="M3231 8600 c-7 -19 -4 -140 4 -140 6 0 10 17 10 37 0 28 5 38 18 41
14 3 17 -4 17 -37 0 -23 5 -41 10 -41 6 0 10 17 10 39 0 45 -22 70 -44 52 -12
-10 -15 -7 -19 21 -2 18 -5 31 -6 28z"/>
<path d="M3680 8532 l0 -69 35 -1 c30 -1 37 3 45 24 16 42 -15 81 -51 63 -13
-6 -15 -3 -11 22 3 17 0 29 -7 29 -7 0 -11 -25 -11 -68z m65 -12 c8 -25 -11
-51 -31 -43 -14 5 -19 44 -7 56 13 13 32 7 38 -13z"/>
<path d="M3787 8593 c-11 -10 -8 -133 3 -133 6 0 10 30 10 70 0 70 -1 76 -13
63z"/>
<path d="M1880 8580 c0 -5 9 -10 20 -10 18 0 20 -7 20 -55 0 -30 5 -55 10 -55
6 0 10 25 10 55 0 48 2 55 20 55 11 0 20 5 20 10 0 6 -22 10 -50 10 -27 0 -50
-4 -50 -10z"/>
<path d="M2245 8538 c-10 -29 -20 -59 -23 -65 -2 -7 1 -13 6 -13 6 0 14 9 17
20 7 24 55 28 55 6 0 -15 18 -31 26 -24 7 7 -41 121 -53 125 -6 2 -19 -20 -28
-49z m39 0 c5 -21 3 -28 -9 -28 -16 0 -19 17 -9 45 8 19 9 18 18 -17z"/>
<path d="M2751 8532 c-24 -66 -25 -72 -12 -72 5 0 11 9 14 20 3 13 14 20 30
20 16 0 26 -7 30 -20 3 -11 10 -20 16 -20 12 0 -32 123 -46 127 -6 2 -20 -23
-32 -55z m43 6 c5 -23 3 -28 -13 -28 -14 0 -19 5 -16 15 14 42 16 48 19 44 2
-2 6 -16 10 -31z"/>
<path d="M2930 8580 c0 -5 7 -10 15 -10 8 0 15 5 15 10 0 6 -7 10 -15 10 -8 0
-15 -4 -15 -10z"/>
<path d="M3116 8568 c-44 -63 26 -145 79 -92 9 9 13 19 10 22 -3 3 -11 0 -17
-6 -22 -22 -57 -14 -64 13 -12 48 20 80 58 56 26 -16 34 -8 13 13 -23 23 -61
20 -79 -6z"/>
<path d="M3480 8580 c0 -5 5 -10 10 -10 6 0 10 5 10 10 0 6 -4 10 -10 10 -5 0
-10 -4 -10 -10z"/>
<path d="M3981 8576 c-7 -8 -10 -20 -6 -26 4 -6 1 -17 -5 -25 -19 -23 -8 -60
18 -63 13 -2 29 1 37 8 10 8 14 8 18 -2 2 -7 8 -10 12 -5 5 4 4 12 -3 19 -7 7
-8 17 -1 30 6 11 6 18 0 18 -5 0 -12 -6 -14 -12 -4 -9 -12 -5 -26 12 -23 28
-26 40 -11 40 6 0 10 -7 10 -15 0 -8 5 -15 11 -15 17 0 6 44 -12 48 -9 1 -21
-4 -28 -12z m27 -68 c18 -18 15 -28 -8 -28 -13 0 -20 7 -20 20 0 23 10 26 28
8z"/>
<path d="M3530 8565 c0 -8 -6 -15 -12 -15 -10 0 -10 -2 -1 -8 6 -4 13 -23 15
-42 2 -24 9 -36 21 -38 9 -2 17 2 17 8 0 6 -4 8 -10 5 -6 -4 -10 8 -10 29 0
19 6 37 13 39 10 4 10 6 0 6 -7 1 -13 8 -13 16 0 8 -4 15 -10 15 -5 0 -10 -7
-10 -15z"/>
<path d="M2106 8544 c-19 -18 -21 -55 -4 -72 16 -16 43 -15 58 3 14 17 0 21
-17 4 -13 -13 -33 -4 -33 15 0 7 12 11 30 10 23 -2 30 2 30 17 0 10 -9 23 -19
29 -25 13 -27 13 -45 -6z m44 -14 c0 -5 -9 -10 -21 -10 -11 0 -17 5 -14 10 3
6 13 10 21 10 8 0 14 -4 14 -10z"/>
<path d="M3337 8549 c-9 -6 -15 -15 -11 -20 4 -6 11 -6 19 1 8 7 19 8 26 4 7
-4 0 -12 -20 -20 -46 -19 -39 -48 12 -51 36 -1 37 0 37 32 0 19 -7 41 -16 49
-18 19 -23 19 -47 5z m32 -69 c-14 -9 -29 -4 -29 10 0 12 34 18 39 7 2 -5 -3
-13 -10 -17z"/>
<path d="M3438 8553 c-14 -3 -18 -15 -18 -49 0 -24 5 -44 10 -44 6 0 10 16 10
35 0 22 6 38 15 41 8 4 15 10 15 15 0 9 -4 10 -32 2z"/>
<path d="M3594 8546 c-10 -8 -16 -18 -12 -22 4 -4 14 -1 22 5 8 7 20 9 27 5 7
-4 0 -12 -20 -20 -46 -19 -39 -48 12 -51 36 -1 37 0 37 32 0 31 -21 65 -39 65
-4 0 -16 -6 -27 -14z m35 -66 c-14 -9 -29 -4 -29 10 0 12 34 18 39 7 2 -5 -3
-13 -10 -17z"/>
<path d="M3841 8544 c-36 -25 -22 -84 20 -84 9 0 22 7 29 15 14 17 0 21 -17 4
-13 -13 -33 -4 -33 14 0 7 12 12 28 11 37 -2 44 4 32 25 -14 27 -35 32 -59 15z
m44 -14 c4 -6 -5 -10 -20 -10 -15 0 -24 4 -20 10 3 6 12 10 20 10 8 0 17 -4
20 -10z"/>
<path d="M2552 8508 c3 -42 4 -43 41 -45 l37 -1 0 44 c0 24 -4 44 -10 44 -5 0
-10 -13 -10 -29 0 -29 -21 -57 -33 -44 -4 3 -7 21 -7 40 0 18 -5 33 -11 33 -6
0 -9 -17 -7 -42z"/>
<path d="M2868 8543 c27 -5 28 -15 2 -38 -31 -28 -25 -45 15 -45 19 0 35 5 35
11 0 7 -10 9 -25 7 -31 -6 -31 -5 1 38 l26 34 -38 -1 c-23 -1 -30 -3 -16 -6z"/>
<path d="M2940 8505 c0 -25 5 -45 10 -45 6 0 9 20 8 45 0 25 -5 45 -10 45 -4
0 -8 -20 -8 -45z"/>
<path d="M2993 8543 l28 -4 -25 -34 c-14 -19 -26 -36 -26 -39 0 -3 16 -6 35
-6 19 0 35 5 35 11 0 6 -9 9 -20 6 -25 -6 -25 1 0 33 27 35 25 40 -17 39 -32
-2 -33 -3 -10 -6z"/>
<path d="M3480 8505 c0 -25 5 -45 10 -45 6 0 10 20 10 45 0 25 -4 45 -10 45
-5 0 -10 -20 -10 -45z"/>
<path d="M3520 8366 c0 -19 -4 -23 -19 -19 -25 6 -53 -34 -44 -65 6 -24 5 -24
51 -28 l32 -2 0 69 c0 39 -4 69 -10 69 -5 0 -10 -11 -10 -24z m-2 -69 c3 -21
-1 -27 -17 -27 -25 0 -34 14 -26 41 10 29 39 20 43 -14z"/>
<path d="M1890 8315 c0 -37 4 -65 10 -65 6 0 10 14 10 30 0 27 3 30 30 30 27
0 30 -3 30 -30 0 -16 5 -30 10 -30 6 0 10 28 10 65 0 37 -4 65 -10 65 -5 0
-10 -11 -10 -25 0 -21 -5 -25 -30 -25 -25 0 -30 4 -30 25 0 14 -4 25 -10 25
-6 0 -10 -28 -10 -65z"/>
<path d="M2470 8370 c0 -5 5 -10 10 -10 6 0 10 5 10 10 0 6 -4 10 -10 10 -5 0
-10 -4 -10 -10z"/>
<path d="M2750 8370 c0 -5 5 -10 10 -10 6 0 10 5 10 10 0 6 -4 10 -10 10 -5 0
-10 -4 -10 -10z"/>
<path d="M3050 8315 c0 -37 4 -65 10 -65 6 0 10 14 10 30 0 25 4 30 25 30 14
0 25 5 25 11 0 7 -10 9 -25 7 -19 -4 -25 -1 -25 13 0 14 7 19 30 19 17 0 30 5
30 10 0 6 -18 10 -40 10 l-40 0 0 -65z"/>
<path d="M3730 8370 c0 -5 5 -10 10 -10 6 0 10 5 10 10 0 6 -4 10 -10 10 -5 0
-10 -4 -10 -10z"/>
<path d="M2515 8353 c-3 -10 -2 -19 2 -20 5 -2 7 -19 5 -38 -4 -38 19 -58 41
-36 8 8 7 11 -6 11 -12 0 -17 8 -17 30 0 17 5 30 10 30 6 0 10 5 10 11 0 5 -4
7 -10 4 -5 -3 -10 1 -10 9 0 21 -16 20 -25 -1z"/>
<path d="M3667 8358 c-2 -7 -1 -33 2 -58 4 -32 11 -46 24 -48 9 -2 17 1 17 7
0 6 -4 11 -10 11 -5 0 -10 14 -10 30 0 17 5 30 10 30 6 0 10 5 10 11 0 5 -4 7
-10 4 -5 -3 -10 1 -10 9 0 19 -16 21 -23 4z"/>
<path d="M2022 8303 c3 -47 4 -48 36 -48 32 -1 32 0 32 48 0 32 -4 46 -11 41
-6 -3 -9 -17 -6 -30 5 -30 -7 -48 -28 -40 -13 4 -16 14 -13 37 3 16 1 32 -4
35 -5 3 -8 -16 -6 -43z"/>
<path d="M2120 8299 c0 -27 5 -49 10 -49 6 0 10 18 10 40 0 29 4 40 15 40 11
0 15 -11 15 -40 0 -51 18 -53 22 -2 2 25 8 37 18 37 10 0 16 -12 18 -37 2 -21
7 -38 13 -38 14 0 11 64 -5 86 -13 16 -18 17 -35 7 -11 -7 -22 -9 -25 -4 -3 5
-17 9 -31 9 -23 0 -25 -4 -25 -49z"/>
<path d="M2279 8334 c-11 -13 -9 -14 13 -9 15 4 29 2 32 -4 4 -7 -1 -11 -13
-11 -11 0 -27 -7 -36 -16 -22 -22 -3 -44 36 -41 26 2 29 5 29 38 0 53 -33 77
-61 43z m49 -46 c-3 -7 -15 -14 -29 -16 -23 -2 -23 -2 -5 13 24 18 39 20 34 3z"/>
<path d="M2370 8298 c0 -26 5 -48 10 -48 6 0 10 18 10 41 0 33 3 40 18 37 12
-2 18 -14 20 -41 2 -20 7 -35 11 -33 4 3 5 24 2 48 -6 41 -8 43 -38 43 -33 1
-33 0 -33 -47z"/>
<path d="M2470 8300 c0 -27 5 -50 10 -50 6 0 10 23 10 50 0 28 -4 50 -10 50
-5 0 -10 -22 -10 -50z"/>
<path d="M2589 8334 c-11 -13 -9 -14 13 -9 14 4 28 2 32 -3 3 -5 -8 -12 -25
-16 -25 -5 -30 -10 -27 -28 2 -19 10 -23 41 -25 l38 -1 -5 40 c-6 55 -39 76
-67 42z m51 -44 c0 -13 -28 -25 -38 -16 -3 4 0 11 8 16 20 13 30 12 30 0z"/>
<path d="M2680 8300 c0 -27 5 -50 10 -50 6 0 10 16 10 35 0 22 6 38 15 41 8 4
15 11 15 16 0 6 -6 5 -15 -2 -10 -9 -15 -9 -15 -1 0 6 -4 11 -10 11 -5 0 -10
-22 -10 -50z"/>
<path d="M2750 8300 c0 -27 5 -50 10 -50 6 0 10 23 10 50 0 28 -4 50 -10 50
-5 0 -10 -22 -10 -50z"/>
<path d="M2799 8334 c-12 -15 -10 -16 19 -10 41 10 42 -6 1 -21 -45 -17 -36
-47 14 -50 35 -1 37 1 37 29 0 60 -40 89 -71 52z m46 -53 c-8 -13 -35 -15 -35
-2 0 5 8 11 18 13 21 5 26 2 17 -11z"/>
<path d="M2899 8345 c0 0 -1 -21 -2 -47 -3 -56 10 -65 15 -11 2 27 8 39 21 41
14 3 17 -4 17 -37 0 -23 5 -41 10 -41 15 0 12 77 -2 87 -10 6 -54 12 -59 8z"/>
<path d="M3154 8325 c-9 -14 -13 -32 -9 -44 8 -26 50 -38 70 -21 22 18 19 67
-4 80 -29 15 -39 13 -57 -15z m54 -28 c3 -22 -1 -27 -18 -27 -23 0 -35 22 -26
46 10 25 41 12 44 -19z"/>
<path d="M3250 8311 c0 -44 13 -59 53 -59 26 0 27 3 27 49 0 57 -17 66 -22 12
-2 -27 -8 -39 -20 -41 -15 -3 -18 4 -18 37 0 23 -4 41 -10 41 -5 0 -10 -17
-10 -39z"/>
<path d="M3360 8308 c0 -21 0 -41 -1 -45 0 -4 5 -9 11 -11 8 -3 10 3 5 17 -8
28 3 61 21 61 10 0 14 -12 14 -40 0 -22 5 -40 10 -40 15 0 12 77 -2 87 -7 4
-23 8 -35 8 -20 1 -23 -4 -23 -37z"/>
<path d="M3583 8343 c-24 -9 -13 -23 12 -17 15 4 25 2 25 -5 0 -6 -6 -11 -13
-11 -7 0 -22 -6 -32 -14 -16 -12 -17 -16 -6 -29 7 -9 25 -15 42 -14 26 2 29 5
29 38 0 48 -21 67 -57 52z m37 -58 c0 -8 -9 -15 -20 -15 -25 0 -26 17 -2 23 9
3 18 5 20 6 1 0 2 -6 2 -14z"/>
<path d="M3730 8300 c0 -27 5 -50 10 -50 6 0 10 23 10 50 0 28 -4 50 -10 50
-5 0 -10 -22 -10 -50z"/>
<path d="M3784 8325 c-9 -14 -13 -32 -9 -44 8 -26 50 -38 70 -21 22 18 19 67
-4 80 -29 15 -39 13 -57 -15z m54 -28 c3 -22 -1 -27 -18 -27 -23 0 -35 22 -26
46 10 25 41 12 44 -19z"/>
<path d="M3880 8299 c0 -57 17 -66 22 -12 2 27 8 39 21 41 14 3 17 -4 17 -37
0 -23 5 -41 10 -41 14 0 12 76 -2 88 -7 5 -25 10 -40 10 -27 0 -28 -3 -28 -49z"/>
</g>
</svg>
