<?xml version="1.0" standalone="no"?>
<!DOCTYPE svg PUBLIC "-//W3C//DTD SVG 20010904//EN"
 "http://www.w3.org/TR/2001/REC-SVG-20010904/DTD/svg10.dtd">
<svg version="1.0" xmlns="http://www.w3.org/2000/svg"
 width="900.000000pt" height="600.000000pt" viewBox="0 0 900.000000 600.000000"
 preserveAspectRatio="xMidYMid meet">
<metadata>
Created by potrace 1.10, written by Peter Selinger 2001-2011
</metadata>
<g transform="translate(0.000000,600.000000) scale(0.100000,-0.100000)"
fill="#021d65" stroke="none">
<path d="M2055 4379 c-54 -5 -104 -14 -109 -19 -6 -6 -20 -10 -32 -10 -22 0
-133 -32 -169 -49 -11 -6 -45 -21 -75 -35 -181 -84 -361 -223 -473 -366 -28
-36 -54 -67 -57 -70 -3 -3 -17 -23 -30 -45 -13 -22 -27 -42 -30 -45 -11 -8
-110 -215 -110 -228 0 -7 -4 -20 -9 -30 -31 -57 -60 -204 -70 -347 -12 -181
22 -437 70 -527 5 -10 9 -23 9 -28 0 -47 143 -303 220 -395 99 -118 336 -315
378 -315 6 0 12 -3 12 -8 0 -7 33 -23 140 -70 19 -8 42 -18 50 -22 9 -4 31
-11 50 -14 19 -4 44 -11 55 -16 11 -5 45 -14 75 -20 30 -6 75 -15 100 -20 57
-11 339 -11 405 0 141 24 236 52 336 99 25 11 49 21 52 21 14 0 197 116 256
162 62 49 221 207 221 220 0 4 6 13 13 20 22 21 87 117 87 127 0 5 4 11 9 13
7 3 41 70 95 190 9 20 16 43 16 51 0 9 4 18 9 22 6 3 13 27 17 53 3 26 10 52
15 57 12 16 33 200 33 300 0 96 -21 294 -34 310 -4 6 -11 31 -14 57 -4 26 -11
50 -17 53 -5 4 -9 13 -9 22 0 25 -97 235 -112 241 -4 2 -8 10 -8 17 0 8 -6 20
-12 27 -7 7 -30 38 -51 69 -36 54 -157 183 -227 244 -63 54 -190 134 -278 176
-48 23 -94 45 -102 49 -9 4 -31 11 -50 15 -19 4 -39 11 -45 15 -5 5 -32 13
-60 19 -27 5 -70 15 -95 20 -68 15 -332 21 -445 10z m330 -49 c122 -16 209
-31 220 -39 5 -5 27 -12 49 -15 21 -4 46 -11 55 -16 9 -5 39 -19 66 -30 75
-31 118 -54 133 -67 7 -7 18 -13 23 -13 15 0 137 -87 189 -134 92 -85 150
-148 200 -221 19 -27 38 -51 43 -53 4 -2 7 -8 7 -14 0 -6 13 -32 28 -57 16
-25 39 -73 52 -106 13 -33 27 -64 31 -70 4 -5 10 -26 14 -45 4 -19 11 -39 15
-45 8 -10 25 -95 40 -205 11 -83 12 -236 0 -320 -13 -99 -30 -183 -39 -200 -5
-9 -12 -31 -16 -50 -4 -19 -11 -41 -16 -50 -12 -22 -49 -108 -49 -114 0 -7
-92 -159 -100 -166 -3 -3 -14 -18 -24 -34 -10 -16 -55 -68 -100 -114 -159
-165 -349 -287 -546 -347 -30 -9 -66 -21 -80 -26 -82 -30 -384 -48 -495 -29
-134 23 -247 49 -260 61 -5 5 -15 9 -23 9 -19 0 -228 95 -242 111 -3 3 -23 16
-45 29 -22 13 -45 29 -52 35 -6 5 -26 21 -45 35 -53 39 -185 179 -225 239 -21
31 -42 61 -48 67 -5 6 -19 28 -30 50 -11 21 -23 41 -28 42 -4 2 -7 8 -7 14 0
6 -9 29 -19 52 -36 78 -51 114 -51 125 0 6 -4 19 -10 29 -14 27 -30 106 -47
237 -13 100 -14 145 -5 270 7 83 16 164 21 180 6 17 20 62 31 100 89 292 301
561 565 717 52 30 157 82 220 108 151 62 417 93 600 70z"/>
<path d="M2183 4253 c-9 -3 -13 -26 -13 -68 0 -72 6 -95 26 -95 11 0 14 18 14
79 0 80 -4 92 -27 84z"/>
<path d="M2250 4245 c-13 -16 -11 -17 44 -30 l29 -6 -42 -43 c-56 -57 -52 -78
13 -89 59 -10 76 -4 76 23 0 19 -5 22 -40 24 -24 2 -17 21 23 65 20 22 37 44
37 49 0 23 -122 29 -140 7z"/>
<path d="M2012 4238 c-32 -32 -4 -61 38 -38 17 9 18 7 9 -22 -5 -17 -13 -34
-17 -37 -5 -3 -12 -16 -16 -28 -4 -13 -12 -23 -17 -23 -14 0 -60 51 -70 77
-10 27 -53 40 -74 23 -11 -9 -15 -34 -15 -91 0 -43 4 -80 8 -83 11 -7 27 5 41
32 8 15 21 22 41 22 17 0 30 -4 30 -10 0 -14 27 -13 32 2 3 7 27 11 70 9 53
-2 67 1 72 14 10 26 -2 34 -40 28 l-36 -6 30 49 c49 79 47 88 -18 92 -34 2
-60 -2 -68 -10z"/>
<path d="M2503 4196 c-54 -47 -28 -151 39 -157 43 -4 55 1 66 25 13 30 -8 42
-39 23 -17 -10 -22 -9 -35 7 -18 26 -17 36 7 65 l20 24 27 -26 c22 -21 31 -24
40 -15 18 18 15 35 -10 58 -30 28 -80 26 -115 -4z"/>
<path d="M2678 4139 c-10 -17 -18 -36 -18 -44 0 -7 -7 -18 -15 -25 -18 -15
-20 -60 -2 -60 6 0 24 14 38 31 35 43 52 32 43 -28 -6 -40 -4 -45 11 -41 10 1
26 19 36 38 10 19 23 41 29 48 6 7 12 25 13 39 2 34 -28 44 -38 13 -5 -15 -14
-20 -28 -18 -18 2 -22 10 -22 38 0 45 -24 50 -47 9z"/>
<path d="M1617 4094 c-8 -9 60 -137 79 -147 8 -5 27 -1 47 10 50 28 56 34 50
49 -7 18 -33 18 -59 -1 -20 -13 -22 -11 -42 29 -12 24 -22 48 -22 55 0 12 -42
16 -53 5z"/>
<path d="M2890 4052 c-14 -9 -27 -19 -30 -22 -3 -3 -22 -16 -42 -30 -53 -35
-51 -59 5 -57 40 2 42 0 45 -28 2 -16 7 -34 12 -39 11 -11 38 42 55 108 12 46
12 53 -3 68 -16 15 -19 15 -42 0z m5 -72 c-5 -8 -11 -8 -17 -2 -6 6 -7 16 -3
22 5 8 11 8 17 2 6 -6 7 -16 3 -22z"/>
<path d="M1544 4036 c-5 -13 28 -72 49 -87 15 -11 2 -44 -18 -47 -14 -2 -27 9
-45 38 -27 43 -57 60 -71 39 -5 -8 7 -31 34 -63 22 -28 42 -53 44 -55 9 -12
65 1 84 20 29 29 27 55 -11 117 -31 52 -56 65 -66 38z"/>
<path d="M2050 3994 c-213 -57 -331 -118 -474 -246 -60 -53 -186 -212 -186
-234 0 -7 -3 -14 -7 -16 -12 -5 -50 -87 -68 -148 -9 -30 -21 -66 -26 -79 -15
-36 -23 -317 -11 -381 13 -68 31 -138 42 -165 5 -11 18 -41 29 -67 12 -26 21
-52 21 -57 0 -6 4 -11 9 -11 5 0 13 -10 16 -21 20 -63 216 -278 302 -332 90
-56 209 -112 263 -122 19 -4 40 -11 45 -15 6 -4 60 -13 121 -19 164 -18 328 2
469 56 78 30 190 90 222 118 6 5 26 21 45 35 94 70 212 216 268 330 12 25 25
52 30 60 4 9 11 31 15 50 4 19 10 40 14 45 11 18 32 148 38 235 5 81 -16 249
-37 290 -4 9 -11 30 -15 49 -4 18 -13 44 -21 59 -8 15 -14 30 -14 34 0 3 -24
46 -52 95 -72 120 -212 260 -331 331 -49 29 -91 52 -94 52 -3 0 -19 6 -36 14
-45 20 -93 36 -162 54 -84 22 -341 25 -415 6z m305 -35 c5 -5 34 -9 65 -9 34
0 64 -6 76 -15 10 -8 33 -15 50 -15 17 0 37 -7 44 -15 7 -8 23 -15 35 -15 12
0 28 -7 35 -15 7 -8 19 -15 26 -15 42 0 304 -223 304 -259 0 -5 7 -11 15 -15
8 -3 15 -12 15 -20 0 -8 3 -16 8 -18 13 -6 52 -67 52 -81 0 -8 7 -20 15 -27 8
-7 15 -23 15 -35 0 -12 7 -28 15 -35 8 -7 15 -27 15 -44 0 -17 7 -40 15 -50
10 -14 15 -45 15 -100 0 -101 -18 -91 -27 15 -3 41 -12 83 -19 94 -8 11 -14
29 -14 41 0 12 -7 35 -14 51 -8 15 -18 35 -21 43 -3 8 -14 29 -25 45 -11 17
-23 37 -27 45 -11 24 -93 129 -128 165 -51 50 -166 135 -212 154 -11 6 -24 15
-28 20 -3 6 -17 11 -29 11 -13 0 -29 7 -36 15 -7 8 -25 15 -39 15 -15 0 -36 7
-47 15 -10 8 -39 15 -64 15 -25 1 -63 7 -85 15 -47 17 -168 20 -196 4 -11 -6
-50 -14 -87 -18 -79 -10 -126 -26 -242 -81 -64 -31 -79 -40 -137 -83 -59 -43
-203 -194 -203 -212 0 -7 -6 -17 -13 -23 -6 -6 -27 -41 -45 -79 -18 -37 -40
-81 -48 -96 -8 -16 -14 -41 -14 -55 0 -15 -7 -40 -15 -56 -11 -22 -15 -66 -15
-186 0 -120 4 -164 15 -186 8 -16 15 -46 15 -66 0 -21 4 -38 10 -38 5 0 12
-12 16 -27 5 -26 63 -152 74 -163 3 -3 19 -25 35 -49 34 -51 169 -191 184
-191 6 0 14 -6 18 -12 9 -14 37 -33 70 -47 11 -6 24 -15 28 -20 3 -6 15 -11
26 -11 11 0 22 -7 25 -15 4 -8 17 -15 29 -15 13 0 30 -7 39 -15 8 -8 26 -15
39 -15 32 0 57 -9 57 -21 0 -15 -68 -10 -84 6 -8 8 -26 15 -39 15 -14 0 -30 7
-37 15 -7 8 -20 15 -29 15 -9 0 -22 5 -28 11 -13 13 -47 33 -80 48 -13 6 -23
15 -23 21 0 5 -6 10 -13 10 -7 0 -45 33 -84 72 -101 103 -113 117 -113 128 0
6 -5 10 -10 10 -6 0 -15 10 -20 23 -6 12 -21 40 -35 62 -13 22 -24 46 -25 53
0 7 -7 20 -15 28 -8 9 -15 25 -15 37 0 12 -7 31 -15 41 -8 11 -15 36 -15 57 0
20 -7 50 -15 65 -11 22 -15 65 -15 174 0 109 4 152 15 174 8 15 15 43 15 60 0
18 7 41 15 52 8 10 15 27 15 37 0 11 6 31 14 45 8 15 17 34 21 42 13 33 83
140 114 174 56 62 171 166 184 166 5 0 23 11 40 23 40 30 113 67 131 67 7 0
19 7 26 15 7 8 27 15 44 15 18 0 38 6 44 12 7 7 41 16 75 20 34 4 85 11 112
17 55 10 165 4 180 -10z m70 -79 c79 -17 126 -30 143 -39 9 -6 40 -20 67 -33
28 -13 52 -25 55 -29 3 -3 23 -16 45 -29 57 -34 178 -154 223 -219 20 -31 39
-58 42 -61 3 -3 13 -21 22 -40 40 -83 58 -130 58 -152 0 -13 6 -30 13 -36 9
-10 12 -63 12 -197 0 -134 -3 -187 -12 -196 -7 -7 -13 -24 -13 -37 0 -25 -12
-56 -63 -162 -59 -123 -162 -236 -292 -322 -73 -48 -154 -88 -177 -88 -8 0
-18 -4 -23 -9 -6 -5 -32 -14 -60 -20 -27 -5 -70 -15 -95 -20 -55 -12 -199 -13
-260 -1 -94 19 -140 30 -157 38 -10 5 -36 17 -58 27 -54 25 -154 85 -184 110
-76 63 -108 96 -161 167 -33 44 -60 86 -60 94 0 8 -4 14 -10 14 -5 0 -10 6
-10 13 -1 6 -9 30 -20 52 -11 22 -19 47 -20 55 0 9 -4 20 -9 25 -19 20 -34
133 -34 260 0 130 8 195 36 276 16 45 76 170 86 179 3 3 19 24 35 48 38 55
146 157 216 203 76 50 205 109 237 109 10 0 23 4 29 9 5 5 23 11 39 14 57 8
320 6 360 -3z m745 -968 c0 -53 -5 -84 -15 -98 -8 -10 -15 -32 -15 -47 0 -16
-6 -41 -14 -55 -7 -15 -23 -47 -35 -72 -12 -25 -31 -58 -41 -75 -11 -16 -24
-40 -29 -51 -21 -47 -231 -244 -260 -244 -6 0 -11 -4 -11 -9 0 -5 -12 -14 -27
-20 -16 -6 -35 -15 -43 -19 -47 -28 -80 -42 -98 -42 -11 0 -25 -7 -32 -15 -7
-9 -30 -15 -54 -15 -22 0 -50 -7 -60 -15 -16 -12 -56 -15 -192 -15 -95 0 -179
3 -188 6 -43 16 1 21 185 21 149 0 203 4 209 13 4 7 28 15 54 17 25 3 51 12
57 19 6 8 22 14 34 14 12 0 28 7 35 15 7 8 21 15 31 15 10 0 21 5 24 11 4 5
17 14 28 20 105 45 296 244 338 352 6 15 15 27 20 27 5 0 9 10 9 23 0 13 7 32
15 43 8 10 15 31 15 45 0 14 7 34 15 45 8 10 15 35 15 55 0 59 12 129 21 129
5 0 9 -35 9 -78z"/>
<path d="M2085 3790 c-3 -5 -3 -32 1 -60 6 -42 4 -50 -10 -50 -9 0 -16 8 -16
19 0 25 -32 81 -46 81 -6 0 -17 -6 -23 -14 -10 -11 -7 -18 11 -30 18 -13 20
-18 9 -25 -7 -5 -11 -17 -7 -27 3 -11 1 -26 -4 -34 -7 -12 -13 -11 -37 10 -15
14 -36 34 -45 45 -16 19 -18 19 -34 3 -16 -16 -16 -18 9 -29 15 -7 27 -18 27
-25 0 -7 10 -20 22 -28 22 -16 22 -17 5 -46 -18 -30 -16 -50 6 -50 16 0 43 31
52 59 3 12 18 23 33 27 15 3 36 10 47 16 10 6 42 14 70 17 54 7 54 7 40 76 -3
17 -8 40 -11 53 -2 12 -11 22 -19 22 -10 0 -15 -15 -17 -55 -2 -30 -7 -55 -13
-55 -5 0 -11 25 -13 55 -2 39 -7 55 -17 55 -8 0 -17 -4 -20 -10z"/>
<path d="M2300 3756 c0 -8 5 -18 10 -21 16 -10 12 -35 -7 -42 -34 -12 -44 -25
-32 -39 8 -10 28 -11 76 -7 54 5 68 3 78 -10 16 -22 95 -39 112 -25 23 19 15
38 -17 38 -20 0 -30 5 -30 15 0 10 10 14 38 12 27 -1 37 2 37 13 0 22 -50 36
-85 23 -24 -9 -29 -8 -33 8 -7 27 -20 23 -41 -12 -21 -36 -40 -33 -44 7 -3 30
-25 54 -49 54 -7 0 -13 -6 -13 -14z"/>
<path d="M2691 3677 c-9 -11 -8 -17 4 -27 18 -15 20 -30 3 -30 -7 0 -32 -7
-55 -16 -46 -18 -56 -39 -23 -49 35 -11 190 -190 190 -219 0 -9 5 -25 12 -35
9 -15 9 -25 0 -45 -11 -25 -10 -26 18 -26 23 0 30 -4 30 -20 0 -24 -8 -25 -31
-4 -25 23 -52 11 -43 -18 9 -33 22 -46 47 -50 19 -3 22 -9 22 -48 0 -40 3 -45
24 -48 12 -2 34 -1 48 3 19 4 24 11 21 33 -2 19 -9 28 -25 30 -32 5 -30 39 2
54 14 6 25 16 25 22 0 15 -32 42 -59 51 -24 7 -27 26 -9 55 11 16 9 22 -6 33
-11 8 -17 21 -13 30 3 9 -1 18 -9 21 -8 3 -20 19 -25 36 -7 18 -18 30 -29 30
-21 0 -54 46 -46 65 3 9 -7 18 -30 25 -18 6 -34 14 -34 17 0 4 12 21 26 40 29
38 28 69 -2 90 -18 11 -23 11 -33 0z"/>
<path d="M1836 3625 c-18 -14 -18 -16 -3 -33 10 -10 14 -22 10 -25 -12 -13
-44 -7 -49 8 -6 16 -49 21 -58 7 -3 -5 6 -20 20 -35 17 -19 35 -27 58 -27 38
0 40 -15 7 -59 l-19 -25 -22 43 c-17 35 -25 42 -42 37 -13 -3 -26 1 -33 11
-15 20 -48 10 -43 -14 2 -9 12 -20 23 -23 55 -15 95 -67 65 -85 -16 -10 -12
-45 5 -45 17 0 65 46 65 62 0 5 11 13 25 18 14 5 30 21 37 35 6 14 15 25 20
25 14 0 9 30 -8 47 -9 9 -13 25 -10 36 5 21 -9 57 -22 57 -4 0 -16 -7 -26 -15z"/>
<path d="M2360 3615 c-13 -16 -6 -35 14 -35 8 0 19 6 25 14 10 12 8 17 -7 25
-15 8 -23 7 -32 -4z"/>
<path d="M2115 3485 c-16 -7 -37 -16 -45 -20 -59 -24 -162 -125 -196 -190 -11
-22 -29 -74 -39 -116 -16 -66 -17 -83 -6 -130 7 -30 15 -68 18 -86 3 -18 11
-38 19 -44 8 -6 14 -19 14 -29 0 -30 122 -142 196 -180 66 -34 71 -35 184 -35
112 0 117 1 183 35 42 21 90 57 126 95 66 68 82 101 55 112 -11 4 -19 2 -22
-6 -9 -28 -89 -94 -140 -117 -119 -52 -267 -19 -357 81 -47 51 -66 88 -90 169
-16 56 -16 62 1 130 10 39 24 78 31 87 7 8 13 20 13 26 0 16 101 113 118 113
9 0 24 7 34 16 14 13 39 17 115 17 87 1 104 -2 155 -27 32 -15 60 -32 64 -37
4 -6 11 -6 20 2 13 10 9 17 -21 46 -20 18 -61 45 -93 59 -31 13 -65 29 -74 34
-27 15 -228 11 -263 -5z"/>
<path d="M1555 3401 c-3 -5 -1 -12 5 -16 17 -11 11 -25 -16 -36 l-27 -10 23
-24 c14 -15 36 -25 58 -27 44 -4 56 -28 14 -28 -21 0 -35 -8 -46 -25 -15 -23
-15 -25 4 -35 26 -14 25 -23 -2 -35 -30 -13 -32 -51 -3 -47 60 10 70 8 73 -20
4 -35 28 -36 36 -2 5 17 2 32 -9 43 -17 20 -20 67 -5 76 6 3 10 17 10 30 0 13
6 30 13 37 39 39 20 98 -32 98 -16 0 -34 7 -41 15 -14 17 -46 20 -55 6z m103
-68 c2 -9 -8 -13 -32 -13 -34 0 -52 11 -39 24 11 11 66 2 71 -11z"/>
<path d="M2559 3272 c-9 -9 -27 -32 -40 -50 -20 -28 -28 -33 -52 -28 -16 3
-40 15 -54 26 -28 21 -48 25 -57 11 -7 -10 43 -91 56 -91 4 0 8 -10 8 -22 -1
-15 -16 -34 -45 -56 -27 -19 -45 -41 -45 -52 0 -24 26 -26 54 -5 11 8 36 15
57 15 30 0 38 -4 42 -22 30 -122 67 -132 67 -19 0 26 5 52 12 59 7 7 39 12 75
12 39 0 63 4 63 11 0 17 -42 48 -65 49 -56 1 -81 56 -50 110 30 53 11 91 -26
52z"/>
<path d="M1544 3065 c-7 -18 12 -45 32 -45 18 0 35 -35 28 -55 -7 -16 -77 -55
-101 -55 -20 0 -27 -28 -13 -45 14 -17 40 -3 40 21 0 20 24 17 45 -6 10 -11
26 -20 36 -20 29 0 41 35 36 112 -3 59 -8 74 -27 90 -27 22 -68 24 -76 3z"/>
<path d="M1671 3021 c-19 -12 -6 -43 16 -39 10 2 18 12 18 22 0 22 -14 29 -34
17z"/>
<path d="M2864 2973 c-3 -10 -10 -26 -15 -36 -14 -26 6 -47 43 -47 16 0 36 -7
44 -15 12 -11 20 -12 35 -5 18 10 18 12 3 34 -8 13 -26 27 -39 30 -14 4 -25
15 -27 28 -4 28 -36 36 -44 11z"/>
<path d="M1672 2837 c-6 -7 -9 -22 -6 -34 4 -15 -3 -25 -30 -41 -42 -25 -51
-70 -16 -79 14 -4 20 -14 20 -32 0 -31 16 -51 42 -51 22 0 23 13 3 30 -22 18
-18 47 6 61 19 10 25 7 44 -17 21 -27 22 -30 8 -47 -20 -22 -8 -35 17 -19 28
17 44 15 64 -7 17 -19 17 -21 -8 -46 -27 -27 -35 -65 -13 -65 15 1 47 24 47
36 0 5 12 22 26 38 24 27 27 28 42 13 15 -15 14 -19 -10 -44 -37 -40 -52 -73
-40 -85 17 -17 42 -1 42 27 0 30 35 48 61 32 19 -12 12 -31 -25 -74 -10 -12
-16 -29 -13 -37 9 -23 38 -20 44 4 3 11 9 20 13 20 4 0 11 11 14 25 4 14 11
25 16 25 6 0 10 15 10 33 0 25 -6 36 -28 49 -16 10 -37 35 -47 58 -18 39 -49
54 -58 28 -6 -20 -60 3 -72 29 -5 12 -19 24 -32 28 -13 3 -25 16 -29 30 -3 14
-17 34 -31 45 -13 10 -23 27 -21 37 5 36 -20 55 -40 30z m28 -92 c0 -25 -23
-35 -35 -15 -10 16 2 40 20 40 9 0 15 -9 15 -25z"/>
<path d="M2800 2793 c-20 -5 -80 -86 -80 -106 0 -20 35 -57 53 -57 7 0 22 -7
33 -15 20 -15 56 -20 67 -8 11 11 -34 53 -57 53 -35 0 -50 15 -38 37 18 33 44
48 81 48 52 0 54 28 3 43 -22 7 -41 11 -43 11 -2 -1 -11 -3 -19 -6z"/>
<path d="M2667 2653 c-4 -3 -7 -15 -7 -25 0 -20 -20 -24 -38 -6 -8 8 -14 5
-23 -15 -7 -15 -20 -27 -30 -27 -10 0 -22 -6 -26 -14 -4 -8 -21 -16 -38 -18
-23 -2 -31 -9 -33 -27 -3 -20 -7 -22 -30 -16 -53 15 -101 10 -116 -10 -15 -20
-15 -20 -31 3 -17 24 -54 30 -56 10 -9 -105 14 -208 46 -208 17 0 21 65 5 75
-12 7 -14 95 -2 95 16 -1 42 -74 42 -120 0 -55 17 -67 44 -29 13 19 13 24 0
45 -23 35 -15 60 19 56 19 -3 27 1 27 12 0 11 -9 16 -31 16 -17 0 -28 4 -24
10 8 12 52 13 57 1 2 -4 13 -11 25 -15 18 -6 25 -2 35 19 7 16 17 24 26 20 7
-3 35 13 61 35 26 22 54 40 63 40 19 0 48 -31 48 -52 0 -22 24 -40 44 -32 9 3
16 8 16 11 0 10 -24 49 -42 70 -11 12 -17 26 -13 32 11 19 34 12 51 -18 17
-30 57 -55 68 -44 18 18 -5 53 -50 79 -10 6 -23 20 -29 32 -9 21 -44 30 -58
15z"/>
<path d="M2098 2508 c-35 -38 -37 -43 -22 -59 9 -10 15 -31 13 -51 -4 -56 0
-66 27 -72 34 -9 40 -2 24 29 -10 20 -11 28 -2 37 17 17 15 73 -3 88 -18 15
-11 25 18 25 30 0 34 31 6 38 -18 5 -31 -3 -61 -35z"/>
<path d="M2570 2468 c0 -6 -7 -19 -16 -29 -10 -11 -14 -25 -10 -35 6 -15 11
-12 36 17 34 40 38 59 10 59 -11 0 -20 -5 -20 -12z"/>
<path d="M3010 3956 c-44 -42 -76 -81 -83 -99 -9 -24 22 -36 35 -14 10 18 43
23 52 8 3 -5 -1 -14 -9 -21 -20 -17 -20 -60 0 -60 9 0 20 11 24 24 5 12 26 33
45 44 53 31 47 67 -20 124 -19 17 -21 16 -44 -6z m48 -60 c3 -13 -1 -17 -14
-14 -11 2 -20 11 -22 22 -3 13 1 17 14 14 11 -2 20 -11 22 -22z"/>
<path d="M1358 3883 c-21 -23 -33 -44 -30 -53 9 -24 94 -100 112 -100 28 0 74
74 66 106 -9 33 -64 84 -91 84 -12 0 -37 -17 -57 -37z m83 -23 c13 -8 19 -21
19 -45 0 -44 -17 -45 -61 -4 -32 30 -33 32 -14 45 23 17 30 17 56 4z"/>
<path d="M3098 3804 c-32 -30 -48 -53 -48 -70 0 -35 15 -30 65 22 l44 47 20
-24 c23 -29 16 -46 -33 -80 -33 -22 -45 -47 -30 -62 9 -9 55 16 78 42 15 17
26 20 53 15 18 -3 33 -4 33 -1 0 13 -24 57 -30 57 -4 0 -12 11 -18 25 -7 15
-20 25 -32 25 -13 0 -22 9 -26 25 -9 35 -22 31 -76 -21z"/>
<path d="M1245 3743 c-19 -21 -35 -41 -35 -45 0 -9 18 -26 63 -62 20 -16 37
-33 37 -37 0 -5 -39 -10 -87 -11 -80 -3 -88 -5 -91 -24 -2 -14 16 -38 57 -77
33 -31 64 -57 71 -57 19 0 23 29 6 45 -9 9 -16 20 -16 25 0 9 21 32 48 52 34
25 102 115 102 135 0 20 -29 53 -47 53 -5 0 -18 9 -28 20 -26 28 -41 25 -80
-17z m62 -37 c-4 -9 -16 -16 -27 -16 -24 0 -25 8 -3 32 19 21 40 9 30 -16z
m53 -25 c0 -17 -18 -31 -41 -31 -14 0 -11 38 4 43 25 11 37 7 37 -12z m-136
-127 c20 -8 11 -24 -15 -24 -19 0 -25 11 -12 23 8 8 8 8 27 1z"/>
<path d="M3212 3621 c-34 -3 -62 -9 -62 -13 0 -5 0 -12 0 -18 0 -5 8 -10 18
-10 39 -1 71 -57 42 -75 -14 -8 -13 -35 1 -35 19 0 129 101 129 119 0 24 -20
41 -44 39 -12 -1 -49 -4 -84 -7z m69 -46 c0 -5 -9 -11 -21 -13 -20 -3 -27 8
-13 22 10 9 34 3 34 -9z"/>
<path d="M3336 3485 c-11 -8 -29 -15 -41 -15 -29 0 -65 -28 -65 -50 0 -29 40
-90 59 -90 10 0 41 11 69 25 48 23 52 28 52 60 0 38 -25 85 -44 85 -6 0 -20
-7 -30 -15z m37 -51 c3 -3 3 -12 0 -20 -4 -10 -10 -11 -24 -3 -11 5 -17 14
-14 20 7 10 28 12 38 3z m-53 -34 c0 -21 -16 -26 -39 -11 -18 11 -5 31 20 31
12 0 19 -7 19 -20z"/>
<path d="M1064 3375 c-3 -19 -10 -38 -15 -41 -5 -3 -9 -13 -9 -23 0 -32 133
-70 164 -48 23 17 28 102 6 102 -9 0 -17 -13 -20 -33 -7 -47 -24 -44 -28 6 -4
48 -29 59 -34 15 -6 -48 -28 -39 -28 11 0 57 -26 65 -36 11z"/>
<path d="M3355 3304 l-70 -22 2 -47 c3 -76 35 -91 37 -18 l2 38 52 5 c50 5 71
19 72 46 0 21 -24 21 -95 -2z"/>
<path d="M1041 3227 c-15 -15 -1 -37 25 -37 15 0 24 -6 24 -15 0 -8 1 -18 2
-22 1 -5 -11 -10 -28 -13 -23 -4 -29 -10 -29 -30 0 -24 2 -25 78 -28 70 -3 78
-1 75 15 -2 9 -14 20 -28 23 -18 4 -25 13 -25 30 0 22 4 25 28 22 25 -3 28 -1
25 19 -3 20 -12 24 -71 34 -41 7 -71 7 -76 2z"/>
<path d="M3347 3160 c-48 -14 -59 -30 -52 -69 10 -61 16 -71 37 -71 17 0 19 5
16 43 -2 32 0 42 12 42 10 0 16 -12 18 -32 5 -46 32 -45 32 1 0 19 4 37 9 40
11 7 21 -17 21 -50 0 -14 6 -24 14 -24 23 0 28 17 21 75 l-7 55 -47 -1 c-25 0
-59 -5 -74 -9z"/>
<path d="M1019 3048 c-1 -2 -2 -27 -4 -56 -1 -44 2 -55 18 -64 16 -8 23 -6 36
10 12 15 30 22 66 24 46 3 50 5 53 31 3 27 3 27 -56 27 -41 0 -63 5 -72 15
-11 13 -37 21 -41 13z"/>
<path d="M3307 2919 c-8 -13 -17 -41 -20 -61 -5 -30 -2 -40 13 -48 28 -15 38
-12 53 15 l13 26 19 -21 c23 -25 40 -25 65 0 38 38 14 90 -45 97 -11 1 -34 5
-52 9 -26 5 -34 2 -46 -17z"/>
<path d="M1137 2815 c-25 -19 -50 -35 -56 -35 -18 0 -25 -50 -10 -65 16 -16
155 -30 163 -17 3 5 -6 19 -19 30 -29 25 -33 67 -8 80 19 11 11 42 -10 42 -8
0 -35 -16 -60 -35z m9 -82 c-11 -11 -17 4 -9 23 7 18 8 18 11 1 2 -10 1 -21
-2 -24z"/>
<path d="M3261 2707 c-18 -18 -13 -44 9 -50 15 -4 20 -14 20 -41 0 -42 16 -47
30 -10 14 35 32 20 28 -24 -2 -28 1 -37 14 -40 11 -2 18 6 23 27 4 17 11 33
16 36 5 4 9 17 9 30 0 18 -7 26 -27 31 -16 4 -47 17 -70 29 -30 16 -44 20 -52
12z"/>
<path d="M1195 2660 c-81 -22 -90 -27 -90 -46 0 -16 6 -18 39 -16 l40 4 -28
-37 c-37 -47 -29 -70 21 -60 20 3 46 13 59 22 13 8 31 13 39 9 20 -7 11 -25
-39 -81 -40 -45 -42 -51 -21 -80 14 -17 18 -18 48 -6 17 8 49 16 70 18 29 4
37 2 37 -11 0 -9 -3 -16 -7 -16 -13 0 -83 -68 -83 -79 0 -17 41 -13 61 5 16
14 18 14 29 -7 11 -19 9 -24 -10 -39 -24 -18 -20 -40 8 -40 17 0 122 95 122
111 0 17 -20 18 -49 2 -24 -14 -33 -15 -42 -6 -10 10 -9 19 8 41 l20 27 -31
29 c-17 15 -42 34 -57 41 -21 11 -25 19 -21 43 3 21 -3 40 -19 61 -19 26 -28
31 -51 26 -34 -8 -36 6 -8 42 15 20 17 29 9 39 -13 15 -12 15 -54 4z m115
-220 c0 -12 -28 -25 -36 -17 -9 9 6 27 22 27 8 0 14 -5 14 -10z"/>
<path d="M3183 2548 c-28 -32 -34 -54 -23 -83 9 -24 79 -75 102 -75 20 1 57
35 67 64 12 31 -4 86 -25 86 -8 0 -17 7 -20 15 -10 24 -77 19 -101 -7z m86
-37 c31 -24 25 -55 -12 -59 -47 -6 -75 36 -45 66 16 16 29 15 57 -7z"/>
<path d="M3073 2396 c-36 -38 -30 -65 29 -117 29 -26 58 -45 65 -42 26 10 13
43 -26 67 -48 30 -58 45 -40 57 23 14 37 10 72 -21 19 -16 39 -30 45 -30 8 0
22 22 22 35 0 9 -111 75 -127 75 -10 0 -28 -11 -40 -24z"/>
<path d="M2993 2295 c-3 -9 2 -22 12 -29 27 -20 11 -36 -26 -26 -66 19 -76
-10 -24 -67 19 -21 35 -41 35 -44 0 -3 11 -11 25 -17 21 -10 27 -9 32 5 4 9
-1 21 -10 28 -38 27 -1 49 43 25 15 -8 21 -6 28 7 8 13 -1 29 -41 75 -55 62
-64 67 -74 43z"/>
<path d="M1486 2246 c-28 -23 -28 -24 -11 -50 22 -33 33 -33 46 1 9 24 11 25
26 10 15 -15 15 -18 -1 -42 -9 -14 -24 -29 -32 -32 -14 -5 -48 25 -57 50 -6
18 -27 -3 -27 -27 0 -28 35 -62 73 -71 24 -6 33 -2 67 34 22 23 40 51 40 63 0
22 -63 88 -84 88 -6 -1 -24 -11 -40 -24z"/>
<path d="M2853 2185 c-66 -28 -72 -90 -13 -146 36 -34 42 -37 62 -26 76 41 97
70 59 82 -11 3 -24 18 -30 33 -5 15 -18 37 -28 49 -17 20 -21 21 -50 8z m47
-80 c19 -34 17 -45 -8 -45 -20 0 -56 55 -47 71 11 18 38 5 55 -26z"/>
<path d="M1677 2076 c-8 -21 7 -68 24 -79 25 -15 73 35 65 68 -5 21 -12 25
-45 25 -24 0 -41 -5 -44 -14z"/>
<path d="M1885 2038 c-33 -18 -45 -40 -45 -84 0 -34 5 -47 26 -63 28 -22 69
-27 94 -11 9 6 14 24 14 50 -1 28 3 40 12 40 34 0 5 54 -37 69 -38 13 -39 13
-64 -1z m72 -54 c2 -6 -6 -14 -18 -17 -19 -5 -20 -8 -9 -22 16 -19 0 -41 -25
-32 -23 9 -29 35 -16 63 8 19 17 25 38 22 14 -2 28 -8 30 -14z"/>
<path d="M2558 2039 c-15 -8 -18 -25 -18 -94 0 -66 3 -85 14 -85 8 0 17 11 20
25 7 26 31 32 71 16 24 -10 45 -4 45 13 0 6 -13 25 -28 43 -15 17 -38 46 -51
62 -26 34 -28 35 -53 20z m42 -81 c0 -5 -7 -8 -15 -8 -15 0 -20 21 -8 33 7 7
23 -11 23 -25z"/>
<path d="M2454 2008 c-4 -7 -7 -25 -6 -40 2 -19 -2 -28 -13 -28 -8 0 -15 6
-15 13 0 19 -33 47 -54 47 -15 0 -16 -8 -10 -77 6 -76 16 -104 31 -89 4 4 7
23 8 43 0 20 6 38 13 40 6 3 12 -1 12 -9 0 -7 11 -26 24 -43 23 -28 26 -29 42
-13 14 14 15 22 5 49 -6 17 -11 49 -11 70 0 40 -13 58 -26 37z"/>
<path d="M2022 1958 c-6 -29 -14 -66 -18 -81 -6 -27 -5 -28 22 -25 21 2 30 10
34 28 4 16 13 25 25 25 16 0 19 -6 17 -33 -2 -23 2 -34 13 -38 25 -10 32 5 39
89 6 72 6 77 -13 77 -14 0 -21 -8 -23 -27 -2 -22 -8 -28 -28 -28 -21 0 -25 5
-25 30 0 19 -6 31 -16 33 -13 2 -19 -9 -27 -50z"/>
<path d="M2227 1971 c-9 -16 -17 -38 -17 -48 0 -11 -7 -28 -15 -39 -17 -22
-20 -64 -4 -64 6 0 22 9 36 19 25 20 52 18 66 -6 4 -7 15 -13 24 -13 17 0 15
28 -7 90 -33 92 -55 108 -83 61z m37 -65 c-6 -16 -8 -17 -16 -2 -11 19 0 42
13 29 6 -6 7 -18 3 -27z"/>
<path d="M5443 4011 c-29 -4 -58 -12 -65 -19 -6 -6 -19 -12 -27 -12 -35 -1
-141 -136 -141 -180 0 -9 -7 -34 -16 -55 -23 -57 -22 -505 2 -579 54 -165 110
-218 261 -246 154 -28 298 38 348 160 27 64 35 91 37 130 l3 45 -105 0 -105 0
-5 -53 c-4 -37 -13 -62 -33 -87 -25 -31 -33 -35 -75 -35 -109 1 -152 110 -152
386 0 212 28 326 90 372 46 34 92 29 135 -15 33 -34 35 -40 35 -100 0 -49 4
-65 16 -70 9 -3 55 -2 102 3 l87 9 3 57 c2 37 -2 68 -13 87 -8 17 -15 39 -15
50 0 25 -74 101 -125 127 -45 24 -159 35 -242 25z"/>
<path d="M3744 4001 c-2 -2 -4 -42 -4 -87 l0 -83 111 -3 110 -3 -2 -390 c-1
-214 -3 -415 -3 -445 l-1 -55 103 -3 103 -3 -1 448 -1 448 106 3 106 3 -3 85
-3 86 -308 1 c-170 1 -311 0 -313 -2z"/>
<path d="M4615 4000 c-1 -3 -10 -41 -19 -85 -9 -44 -21 -98 -27 -120 -6 -22
-14 -62 -19 -90 -5 -27 -14 -70 -20 -95 -23 -91 -33 -136 -40 -187 -5 -28 -12
-58 -16 -65 -5 -7 -12 -35 -15 -63 -4 -27 -12 -69 -18 -92 -27 -104 -33 -130
-40 -168 -4 -22 -13 -50 -19 -62 -23 -41 -17 -44 91 -41 l102 3 2 40 c3 38 19
139 30 178 4 15 19 17 128 17 142 0 129 11 145 -128 5 -46 14 -90 21 -98 8
-10 37 -14 106 -14 l94 0 -7 48 c-3 26 -13 59 -20 74 -8 15 -14 41 -14 58 0
17 -5 41 -11 52 -6 11 -15 44 -19 72 -5 28 -13 70 -19 94 -6 23 -16 61 -22 85
-6 23 -14 65 -19 93 -4 28 -13 61 -19 72 -6 11 -11 37 -11 57 0 19 -7 52 -15
72 -8 19 -15 49 -15 65 0 16 -7 45 -15 65 -8 19 -15 53 -15 74 0 36 -17 88
-29 90 -32 3 -234 3 -236 -1z m149 -232 c3 -13 7 -59 10 -103 6 -97 19 -179
41 -263 9 -34 13 -67 10 -72 -3 -6 -46 -10 -96 -10 -99 0 -106 6 -74 66 8 16
15 43 15 61 0 18 7 58 15 90 8 31 15 79 15 106 0 94 50 191 64 125z"/>
<path d="M6163 3983 c-8 -12 -17 -48 -20 -80 -3 -32 -10 -67 -16 -77 -5 -11
-13 -45 -18 -75 -4 -31 -13 -76 -19 -101 -6 -25 -16 -63 -21 -85 -6 -22 -14
-62 -18 -90 -5 -27 -13 -63 -19 -78 -7 -16 -12 -44 -12 -63 0 -20 -5 -45 -11
-56 -6 -11 -15 -44 -19 -72 -8 -59 -27 -137 -42 -181 -6 -16 -13 -45 -15 -62
l-5 -33 90 0 c66 0 93 4 101 14 7 8 16 54 21 103 13 132 2 123 144 123 l122 0
17 -77 c9 -43 18 -96 19 -118 l3 -40 104 -3 103 -3 -5 33 c-2 18 -9 47 -15 63
-16 45 -32 114 -42 171 -4 28 -13 61 -19 72 -6 11 -11 35 -11 52 0 17 -5 40
-11 51 -6 11 -14 41 -18 67 -9 47 -20 99 -41 182 -6 25 -15 65 -19 90 -5 25
-13 65 -19 90 -6 25 -19 81 -29 124 l-18 79 -114 1 c-106 1 -115 0 -128 -21z
m141 -236 c9 -23 16 -65 16 -93 0 -27 7 -76 15 -107 8 -32 15 -72 15 -90 0
-18 7 -45 15 -61 8 -15 15 -39 15 -52 0 -24 -2 -24 -91 -24 l-91 0 5 48 c5 44
15 99 38 200 5 23 9 76 9 116 0 41 3 81 6 90 11 28 31 17 48 -27z"/>
<path d="M6770 3468 l0 -538 104 0 104 0 -6 240 -5 241 129 -3 129 -3 -4 -237
-3 -238 106 0 106 0 -2 538 -3 537 -100 0 -100 0 0 -220 0 -220 -129 -3 -129
-3 4 223 4 222 -102 1 -103 1 0 -538z"/>
<path d="M7584 4001 c-2 -2 -4 -244 -4 -538 l0 -533 106 0 106 0 -3 227 -3
228 142 -4 142 -3 0 85 c0 47 -4 88 -9 91 -5 3 -67 2 -138 -3 -70 -5 -130 -7
-132 -6 -2 2 -4 67 -5 145 l-1 140 168 0 168 0 -3 86 -3 86 -263 2 c-145 0
-266 -1 -268 -3z"/>
<path d="M3981 2696 c-8 -9 -11 -55 -9 -142 3 -121 4 -129 23 -129 18 0 20 8
23 69 3 77 20 103 54 82 14 -9 18 -24 18 -79 0 -52 4 -69 15 -74 25 -9 29 3
26 88 -2 64 -6 84 -21 99 -21 21 -70 27 -70 10 0 -5 -4 -10 -10 -10 -5 0 -10
17 -10 39 0 45 -21 69 -39 47z"/>
<path d="M5293 2698 c-5 -7 -7 -70 -5 -141 3 -102 7 -130 19 -134 8 -3 18 0
23 7 8 14 12 236 4 263 -6 20 -27 22 -41 5z"/>
<path d="M6444 2698 c-9 -14 -9 -266 0 -275 3 -3 12 -3 21 0 11 5 15 22 15 70
0 52 4 67 21 83 21 19 21 18 41 -6 16 -19 18 -33 13 -67 -7 -50 1 -83 20 -83
19 0 25 25 22 102 -2 54 -7 72 -24 88 -23 21 -73 28 -73 10 0 -5 -4 -10 -9
-10 -6 0 -11 21 -13 47 -3 46 -19 66 -34 41z"/>
<path d="M7554 2698 c-10 -16 -4 -261 6 -272 6 -6 15 -4 24 3 10 9 15 37 16
104 1 51 2 107 3 126 2 26 -3 35 -20 42 -14 5 -25 4 -29 -3z"/>
<path d="M3749 2690 c-6 -4 -9 -16 -7 -26 3 -14 12 -19 38 -18 19 0 38 -5 43
-10 4 -6 4 -46 1 -88 -8 -93 -1 -128 26 -128 27 0 33 31 25 125 -6 77 -5 84
14 94 11 6 24 11 28 10 24 -4 34 3 31 22 -3 20 -9 22 -95 24 -51 1 -98 -2
-104 -5z"/>
<path d="M4512 2684 c-12 -8 -22 -25 -22 -37 0 -12 -7 -35 -15 -51 -8 -15 -15
-36 -15 -45 0 -9 -9 -33 -20 -54 -23 -43 -25 -60 -7 -75 19 -16 36 0 52 44 11
35 17 39 49 42 34 3 37 0 58 -42 28 -58 52 -62 45 -8 -4 35 -20 88 -38 123 -4
9 -13 35 -19 58 -13 50 -38 66 -68 45z m38 -83 c0 -9 5 -22 12 -29 16 -16 -3
-35 -28 -30 -14 3 -18 11 -16 33 1 17 5 36 7 43 6 18 25 5 25 -17z"/>
<path d="M4672 2568 c3 -129 4 -133 25 -133 11 0 25 -3 29 -7 17 -18 69 -7 96
19 23 22 28 35 28 77 0 63 -35 106 -86 106 -30 0 -33 3 -36 33 -2 27 -8 33
-31 35 l-28 3 3 -133z m138 -40 c0 -27 -30 -68 -49 -68 -15 0 -41 42 -41 67 0
13 9 32 20 43 20 20 21 20 45 3 15 -11 24 -28 25 -45z"/>
<path d="M5000 2660 c0 -41 0 -42 -31 -35 -25 6 -36 2 -60 -21 -25 -24 -29
-35 -29 -84 0 -47 4 -60 24 -79 22 -21 31 -22 85 -16 l61 7 2 94 c4 184 6 169
-24 172 -27 3 -28 1 -28 -38z m-17 -84 c24 -19 20 -94 -6 -110 -15 -9 -23 -6
-43 17 -27 31 -25 58 5 89 20 21 22 21 44 4z"/>
<path d="M5532 2684 c-12 -8 -22 -23 -22 -32 0 -9 -7 -30 -15 -46 -8 -15 -15
-38 -15 -50 0 -11 -9 -34 -20 -51 -23 -35 -26 -80 -6 -88 17 -7 31 8 51 56 14
33 18 36 52 34 29 -2 39 -7 41 -22 5 -33 37 -69 56 -62 19 7 13 47 -10 82 -8
11 -14 27 -14 36 0 9 -7 30 -15 45 -8 16 -15 38 -15 50 0 16 -32 64 -43 64 -1
0 -13 -7 -25 -16z m40 -109 c3 -30 -15 -43 -39 -27 -10 6 -9 16 4 45 18 40 29
34 35 -18z"/>
<path d="M5853 2685 c-3 -9 1 -23 10 -33 10 -11 12 -24 7 -37 -10 -24 -13
-156 -4 -179 3 -9 12 -16 19 -16 16 0 27 131 16 181 -5 21 -4 43 1 53 5 10 7
24 4 32 -7 19 -45 18 -53 -1z"/>
<path d="M6229 2661 c-37 -37 -39 -42 -39 -103 0 -60 2 -67 34 -100 19 -20 46
-38 61 -42 35 -9 92 19 111 56 13 26 13 29 -2 35 -9 3 -24 1 -33 -5 -46 -34
-61 -36 -89 -15 -56 41 -31 163 33 163 13 0 35 -11 49 -25 14 -14 30 -25 36
-25 19 0 10 47 -15 74 -18 20 -34 26 -66 26 -35 0 -48 -6 -80 -39z"/>
<path d="M6944 2686 c-3 -8 -1 -23 4 -33 5 -10 6 -56 1 -108 -9 -101 -5 -128
19 -123 14 3 18 18 20 86 2 45 -2 91 -8 102 -8 15 -7 26 6 44 8 14 13 30 9 36
-9 15 -45 12 -51 -4z"/>
<path d="M7339 2691 c-2 -6 -2 -66 1 -133 5 -118 6 -123 27 -123 12 0 25 -4
29 -8 17 -17 69 -6 96 20 24 22 28 35 28 78 0 44 -4 55 -29 79 -24 23 -36 28
-60 23 -28 -6 -30 -5 -33 31 -3 32 -7 37 -29 40 -15 2 -29 -2 -30 -7z m121
-121 c25 -25 26 -63 3 -90 -22 -26 -38 -25 -57 2 -21 29 -20 67 1 90 21 23 28
23 53 -2z"/>
<path d="M7949 2679 c-18 -18 -20 -29 -16 -64 5 -34 2 -47 -13 -65 -29 -33
-25 -74 7 -105 32 -29 83 -34 103 -10 12 14 15 14 36 0 13 -8 30 -15 39 -15
19 0 20 34 0 50 -19 16 -19 54 0 70 8 7 12 16 9 21 -9 15 -44 10 -50 -6 -4 -8
-12 -15 -20 -15 -19 0 -18 56 1 64 23 8 18 50 -8 74 -29 28 -61 28 -88 1z m58
-45 c8 -20 -13 -42 -27 -28 -12 12 -3 44 11 44 5 0 12 -7 16 -16z m3 -114 c24
-24 25 -36 4 -44 -42 -16 -81 12 -64 45 14 24 35 24 60 -1z"/>
<path d="M7036 2644 c-11 -29 6 -188 22 -206 17 -20 72 -24 72 -6 0 6 -10 22
-21 34 -31 33 -35 90 -9 104 25 13 25 38 1 68 -22 26 -56 29 -65 6z"/>
<path d="M4193 2593 c-40 -43 -43 -90 -12 -135 32 -44 64 -53 105 -27 55 34
40 75 -16 42 -29 -17 -30 -17 -45 2 -8 11 -15 23 -15 27 0 4 28 8 63 10 60 3
62 4 65 32 5 39 -40 86 -82 86 -23 0 -40 -10 -63 -37z m85 -35 c3 -14 -3 -18
-27 -18 -29 0 -41 17 -24 34 13 13 48 1 51 -16z"/>
<path d="M5097 2623 c-4 -3 -7 -40 -7 -82 1 -59 5 -81 19 -98 20 -23 65 -31
76 -13 4 6 13 5 25 -2 11 -7 22 -9 27 -5 10 11 17 130 9 172 -14 74 -52 24
-40 -52 4 -30 1 -43 -15 -62 -20 -23 -22 -24 -41 -6 -15 14 -20 31 -20 71 0
71 -12 99 -33 77z"/>
<path d="M5692 2603 c2 -21 8 -28 25 -28 11 0 24 -3 28 -7 6 -6 -28 -64 -46
-78 -12 -10 -18 -45 -10 -58 5 -9 26 -12 67 -10 51 3 59 6 59 23 0 14 -8 21
-25 23 -43 6 -44 19 -6 65 57 70 45 97 -42 97 -52 0 -53 -1 -50 -27z"/>
<path d="M5942 2608 c2 -16 13 -26 36 -33 17 -5 32 -12 32 -15 0 -3 -18 -25
-40 -50 -24 -26 -39 -53 -38 -65 3 -18 12 -20 76 -23 l73 -3 -3 28 c-3 25 -6
28 -35 25 -44 -4 -43 13 3 66 23 27 34 50 32 64 -3 21 -9 23 -71 26 -66 3 -68
2 -65 -20z"/>
<path d="M6663 2613 c-44 -30 -22 -63 26 -39 25 13 31 14 41 1 17 -20 4 -35
-32 -35 -30 0 -77 -34 -78 -56 0 -6 11 -24 24 -39 22 -26 28 -27 72 -21 68 9
73 18 65 103 -5 55 -12 76 -26 88 -26 19 -64 18 -92 -2z m75 -119 c-5 -25 -35
-41 -49 -27 -18 18 -3 43 26 43 19 0 26 -5 23 -16z"/>
<path d="M6828 2548 c-4 -106 0 -130 21 -126 12 3 17 18 19 71 2 53 7 69 20
74 21 8 32 23 32 46 0 19 -26 23 -33 5 -3 -10 -9 -10 -26 0 -11 6 -23 12 -25
12 -3 0 -6 -37 -8 -82z"/>
<path d="M7183 2613 c-23 -16 -32 -53 -13 -53 6 0 24 7 40 15 27 14 30 14 39
-4 13 -24 5 -31 -37 -31 -56 0 -80 -50 -46 -98 17 -24 71 -31 92 -10 8 8 15 8
25 -1 20 -16 27 5 27 79 0 48 -5 64 -26 89 -29 35 -65 40 -101 14z m80 -110
c9 -8 -22 -43 -38 -43 -18 0 -38 27 -30 40 7 11 58 14 68 3z"/>
<path d="M7665 2605 c-27 -22 -30 -30 -30 -85 0 -62 12 -80 66 -102 19 -7 79
20 86 39 11 27 -13 36 -48 19 -30 -15 -34 -15 -51 0 -29 27 -22 33 45 36 62 3
62 3 65 35 3 25 -3 39 -24 58 -34 31 -70 31 -109 0z m85 -52 c0 -8 -14 -13
-35 -13 -38 0 -45 15 -18 35 19 14 53 0 53 -22z"/>
<path d="M7034 2288 c-4 -6 -6 -32 -5 -57 1 -36 -1 -43 -11 -33 -33 33 -98 1
-118 -58 -15 -44 -3 -87 34 -121 22 -21 72 -25 79 -6 3 9 9 9 26 -1 17 -10 22
-10 25 0 9 29 12 257 4 272 -11 19 -24 21 -34 4z m-22 -135 c28 -25 24 -77 -7
-93 -22 -12 -28 -12 -42 3 -28 28 -13 107 20 107 6 0 19 -7 29 -17z"/>
<path d="M3773 2268 c-11 -17 -12 -243 -2 -260 6 -10 13 -10 26 -2 13 9 18 24
18 60 l0 49 55 0 55 0 0 -50 c0 -47 2 -50 25 -50 l25 0 2 128 3 127 -30 0
c-27 0 -29 -2 -32 -47 -3 -48 -3 -48 -41 -51 -51 -4 -67 10 -60 55 4 24 2 38
-8 44 -19 12 -26 11 -36 -3z"/>
<path d="M4923 2264 c-4 -11 1 -22 12 -30 15 -11 16 -17 7 -26 -13 -13 -17
-163 -6 -192 9 -23 31 -19 37 7 3 12 2 63 -2 112 -5 53 -4 95 2 102 14 19 1
43 -23 43 -11 0 -23 -7 -27 -16z"/>
<path d="M5474 2265 c-9 -22 9 -37 37 -33 16 2 24 10 24 23 0 26 -52 35 -61
10z"/>
<path d="M6128 2273 l-48 -4 0 -88 c0 -49 -3 -101 -6 -117 -7 -40 18 -73 43
-58 13 9 18 24 18 60 l0 49 48 3 c43 3 47 5 47 29 0 24 -2 25 -40 20 -46 -6
-71 13 -53 41 7 13 25 17 64 17 44 0 54 3 57 19 2 10 -2 22 -10 27 -13 9 -29
9 -120 2z"/>
<path d="M7447 2273 c-11 -10 -8 -20 8 -37 12 -12 13 -20 5 -35 -11 -21 -14
-159 -4 -185 8 -22 34 -20 35 2 3 47 -1 185 -7 193 -3 5 0 16 6 24 7 8 10 22
6 30 -5 15 -37 21 -49 8z"/>
<path d="M5025 2220 c-12 -22 -13 -35 -5 -49 5 -11 10 -45 10 -75 0 -63 25
-100 63 -94 30 4 33 33 5 58 -30 25 -29 68 1 106 l21 27 -32 28 c-18 16 -36
28 -40 29 -4 0 -14 -14 -23 -30z"/>
<path d="M7333 2233 c-4 -10 -11 -21 -17 -25 -7 -4 -5 -18 6 -41 11 -22 14
-48 11 -79 -4 -38 -2 -48 18 -67 12 -11 30 -21 40 -21 28 0 31 29 4 52 -29 25
-33 73 -10 104 16 21 20 54 6 54 -5 0 -13 9 -16 20 -8 25 -33 26 -42 3z"/>
<path d="M4391 2204 c-18 -13 -27 -14 -44 -5 -12 6 -44 10 -70 9 -57 -3 -59
-8 -55 -118 3 -73 4 -75 28 -75 23 0 25 4 28 55 3 75 10 100 27 100 23 0 36
-36 29 -79 -8 -49 2 -91 20 -91 19 0 26 23 26 90 0 40 5 62 15 70 25 21 39 -3
45 -78 4 -60 7 -67 28 -70 21 -3 22 -1 22 73 0 71 -2 79 -29 106 -34 34 -39
35 -70 13z"/>
<path d="M4580 2213 c-24 -9 -60 -45 -54 -54 8 -13 41 -11 64 4 17 10 22 9 30
-3 19 -29 11 -40 -28 -40 -66 0 -96 -61 -49 -101 25 -21 63 -25 70 -6 3 9 9 9
26 -1 19 -11 22 -10 30 10 13 37 1 155 -18 171 -20 18 -51 27 -71 20z m53
-127 c3 -8 -4 -21 -17 -30 -22 -14 -25 -13 -41 4 -14 16 -15 20 -4 24 8 2 21
7 29 9 24 9 28 8 33 -7z"/>
<path d="M4786 2205 c-9 -9 -17 -11 -21 -5 -3 5 -12 10 -19 10 -9 0 -15 -25
-19 -84 -6 -91 -1 -126 18 -126 18 0 25 24 25 90 0 40 5 61 16 71 28 23 49 -1
52 -62 3 -74 10 -99 26 -99 20 0 24 28 18 109 -4 61 -8 75 -30 91 -30 24 -46
25 -66 5z"/>
<path d="M5183 2198 c-41 -29 -42 -48 -4 -48 16 0 31 6 34 13 6 16 41 -4 45
-27 3 -13 -5 -16 -42 -16 -37 0 -49 -5 -61 -24 -17 -26 -12 -51 16 -78 21 -21
65 -24 72 -5 3 9 9 9 25 0 11 -6 23 -9 26 -6 3 4 6 42 6 85 0 64 -3 81 -20 98
-31 31 -61 33 -97 8z m77 -116 c0 -27 -34 -44 -56 -27 -21 15 -13 30 21 38 34
8 35 8 35 -11z"/>
<path d="M5420 2205 c-9 -11 -16 -12 -31 -2 -29 18 -39 -5 -39 -95 0 -84 6
-108 25 -108 18 0 25 23 25 85 0 45 4 55 25 69 25 16 34 50 16 60 -5 3 -14 -1
-21 -9z"/>
<path d="M5630 2213 c-24 -9 -60 -45 -54 -54 8 -13 48 -11 62 3 8 8 15 8 27
-2 28 -23 18 -40 -23 -40 -66 0 -96 -61 -49 -101 25 -21 63 -25 70 -6 3 9 9 9
25 0 11 -6 23 -9 26 -6 3 4 6 43 6 87 0 68 -3 84 -19 98 -23 20 -51 28 -71 21z
m53 -127 c3 -8 -4 -21 -17 -30 -22 -14 -25 -13 -41 4 -14 16 -15 20 -4 24 8 2
21 7 29 9 24 9 28 8 33 -7z"/>
<path d="M5840 2210 c-8 -5 -24 -7 -36 -4 -20 5 -22 1 -26 -83 -5 -102 -2
-125 21 -121 12 2 17 19 21 68 6 80 21 110 47 94 13 -8 19 -26 21 -65 3 -74
10 -99 26 -99 20 0 26 23 26 98 0 58 -3 69 -27 94 -28 29 -48 34 -73 18z"/>
<path d="M6340 2213 c-50 -20 -79 -90 -60 -147 31 -94 155 -82 174 17 14 76
-54 154 -114 130z m52 -60 c27 -25 24 -81 -6 -94 -54 -25 -92 46 -49 93 20 22
31 23 55 1z"/>
<path d="M6745 2211 l-40 -6 -3 -80 c-3 -91 3 -125 22 -125 19 0 26 35 19 87
-4 34 -2 48 12 63 38 42 59 13 55 -76 -1 -35 3 -54 14 -63 27 -22 36 -2 36 77
-1 109 -26 136 -115 123z"/>
<path d="M7161 2202 c-19 -10 -37 -24 -39 -30 -6 -19 27 -26 54 -12 18 10 27
11 36 2 20 -20 1 -42 -36 -42 -49 0 -74 -36 -54 -77 17 -35 59 -51 91 -34 13
7 32 11 43 9 17 -3 19 4 22 60 2 50 -1 70 -18 98 -12 18 -25 34 -30 34 -5 0
-14 2 -22 5 -7 3 -29 -3 -47 -13z m62 -119 c10 -10 -13 -33 -34 -33 -21 0 -33
15 -24 30 7 11 48 14 58 3z"/>
<path d="M7600 2213 c-71 -29 -89 -135 -32 -188 70 -65 170 13 143 111 -15 55
-70 93 -111 77z m52 -60 c27 -25 24 -81 -6 -94 -54 -25 -92 46 -49 93 20 22
31 23 55 1z"/>
<path d="M7818 2206 c-9 -10 -17 -11 -30 -3 -9 6 -20 8 -23 5 -8 -8 -15 -177
-8 -195 8 -21 32 -15 38 10 3 12 6 46 7 76 3 61 24 85 52 62 12 -10 16 -32 16
-83 0 -54 3 -70 16 -75 25 -9 34 16 34 94 0 67 -2 73 -31 97 -34 29 -52 32
-71 12z"/>
<path d="M4021 2188 c-14 -37 4 -147 28 -171 19 -19 23 -20 75 -7 l55 13 3 74
c4 87 -4 113 -32 113 -18 0 -20 -6 -20 -69 0 -71 -14 -99 -44 -88 -11 4 -16
26 -18 79 -2 60 -6 73 -20 76 -11 2 -21 -5 -27 -20z"/>
<path d="M5487 2204 c-11 -12 -8 -192 3 -199 6 -4 18 -1 26 6 22 18 16 192 -6
197 -9 1 -19 0 -23 -4z"/>
<path d="M6497 2203 c-4 -3 -7 -39 -7 -78 0 -86 22 -125 71 -125 16 0 29 5 29
11 0 7 11 8 30 4 l30 -7 0 101 c0 92 -2 101 -19 101 -25 0 -33 -24 -26 -75 5
-32 2 -46 -14 -65 -16 -20 -23 -23 -38 -14 -14 9 -19 26 -21 83 -2 50 -7 71
-16 71 -7 0 -16 -3 -19 -7z"/>
</g>
</svg>
