 <svg  version="1.0" xmlns="http://www.w3.org/2000/svg"  width="1536.000000pt" height="1024.000000pt" viewBox="0 0 1536.000000 1024.000000"  preserveAspectRatio="xMidYMid meet">  <g transform="translate(0.000000,1024.000000) scale(0.100000,-0.100000)" fill="#ffffff" stroke="none"> <path d="M1005 9426 c-224 -44 -394 -175 -491 -380 -137 -289 -36 -656 230 -834 297 -199 680 -145 909 126 92 109 157 285 157 427 0 135 -56 297 -141 411 -145 191 -424 297 -664 250z m313 -37 c212 -65 371 -218 439 -422 23 -71 27 -98 27 -202 0 -105 -4 -130 -28 -200 -59 -173 -172 -302 -329 -380 -381 -188 -823 9 -934 416 -28 101 -23 262 10 365 74 227 264 394 502 440 89 17 224 10 313 -17z"/> <path d="M1023 9363 c-22 -8 -14 -21 8 -16 21 6 21 5 -2 -30 l-24 -35 -24 34 c-28 40 -36 36 -45 -26 l-7 -45 22 23 c14 16 25 20 31 14 6 -6 27 -8 47 -5 43 7 66 23 32 23 -22 0 -23 1 -7 25 9 13 16 29 16 35 0 10 -25 12 -47 3z"/> <path d="M1090 9330 c0 -22 5 -40 10 -40 6 0 10 18 10 40 0 22 -4 40 -10 40 -5 0 -10 -18 -10 -40z"/> <path d="M1149 9361 c22 -6 22 -7 7 -20 -9 -8 -21 -22 -26 -32 -8 -14 -4 -17 25 -21 19 -2 35 0 35 4 0 4 -10 8 -22 8 l-21 0 21 23 c31 33 28 47 -10 46 -29 -1 -30 -2 -9 -8z"/> <path d="M1253 9333 c-3 -10 -8 -21 -10 -25 -7 -13 36 -48 52 -42 22 9 19 26 -4 19 -22 -7 -34 15 -20 36 7 12 12 12 30 1 18 -12 20 -11 17 5 -5 25 -56 30 -65 6z"/> <path d="M1336 9294 c-18 -40 -14 -59 8 -29 17 24 40 11 26 -16 -7 -12 -7 -19 -1 -19 12 0 41 52 41 72 -1 9 -5 8 -13 -4 -16 -20 -40 -8 -31 15 12 33 -13 16 -30 -19z"/> <path d="M832 9251 c21 -37 23 -38 45 -24 28 19 31 38 3 23 -17 -9 -22 -7 -32 15 -6 14 -17 25 -25 25 -10 0 -8 -10 9 -39z"/> <path d="M780 9258 c0 -6 8 -20 17 -30 13 -14 14 -21 4 -31 -9 -9 -17 -5 -35 17 -13 17 -26 25 -29 19 -3 -5 7 -23 24 -39 l29 -28 21 20 c20 20 20 21 2 52 -18 32 -33 41 -33 20z"/> <path d="M1423 9249 c-35 -22 -36 -41 -3 -32 15 4 20 0 20 -16 0 -30 17 -26 23 7 3 15 9 35 12 45 10 23 -12 22 -52 -4z"/> <path d="M1010 9234 c-88 -23 -160 -64 -226 -129 -282 -276 -124 -751 272 -817 60 -10 85 -9 154 5 108 21 178 56 256 130 194 181 200 478 14 671 -125 130 -305 184 -470 140z m233 -19 c185 -48 321 -197 350 -384 49 -320 -263 -598 -578 -516 -88 23 -170 72 -229 136 -240 259 -122 670 221 764 65 18 167 18 236 0z"/> <path d="M975 9187 c-258 -96 -371 -373 -253 -617 42 -86 123 -167 213 -211 68 -33 73 -34 190 -34 120 0 122 0 199 38 166 82 255 225 256 408 0 188 -128 362 -309 419 -89 28 -215 27 -296 -3z m302 -17 c103 -36 199 -124 250 -229 38 -80 44 -218 13 -310 -53 -157 -180 -262 -351 -291 -282 -48 -542 216 -490 498 49 266 320 422 578 332z"/> <path d="M1044 9125 c3 -8 9 -22 12 -30 4 -10 0 -15 -11 -15 -9 0 -15 6 -13 12 6 16 -20 43 -30 33 -4 -4 -2 -10 4 -12 13 -4 6 -53 -7 -53 -4 0 -13 9 -19 20 -11 21 -30 27 -30 9 0 -5 3 -8 8 -5 4 2 12 -7 19 -20 6 -14 7 -26 2 -30 -13 -7 -11 -24 2 -24 6 0 13 9 16 19 5 20 56 45 67 34 3 -4 6 2 6 13 0 31 -12 64 -22 64 -6 0 -7 -7 -4 -15z"/> <path d="M1081 9125 c0 -11 4 -29 9 -40 8 -18 9 -18 9 5 0 14 -4 32 -9 40 -8 12 -10 12 -9 -5z"/> <path d="M1165 9110 c5 -14 2 -20 -9 -20 -9 0 -16 -5 -16 -11 0 -6 16 -9 37 -7 29 2 39 8 41 23 2 18 2 18 -8 3 -16 -26 -30 -22 -30 7 0 14 -5 25 -11 25 -6 0 -8 -9 -4 -20z"/> <path d="M1235 9090 c-21 -24 -12 -40 23 -40 23 1 25 2 10 11 -25 14 -23 32 2 24 25 -8 26 1 1 14 -14 8 -22 6 -36 -9z"/> <path d="M1355 9070 c5 -14 2 -20 -10 -20 -9 0 -13 -4 -10 -10 3 -6 -1 -7 -9 -4 -9 3 -16 1 -16 -5 0 -6 4 -11 8 -11 16 0 71 -61 91 -102 18 -36 18 -43 5 -52 -25 -19 -7 -48 29 -44 17 2 32 9 35 15 5 18 -28 29 -38 12 -5 -7 -13 -10 -17 -5 -4 4 -1 13 8 19 21 16 24 28 7 38 -11 7 -10 11 2 19 13 8 12 10 -4 10 -11 0 -16 3 -13 6 3 4 -5 16 -19 26 -14 11 -23 23 -20 26 3 3 -3 12 -15 20 -19 13 -19 15 -4 32 8 9 13 24 9 34 -9 23 -27 20 -19 -4z"/> <path d="M920 9050 c0 -5 5 -10 12 -10 9 0 9 -3 0 -12 -10 -10 -17 -10 -32 0 -23 14 -27 0 -6 -17 11 -10 20 -10 38 0 l23 12 -23 -26 c-14 -15 -19 -27 -13 -31 16 -10 40 36 34 67 -5 25 -33 40 -33 17z"/> <path d="M840 8999 c0 -7 3 -10 6 -6 3 3 15 -3 27 -13 17 -17 18 -22 6 -36 -12 -14 -11 -16 6 -13 39 8 23 59 -23 73 -15 5 -22 3 -22 -5z"/> <path d="M1068 8986 c-57 -21 -85 -42 -115 -87 -56 -85 -39 -207 39 -274 101 -86 235 -71 313 35 30 41 24 54 -7 15 -81 -103 -257 -52 -284 83 -23 116 91 223 206 192 22 -6 42 -15 45 -20 3 -6 11 -10 17 -10 18 0 -14 30 -54 51 -51 26 -115 32 -160 15z"/> <path d="M793 8937 c2 -7 13 -13 25 -15 12 -2 22 -7 22 -12 0 -5 -14 -4 -32 1 -17 5 -34 6 -37 3 -8 -7 21 -24 42 -24 9 0 17 -4 17 -10 0 -5 -9 -10 -20 -10 -11 0 -20 -7 -20 -15 0 -8 5 -15 10 -15 17 0 11 -18 -7 -23 -11 -2 -9 -3 4 -2 13 1 25 -6 31 -19 l11 -21 0 22 c1 12 -3 24 -8 28 -6 3 -4 19 5 40 20 49 18 59 -17 72 -23 9 -29 9 -26 0z"/> <path d="M1270 8860 c-20 -28 -23 -29 -43 -15 -37 26 -51 19 -28 -14 l20 -28 -24 -23 c-34 -32 -31 -40 7 -29 18 5 34 9 35 9 2 0 11 -17 20 -37 l17 -38 4 43 c3 41 4 42 38 42 42 0 44 13 3 30 -28 12 -30 15 -24 51 8 47 3 49 -25 9z"/> <path d="M1440 8790 c0 -13 7 -20 20 -20 24 0 27 25 4 34 -23 9 -24 8 -24 -14z"/> <path d="M776 8771 c-3 -5 3 -11 14 -14 11 -3 20 -12 20 -21 0 -18 -38 -42 -59 -37 -13 2 -13 0 -1 -14 10 -12 15 -13 21 -4 6 10 11 10 22 1 23 -20 39 8 31 57 -5 31 -11 41 -25 41 -10 0 -20 -4 -23 -9z"/> <path d="M1435 8721 c-8 -26 -8 -26 28 -35 20 -5 27 -3 27 9 0 8 -5 15 -11 15 -7 0 -17 8 -24 17 -11 15 -13 15 -20 -6z"/> <path d="M1387 8622 c-24 -27 -21 -51 9 -62 33 -13 47 -13 39 0 -3 6 -15 10 -26 10 -22 0 -24 12 -7 39 9 15 17 17 36 10 22 -8 23 -8 12 6 -17 20 -43 19 -63 -3z"/> <path d="M811 8616 c-9 -10 -8 -16 4 -26 8 -7 15 -19 15 -26 0 -8 4 -14 9 -14 5 0 7 8 4 19 -7 26 24 36 32 11 4 -11 3 -25 -1 -32 -6 -9 -3 -9 9 1 14 11 20 11 32 1 14 -12 14 -15 -1 -31 -10 -11 -14 -22 -11 -25 7 -7 46 35 47 50 0 5 6 3 13 -3 19 -15 29 -2 12 15 -7 8 -20 11 -28 8 -15 -5 -67 38 -67 56 0 6 -7 10 -15 10 -8 0 -14 -3 -12 -7 1 -5 -2 -8 -8 -8 -5 0 -9 3 -7 8 4 12 -15 8 -27 -7z"/> <path d="M1332 8559 c2 -6 6 -9 10 -7 3 2 18 -8 32 -21 14 -14 29 -22 32 -18 9 8 -45 57 -63 57 -8 0 -13 -5 -11 -11z"/> <path d="M1292 8535 c-13 -13 -30 -21 -38 -18 -10 3 -14 -2 -14 -18 0 -18 -3 -20 -12 -11 -14 14 -54 16 -63 3 -8 -14 6 -91 17 -91 6 0 7 17 3 41 -7 40 -7 41 21 38 34 -2 74 10 74 22 0 5 6 9 14 9 8 0 17 6 20 13 3 8 14 2 30 -18 17 -20 26 -25 26 -14 0 8 -12 27 -27 42 l-28 26 -23 -24z"/> <path d="M960 8510 c-11 -11 -20 -27 -20 -35 0 -23 9 -18 20 10 5 14 14 25 19 25 19 0 22 -21 7 -45 -9 -14 -12 -25 -7 -25 10 0 41 44 41 59 0 6 -9 15 -20 21 -15 8 -24 6 -40 -10z"/> <path d="M1050 8491 c-7 -14 -7 -22 1 -26 6 -4 8 -13 5 -21 -6 -15 2 -44 13 -44 3 0 7 18 8 40 0 22 -3 40 -9 40 -5 0 -6 5 -3 10 4 6 11 8 16 5 5 -4 9 -1 9 4 0 18 -29 12 -40 -8z"/> <path d="M1129 8483 c-2 -23 0 -42 7 -72 4 -19 7 -22 14 -11 5 8 4 22 -2 33 -5 10 -7 30 -4 43 4 14 2 24 -4 24 -5 0 -11 -8 -11 -17z"/> <path d="M1290 8475 c-7 -9 -11 -18 -8 -20 3 -3 11 1 18 10 7 9 11 18 8 20 -3 3 -11 -1 -18 -10z"/> <path d="M1490 9199 c-12 -16 -19 -33 -15 -37 4 -4 10 -1 12 6 9 23 25 12 19 -13 -4 -14 -2 -25 4 -25 5 0 10 6 10 14 0 8 9 18 20 21 25 8 26 27 2 48 -25 23 -27 22 -52 -14z m47 -15 c-9 -9 -28 6 -21 18 4 6 10 6 17 -1 6 -6 8 -13 4 -17z"/> <path d="M682 9188 c-18 -18 -15 -32 13 -58 24 -23 25 -23 45 -5 25 22 25 37 2 58 -22 20 -43 22 -60 5z m54 -23 c10 -26 -6 -38 -27 -19 -10 9 -16 21 -13 25 8 14 34 10 40 -6z"/> <path d="M1553 9145 c-35 -34 -28 -53 7 -20 29 28 38 46 23 44 -5 -1 -18 -11 -30 -24z"/> <path d="M1602 9135 c2 -12 -7 -29 -22 -42 -14 -12 -22 -25 -17 -29 4 -4 18 3 31 15 14 13 29 20 35 16 17 -10 12 8 -10 35 -18 22 -20 23 -17 5z"/> <path d="M625 9110 c-18 -20 -18 -21 1 -35 43 -34 53 -36 64 -16 14 28 12 51 -5 51 -8 0 -15 5 -15 10 0 17 -26 11 -45 -10z m56 -33 c-13 -13 -26 -3 -16 12 3 6 11 8 17 5 6 -4 6 -10 -1 -17z"/> <path d="M1603 9053 c-29 -5 -30 -19 -2 -26 16 -4 19 -10 14 -29 -7 -22 -6 -21 24 6 50 48 39 63 -36 49z"/> <path d="M576 9032 c-3 -5 11 -24 30 -43 l35 -34 -7 28 c-5 23 -3 29 15 34 11 3 21 9 21 14 0 11 -87 12 -94 1z"/> <path d="M1647 8978 c-22 -8 -26 -14 -21 -31 10 -35 20 -40 53 -26 31 14 36 24 25 53 -7 18 -17 19 -57 4z m13 -33 c0 -8 -4 -15 -10 -15 -5 0 -10 7 -10 15 0 8 5 15 10 15 6 0 10 -7 10 -15z"/> <path d="M536 8923 c-4 -14 -3 -29 1 -33 12 -12 73 -23 73 -13 0 4 3 18 6 31 4 13 2 22 -5 22 -6 0 -11 -9 -11 -20 0 -11 -5 -20 -11 -20 -6 0 -9 9 -6 20 3 11 1 20 -4 20 -5 0 -9 -7 -9 -15 0 -8 -5 -15 -11 -15 -6 0 -9 9 -6 20 3 11 2 22 -3 25 -4 3 -11 -7 -14 -22z"/> <path d="M1668 8893 c-20 -5 -25 -48 -6 -59 7 -5 9 0 6 14 -6 22 8 32 43 32 10 0 19 5 19 10 0 10 -30 12 -62 3z"/> <path d="M520 8851 c0 -6 7 -11 15 -11 8 0 15 -7 15 -15 0 -8 -7 -15 -15 -15 -31 0 -13 -18 23 -22 44 -6 53 -1 29 16 -20 16 -23 38 -3 30 8 -3 17 -1 21 5 3 6 0 11 -8 11 -8 0 -29 3 -46 6 -20 4 -31 3 -31 -5z"/> <path d="M1679 8823 c-22 -3 -25 -8 -21 -33 2 -17 9 -30 14 -30 5 0 7 9 3 19 -3 11 -1 22 5 26 5 3 10 -3 10 -14 0 -11 5 -23 10 -26 6 -4 10 6 10 22 l1 28 14 -30 13 -30 1 38 c1 39 1 39 -60 30z"/> <path d="M521 8742 c-1 -27 3 -41 9 -37 6 4 8 11 5 16 -4 5 10 9 29 9 20 0 36 5 36 10 0 6 -15 10 -34 10 -24 0 -36 5 -39 18 -3 9 -5 -2 -6 -26z"/> <path d="M1663 8708 c-12 -16 -15 -60 -3 -53 4 3 11 -1 13 -7 3 -8 6 -6 6 5 1 20 17 23 24 5 3 -10 7 -10 20 1 24 19 21 27 -15 45 -37 19 -33 19 -45 4z"/> <path d="M566 8644 c-42 -29 -39 -38 17 -48 40 -7 45 -3 22 21 -12 12 -13 18 -4 29 21 25 4 24 -35 -2z"/> <path d="M1630 8591 c0 -5 6 -11 14 -14 9 -4 13 -14 9 -29 -4 -21 -3 -22 10 -5 19 23 30 22 17 -2 -6 -12 -6 -22 -1 -25 5 -3 14 8 20 24 10 29 8 31 -26 45 -42 18 -43 18 -43 6z"/> <path d="M582 8569 c-18 -5 -30 -14 -27 -19 3 -6 16 -5 33 1 l27 10 -25 -25 c-14 -16 -20 -30 -14 -35 11 -10 74 15 74 29 0 7 -7 7 -21 0 -26 -14 -35 -7 -14 10 15 13 21 41 8 39 -5 0 -23 -5 -41 -10z"/> <path d="M1590 8511 c-13 -25 -3 -51 24 -61 29 -11 56 6 56 35 0 41 -61 61 -80 26z m57 -17 c3 -8 1 -20 -4 -25 -12 -12 -48 14 -39 29 10 17 36 15 43 -4z"/> <path d="M631 8481 c-31 -44 -27 -54 17 -46 40 7 68 25 39 25 -16 0 -21 10 -18 38 3 22 -17 13 -38 -17z"/> <path d="M1540 8435 c-11 -13 -8 -21 15 -45 15 -16 33 -26 38 -23 6 3 -2 16 -18 29 -36 28 -25 44 14 21 37 -22 49 -9 14 15 -34 22 -47 23 -63 3z"/> <path d="M678 8419 c-30 -22 -38 -45 -12 -35 23 9 37 -3 23 -20 -23 -28 2 -27 31 1 28 27 33 58 5 35 -16 -13 -28 1 -19 24 8 20 5 20 -28 -5z"/> <path d="M1500 8393 c0 -3 8 -15 17 -25 16 -18 16 -19 -11 -8 -42 16 -51 2 -20 -31 35 -36 56 -39 23 -2 -21 23 -22 25 -4 18 62 -23 69 -17 30 28 -24 27 -35 33 -35 20z"/> <path d="M750 8370 c-14 -9 -7 -40 9 -40 6 0 8 7 5 15 -7 17 11 21 21 5 8 -13 -13 -40 -31 -40 -8 0 -14 7 -14 15 0 8 -4 15 -10 15 -14 0 -13 -23 2 -38 18 -18 45 -14 62 10 24 33 -11 79 -44 58z"/> <path d="M1420 8325 c-15 -18 -6 -61 15 -69 9 -3 27 1 40 10 23 15 23 16 4 35 -10 10 -19 24 -19 29 0 15 -26 12 -40 -5z m35 -26 c8 -23 1 -34 -14 -24 -13 8 -15 45 -2 45 5 0 13 -9 16 -21z"/> <path d="M845 8271 c-3 -8 0 -18 7 -22 7 -5 15 -4 16 1 2 6 8 8 12 5 5 -3 8 3 7 14 -1 23 -34 24 -42 2z"/> <path d="M936 8248 c-20 -28 -20 -33 0 -52 21 -21 41 -20 53 3 8 15 7 20 -5 25 -12 5 -15 2 -10 -10 4 -11 1 -14 -11 -12 -20 4 -26 18 -13 38 8 12 13 13 30 2 22 -13 27 -3 8 16 -18 18 -35 15 -52 -10z"/> <path d="M1278 8225 c-4 -50 -3 -51 19 -30 11 11 19 13 27 5 7 -5 16 -7 19 -4 7 7 -41 74 -53 74 -4 0 -10 -20 -12 -45z"/> <path d="M1016 8219 c-8 -42 -8 -49 4 -49 6 0 10 7 10 15 0 8 7 15 15 15 8 0 15 -9 15 -20 0 -37 18 -20 22 20 2 28 0 40 -9 40 -7 0 -13 -7 -13 -15 0 -8 -6 -12 -14 -9 -8 3 -12 12 -9 20 3 8 1 14 -5 14 -5 0 -12 -14 -16 -31z"/> <path d="M1230 8228 c-1 -21 -2 -22 -14 -5 -29 38 -48 3 -26 -48 7 -17 9 -16 10 10 l1 30 16 -22 c23 -34 33 -28 33 17 0 22 -4 40 -10 40 -5 0 -10 -10 -10 -22z"/> <path d="M1107 8200 c-13 -34 -13 -40 -1 -40 8 0 14 5 14 10 0 14 28 12 33 -2 11 -31 15 2 5 35 -15 48 -31 47 -51 -3z"/> <path d="M2728 9250 c-92 -16 -128 -79 -136 -239 -8 -186 28 -277 121 -302 105 -28 189 23 211 127 l7 32 -50 3 -51 4 -12 -40 c-12 -38 -15 -40 -53 -40 -34 0 -42 4 -54 30 -9 18 -17 70 -19 130 -6 145 18 215 72 215 31 0 56 -30 56 -68 0 -35 5 -37 71 -26 l36 6 -7 43 c-14 95 -87 142 -192 125z m-25 -72 c-37 -41 -45 -69 -48 -166 -4 -125 6 -186 35 -217 13 -14 21 -27 18 -30 -10 -11 -34 6 -54 38 -16 28 -19 51 -19 172 0 141 5 164 43 208 8 9 22 17 30 17 12 0 11 -5 -5 -22z m156 -4 c22 -28 27 -54 11 -54 -5 0 -10 4 -10 9 0 5 -12 23 -26 40 -19 23 -22 31 -11 31 9 0 25 -12 36 -26z m-13 -401 c-42 -35 -50 -27 -14 13 20 22 34 31 37 23 2 -7 -8 -23 -23 -36z"/> <path d="M1880 9203 l0 -43 53 0 52 0 -3 -225 -3 -225 55 0 56 0 -3 225 -4 225 53 0 54 0 0 43 0 42 -155 0 -155 0 0 -42z m204 -4 c4 -3 -3 -14 -14 -24 -19 -17 -20 -31 -21 -194 0 -97 -4 -185 -9 -196 -11 -26 -10 -39 -13 176 -2 170 -4 189 -22 209 -13 14 -16 23 -8 28 13 8 79 9 87 1z"/> <path d="M2253 8978 l-59 -268 47 0 c45 0 48 2 53 30 3 17 9 44 12 60 6 30 7 30 69 30 l63 0 7 -60 7 -60 52 0 52 0 -53 233 c-29 127 -56 247 -61 266 -7 33 -7 33 -68 35 l-62 1 -59 -267z m152 205 c4 -10 9 -31 12 -48 l5 -30 -24 22 c-18 17 -27 19 -41 11 -25 -13 -30 -6 -22 31 5 26 11 31 35 31 17 0 31 -7 35 -17z m10 -252 c6 -19 3 -21 -40 -21 -44 0 -47 2 -42 23 3 12 11 54 17 92 20 126 21 127 40 24 10 -53 21 -106 25 -118z m66 -55 c0 -12 3 -33 5 -48 l4 -26 -35 35 c-19 19 -35 37 -35 39 0 3 8 16 17 30 16 25 17 25 30 8 7 -10 13 -27 14 -38z m-154 7 c2 -6 -12 -22 -32 -37 -38 -29 -41 -24 -24 37 10 36 12 38 32 24 11 -7 22 -18 24 -24z"/> <path d="M3085 9235 c-2 -5 -27 -116 -55 -245 -28 -129 -53 -245 -57 -257 -5 -22 -2 -23 45 -23 l50 0 7 60 7 60 63 0 62 0 12 -60 12 -60 50 0 c27 0 49 2 49 4 0 1 -20 88 -44 192 -25 104 -52 223 -61 264 l-16 75 -61 0 c-33 0 -62 -4 -63 -10z m99 -51 c9 -25 7 -64 -4 -64 -5 0 -10 4 -10 9 0 17 -29 20 -44 5 -16 -16 -29 -4 -21 20 3 9 7 23 10 31 6 20 61 20 69 -1z m-19 -126 c7 -40 16 -90 20 -110 l7 -38 -44 0 -44 0 20 114 c12 63 22 113 24 111 2 -2 10 -37 17 -77z m92 -205 l10 -53 -38 33 c-44 37 -45 41 -21 72 23 31 36 17 49 -52z m-168 46 l23 -21 -34 -28 c-18 -15 -35 -26 -37 -24 -6 6 10 94 18 94 4 0 17 -10 30 -21z"/> <path d="M3390 8978 l0 -268 50 0 50 0 0 120 0 120 65 0 65 0 0 -120 0 -120 50 0 50 0 0 268 0 267 -50 0 -50 0 0 -107 0 -108 -65 0 -65 0 0 108 0 107 -50 0 -50 0 0 -267z m290 -5 c0 -159 -3 -214 -11 -206 -6 6 -11 43 -10 86 1 66 -2 80 -23 104 l-24 28 24 30 c21 26 24 41 24 108 0 46 4 76 9 72 6 -3 10 -98 11 -222z m-230 158 c0 -67 12 -108 38 -127 16 -11 15 -14 -8 -39 -22 -23 -25 -37 -27 -107 -2 -76 -7 -98 -18 -87 -2 3 -5 86 -5 184 -1 241 -1 235 10 235 6 0 10 -26 10 -59z"/> <path d="M3800 8978 l0 -268 50 0 50 0 0 116 0 116 70 -4 70 -4 0 43 0 43 -70 0 -70 0 0 70 0 70 80 0 80 0 0 43 0 42 -130 0 -130 0 0 -267z m100 216 c0 -2 -9 -13 -20 -24 -16 -16 -20 -33 -20 -83 0 -51 4 -68 20 -82 11 -10 20 -23 20 -30 0 -7 -9 -20 -20 -30 -17 -15 -20 -31 -20 -97 0 -45 -4 -78 -10 -78 -6 0 -10 29 -10 68 -2 166 1 356 5 362 4 7 55 1 55 -6z"/> <path d="M1998 8594 c-11 -11 -10 -134 1 -134 6 0 11 17 13 37 2 27 8 39 21 41 14 3 17 -4 17 -37 0 -23 5 -41 10 -41 6 0 10 17 10 39 0 45 -22 70 -44 52 -12 -10 -15 -7 -18 19 -2 18 -6 28 -10 24z"/> <path d="M2348 8594 c-5 -4 -8 -35 -8 -70 l0 -62 36 1 c43 2 60 22 51 59 -7 27 -32 43 -50 31 -6 -4 -2 -10 11 -14 25 -10 31 -54 8 -62 -18 -7 -40 18 -33 36 7 18 -7 90 -15 81z"/> <path d="M2510 8574 c0 -21 -4 -24 -19 -19 -30 9 -58 -37 -43 -70 9 -20 18 -24 47 -23 l35 1 0 69 c0 39 -4 68 -10 68 -5 0 -10 -12 -10 -26z m-2 -65 c2 -16 -3 -29 -12 -32 -20 -8 -39 18 -31 43 9 29 39 21 43 -11z"/> <path d="M2650 8530 c0 -40 4 -70 10 -70 6 0 10 30 10 70 0 40 -4 70 -10 70 -6 0 -10 -30 -10 -70z"/> <path d="M3229 8598 c-1 -2 -3 -33 -5 -70 -3 -57 -1 -68 12 -68 11 0 14 6 9 20 -9 27 3 60 21 60 10 0 14 -12 14 -40 0 -22 5 -40 10 -40 15 0 12 76 -4 89 -7 6 -22 8 -31 4 -15 -5 -17 -2 -13 15 4 12 2 25 -3 28 -5 3 -9 4 -10 2z"/> <path d="M3680 8532 l0 -69 35 -1 c30 -1 37 3 46 25 13 34 -13 77 -42 68 -15 -5 -19 -2 -19 19 0 14 -4 26 -10 26 -6 0 -10 -29 -10 -68z m65 -12 c8 -25 -11 -51 -31 -43 -14 5 -19 44 -7 56 13 13 32 7 38 -13z"/> <path d="M3787 8593 c-11 -10 -8 -133 3 -133 6 0 10 30 10 70 0 70 -1 76 -13 63z"/> <path d="M1880 8580 c0 -5 9 -10 20 -10 18 0 20 -7 20 -55 0 -30 5 -55 10 -55 6 0 10 25 10 55 0 48 2 55 20 55 11 0 20 5 20 10 0 6 -22 10 -50 10 -27 0 -50 -4 -50 -10z"/> <path d="M2244 8538 c-9 -29 -19 -59 -22 -65 -2 -7 1 -13 6 -13 6 0 14 9 17 20 4 12 15 20 30 20 14 0 25 -7 28 -20 3 -11 10 -20 17 -20 6 0 9 6 7 13 -3 6 -14 36 -23 65 -10 28 -23 52 -30 52 -7 0 -20 -24 -30 -52z m45 -20 c1 -5 -6 -8 -14 -8 -15 0 -21 31 -8 44 7 6 20 -17 22 -36z"/> <path d="M2765 8578 c-20 -56 -35 -102 -35 -109 0 -17 18 -9 23 11 3 13 14 20 30 20 16 0 26 -7 30 -20 3 -11 10 -20 16 -20 14 0 -31 122 -47 128 -7 2 -14 -2 -17 -10z m34 -60 c1 -5 -6 -8 -14 -8 -15 0 -21 31 -8 44 7 6 20 -17 22 -36z"/> <path d="M2930 8580 c0 -5 7 -10 15 -10 8 0 15 5 15 10 0 6 -7 10 -15 10 -8 0 -15 -4 -15 -10z"/> <path d="M3116 8568 c-33 -46 -7 -108 44 -108 19 0 33 7 40 20 12 23 8 25 -20 8 -28 -18 -55 1 -55 37 0 36 27 55 55 37 28 -17 32 -15 20 8 -15 28 -64 27 -84 -2z"/> <path d="M3974 8576 c-3 -8 -3 -20 1 -26 4 -6 1 -17 -5 -25 -6 -8 -10 -24 -8 -37 3 -20 9 -23 51 -24 45 -1 59 7 37 21 -7 4 -7 13 0 26 7 11 7 19 1 19 -5 0 -11 -6 -14 -12 -4 -10 -7 -10 -18 0 -12 11 -12 14 0 21 7 5 11 17 9 27 -4 24 -46 31 -54 10z m34 -68 c18 -18 15 -28 -8 -28 -13 0 -20 7 -20 20 0 23 10 26 28 8z"/> <path d="M3530 8566 c0 -8 -6 -17 -12 -19 -10 -4 -10 -6 0 -6 7 -1 12 -15 12 -36 0 -35 22 -57 38 -40 4 4 1 10 -5 12 -7 3 -13 17 -13 33 0 16 6 31 13 33 10 4 10 6 0 6 -7 1 -13 8 -13 16 0 8 -4 15 -10 15 -5 0 -10 -6 -10 -14z"/> <path d="M2106 8544 c-9 -8 -16 -25 -16 -38 0 -43 45 -62 71 -29 12 15 12 16 -6 9 -33 -12 -39 -12 -42 5 -3 12 3 15 27 11 25 -4 30 -1 30 17 0 11 -9 25 -19 31 -25 13 -27 13 -45 -6z m39 -14 c3 -5 -3 -10 -15 -10 -12 0 -18 5 -15 10 3 6 10 10 15 10 5 0 12 -4 15 -10z"/> <path d="M2610 8527 c0 -34 -20 -64 -33 -50 -4 3 -7 21 -7 40 0 18 -5 33 -11 33 -6 0 -9 -17 -7 -42 3 -42 4 -43 41 -45 l37 -1 0 43 c0 24 -4 47 -10 50 -6 4 -10 -8 -10 -28z"/> <path d="M2850 8549 c0 -4 9 -9 21 -11 l21 -3 -21 -27 c-29 -37 -26 -48 14 -48 19 0 35 5 35 10 0 6 -12 10 -27 10 l-26 0 20 23 c35 39 35 45 -2 49 -19 2 -35 1 -35 -3z"/> <path d="M3337 8549 c-9 -6 -15 -15 -11 -20 4 -6 11 -6 19 1 8 7 19 8 26 4 7 -4 0 -12 -20 -20 -46 -19 -39 -48 12 -51 36 -1 37 0 37 32 0 19 -7 41 -16 49 -18 19 -23 19 -47 5z m32 -69 c-14 -9 -29 -4 -29 10 0 12 34 18 39 7 2 -5 -3 -13 -10 -17z"/> <path d="M3438 8553 c-14 -3 -18 -15 -18 -49 0 -24 5 -44 10 -44 6 0 10 16 10 35 0 22 6 38 15 41 8 4 15 10 15 15 0 9 -4 10 -32 2z"/> <path d="M3597 8549 c-9 -6 -15 -15 -11 -20 4 -6 11 -6 19 1 8 7 19 8 26 4 7 -4 0 -12 -20 -20 -46 -19 -39 -48 12 -51 36 -1 37 0 37 32 0 19 -7 41 -16 49 -18 19 -23 19 -47 5z m32 -69 c-14 -9 -29 -4 -29 10 0 12 34 18 39 7 2 -5 -3 -13 -10 -17z"/> <path d="M3837 8542 c-20 -22 -22 -53 -5 -70 15 -15 55 -16 63 -1 10 15 -3 25 -16 12 -14 -14 -39 -6 -39 11 0 8 10 11 29 8 37 -5 47 12 21 38 -25 25 -32 25 -53 2z m43 -12 c0 -5 -9 -10 -21 -10 -11 0 -17 5 -14 10 3 6 13 10 21 10 8 0 14 -4 14 -10z"/> <path d="M2940 8505 c0 -25 5 -45 10 -45 6 0 10 20 10 45 0 25 -4 45 -10 45 -5 0 -10 -20 -10 -45z"/> <path d="M2993 8543 l28 -4 -25 -34 c-14 -19 -26 -36 -26 -39 0 -3 16 -6 35 -6 19 0 35 5 35 10 0 6 -9 10 -21 10 l-20 0 20 26 c29 37 26 44 -16 43 -32 -2 -33 -3 -10 -6z"/> <path d="M3480 8505 c0 -25 5 -45 10 -45 6 0 10 20 10 45 0 25 -4 45 -10 45 -5 0 -10 -20 -10 -45z"/> <path d="M3520 8366 c0 -19 -4 -23 -19 -19 -29 7 -55 -36 -42 -70 9 -22 16 -26 46 -25 l35 1 0 69 c0 39 -4 68 -10 68 -5 0 -10 -11 -10 -24z m-5 -66 c0 -15 -6 -26 -16 -28 -19 -3 -31 21 -22 43 9 25 38 13 38 -15z"/> <path d="M1890 8315 c0 -37 4 -65 10 -65 6 0 10 14 10 30 0 27 3 30 30 30 27 0 30 -3 30 -30 0 -16 5 -30 10 -30 6 0 10 28 10 65 0 37 -4 65 -10 65 -5 0 -10 -11 -10 -25 0 -21 -5 -25 -30 -25 -25 0 -30 4 -30 25 0 14 -4 25 -10 25 -6 0 -10 -28 -10 -65z"/> <path d="M3050 8315 c0 -37 4 -65 10 -65 6 0 10 14 10 30 0 25 4 30 25 30 14 0 25 5 25 10 0 6 -11 10 -25 10 -16 0 -25 6 -25 15 0 10 10 15 30 15 17 0 30 5 30 10 0 6 -18 10 -40 10 l-40 0 0 -65z"/> <path d="M2518 8358 c-3 -7 -3 -32 0 -56 4 -45 24 -64 45 -43 8 8 7 11 -6 11 -20 0 -24 56 -5 62 9 3 8 9 -4 21 -20 20 -24 21 -30 5z"/> <path d="M3667 8358 c-2 -7 -1 -33 2 -58 4 -32 11 -46 24 -48 9 -2 17 1 17 7 0 6 -4 11 -10 11 -15 0 -12 58 2 62 9 3 8 9 -4 21 -20 20 -24 21 -31 5z"/> <path d="M2022 8305 c3 -49 4 -50 36 -51 32 -1 32 -1 32 48 0 30 -4 47 -10 43 -5 -3 -10 -22 -10 -41 0 -28 -4 -35 -17 -32 -13 2 -18 13 -19 35 0 18 -4 36 -8 40 -4 4 -6 -15 -4 -42z"/> <path d="M2120 8299 c0 -57 17 -66 22 -12 4 52 28 56 28 4 0 -51 18 -54 22 -3 2 25 8 37 18 37 10 0 16 -12 18 -37 4 -46 22 -51 22 -5 0 51 -13 62 -75 63 l-55 1 0 -48z"/> <path d="M2283 8343 c-23 -9 -14 -24 11 -17 13 3 27 1 30 -5 4 -7 -1 -11 -13 -11 -11 0 -27 -7 -36 -16 -22 -22 -3 -44 36 -41 27 2 29 5 29 43 0 48 -19 63 -57 47z m45 -55 c-3 -7 -15 -14 -29 -16 -23 -2 -23 -2 -5 13 24 18 39 20 34 3z"/> <path d="M2370 8298 c0 -27 5 -48 10 -48 6 0 10 18 10 41 0 33 3 40 18 37 12 -2 18 -14 20 -41 2 -20 8 -37 13 -37 6 0 7 15 4 38 -10 59 -12 61 -45 59 -29 -2 -30 -4 -30 -49z"/> <path d="M2470 8300 c0 -27 5 -50 10 -50 6 0 10 23 10 50 0 28 -4 50 -10 50 -5 0 -10 -22 -10 -50z"/> <path d="M2589 8333 c-13 -15 -11 -16 13 -10 15 4 29 3 32 -2 3 -5 -8 -11 -25 -15 -25 -5 -30 -10 -27 -28 2 -19 10 -23 41 -25 35 -1 37 1 37 29 0 60 -40 89 -71 51z m51 -43 c0 -13 -28 -25 -38 -16 -3 4 0 11 8 16 20 13 30 12 30 0z"/> <path d="M2680 8299 c0 -27 5 -49 10 -49 6 0 10 16 10 35 0 22 6 38 15 41 23 9 18 22 -10 22 -23 0 -25 -4 -25 -49z"/> <path d="M2750 8300 c0 -27 5 -50 10 -50 6 0 10 23 10 50 0 28 -4 50 -10 50 -5 0 -10 -22 -10 -50z"/> <path d="M2799 8333 c-13 -15 -11 -16 12 -10 38 10 44 -5 8 -20 -44 -18 -36 -48 14 -50 35 -1 37 1 37 29 0 60 -40 89 -71 51z m46 -52 c-8 -13 -35 -15 -35 -2 0 5 8 11 18 13 21 5 26 2 17 -11z"/> <path d="M2896 8340 c-8 -16 -5 -90 4 -90 5 0 10 11 10 24 0 35 10 56 26 56 10 0 14 -12 14 -40 0 -22 5 -40 10 -40 11 0 14 89 3 91 -26 5 -65 4 -67 -1z"/> <path d="M3154 8325 c-32 -49 24 -103 64 -63 19 19 15 66 -7 78 -29 15 -39 13 -57 -15z m54 -28 c3 -21 -1 -27 -17 -27 -25 0 -34 14 -26 41 10 29 39 20 43 -14z"/> <path d="M3250 8311 c0 -44 13 -59 53 -59 26 0 27 3 27 49 0 57 -17 66 -22 12 -2 -27 -8 -39 -20 -41 -15 -3 -18 4 -18 37 0 23 -4 41 -10 41 -5 0 -10 -17 -10 -39z"/> <path d="M3359 8343 c-6 -26 1 -88 11 -91 9 -3 11 2 6 21 -7 31 1 57 20 57 10 0 14 -12 14 -40 0 -22 5 -40 10 -40 11 0 14 89 3 91 -19 3 -63 5 -64 2z"/> <path d="M3583 8343 c-24 -9 -13 -23 12 -17 15 4 25 2 25 -5 0 -6 -6 -11 -13 -11 -7 0 -22 -6 -32 -14 -16 -11 -17 -16 -6 -29 7 -9 26 -15 42 -15 27 1 29 4 29 38 0 49 -20 68 -57 53z m37 -58 c0 -8 -9 -15 -20 -15 -25 0 -26 17 -2 23 9 3 18 5 20 6 1 0 2 -6 2 -14z"/> <path d="M3730 8300 c0 -27 5 -50 10 -50 6 0 10 23 10 50 0 28 -4 50 -10 50 -5 0 -10 -22 -10 -50z"/> <path d="M3784 8325 c-9 -14 -13 -32 -9 -44 8 -26 50 -38 70 -21 22 18 19 67 -4 80 -29 15 -39 13 -57 -15z m54 -28 c3 -21 -1 -27 -17 -27 -25 0 -34 14 -26 41 10 29 39 20 43 -14z"/> <path d="M3880 8299 c0 -57 17 -66 22 -12 2 27 8 39 21 41 14 3 17 -4 17 -37 0 -23 5 -41 10 -41 14 0 12 76 -2 88 -7 5 -25 10 -40 10 -27 0 -28 -3 -28 -49z"/> </g> </svg> 